<svg width="380" height="380" viewBox="0 0 380 380" fill="none" xmlns="http://www.w3.org/2000/svg">
<g clip-path="url(#clip0_2291_330)">
<path opacity="0.3" fill-rule="evenodd" clip-rule="evenodd" d="M474.59 241.966C474.59 245.777 471.5 248.867 467.688 248.867C465.925 248.867 464.316 248.206 463.096 247.119L457.532 252.65L456.96 252.074L462.523 246.544C462.422 246.43 462.325 246.313 462.231 246.192L311.903 350.603C312.249 351.209 312.505 351.872 312.655 352.575L356.544 344.465C356.481 344.004 356.449 343.534 356.449 343.056C356.449 337.338 361.084 332.703 366.801 332.703C369.334 332.703 371.655 333.613 373.454 335.123L447.999 260.985L448.572 261.561L374.056 335.67C375.968 337.548 377.154 340.164 377.154 343.056C377.154 348.773 372.519 353.408 366.801 353.408C361.842 353.408 357.697 349.921 356.685 345.265L312.776 353.379C312.796 353.589 312.805 353.802 312.805 354.017C312.805 357.829 309.715 360.919 305.904 360.919C302.74 360.919 300.073 358.79 299.258 355.887L285.931 358.386L285.781 357.588L299.085 355.093C299.03 354.742 299.002 354.383 299.002 354.017C299.002 353.47 299.066 352.938 299.186 352.427L294.11 350.829L294.354 350.054L299.419 351.649C299.91 350.305 300.807 349.156 301.961 348.351L297.578 341.429L298.264 340.995L302.654 347.927C303.622 347.409 304.729 347.115 305.904 347.115C306.91 347.115 307.866 347.331 308.728 347.718L361.094 247.766C357.694 245.801 355.406 242.126 355.406 237.916C355.406 236.744 355.583 235.613 355.913 234.549L329.261 224.972L329.809 224.306L356.181 233.782C357.834 229.548 361.953 226.549 366.773 226.549C367.328 226.549 367.874 226.588 368.408 226.665L388.523 108.359C385.24 107.638 382.54 105.359 381.24 102.336L203.256 172.235C203.608 173.289 203.799 174.416 203.799 175.588C203.799 176.722 203.62 177.814 203.289 178.838L258.587 198.674V199.537L203.009 179.6C202.22 181.52 200.88 183.156 199.187 184.312L277.385 307.976L276.699 308.41L198.499 184.744C196.951 185.634 195.157 186.143 193.243 186.143C192.973 186.143 192.705 186.133 192.439 186.113L177.883 302.83C182.809 303.722 186.545 308.032 186.545 313.216C186.545 314.158 186.421 315.071 186.19 315.94L242.455 333.707L242.21 334.481L185.951 316.716C185.391 318.309 184.46 319.727 183.262 320.866L220.849 363.457C221.988 362.627 223.392 362.137 224.91 362.137C228.269 362.137 231.067 364.536 231.685 367.713L263.215 361.821L263.364 362.619L231.793 368.519C231.805 368.691 231.812 368.864 231.812 369.038C231.812 372.85 228.722 375.94 224.91 375.94C221.098 375.94 218.008 372.85 218.008 369.038C218.008 368.213 218.153 367.421 218.419 366.687L100.388 315.741C99.3168 317.856 97.1225 319.306 94.5897 319.306C92.5018 319.306 90.644 318.32 89.4556 316.79C89.4188 316.742 89.3826 316.694 89.3471 316.646L89.3336 316.627C92.742 314.138 95.443 310.753 97.0827 306.821L97.0869 306.811C97.1494 306.837 97.2115 306.864 97.273 306.892C99.3112 307.818 100.787 309.766 101.045 312.082L165.45 312.619C165.566 310.539 166.284 308.62 167.433 307.032L69.8281 231.823C69.1738 232.566 68.3526 233.158 67.4232 233.54L81.9216 275.631L81.1539 275.896L66.6543 233.801C66.112 233.948 65.5416 234.026 64.9528 234.026C61.3653 234.026 58.4571 231.118 58.4571 227.531C58.4571 226.151 58.8874 224.871 59.6212 223.819L23.4929 194.258C23.1512 194.546 22.7812 194.801 22.3876 195.019L71.6238 275.088L70.9321 275.513L21.6512 195.372C20.8478 195.7 19.9688 195.88 19.0477 195.88C15.236 195.88 12.146 192.79 12.146 188.978C12.146 185.167 15.236 182.077 19.0477 182.077L24.2906 53.9479C21.185 53.2744 18.8587 50.5104 18.8587 47.203C18.8587 43.3913 21.9487 40.3013 25.7604 40.3013C26.4473 40.3013 27.1108 40.4017 27.7369 40.5885L52.3161 -7.35277C49.8932 -9.03963 48.3075 -11.8453 48.3075 -15.0214C48.3075 -20.1784 52.4881 -24.359 57.6451 -24.359C59.7434 -24.359 61.68 -23.6669 63.2392 -22.4986L100.692 -61.1676C99.6707 -62.3846 99.0554 -63.9543 99.0554 -65.6678C99.0554 -69.5355 102.191 -72.671 106.059 -72.671C108.562 -72.671 110.758 -71.3576 111.997 -69.3823L166.229 -97.4751C165.848 -98.3316 165.637 -99.28 165.637 -100.278C165.637 -104.09 168.727 -107.18 172.538 -107.18C176.086 -107.18 179.009 -104.502 179.396 -101.058L308.801 -106.186C308.81 -109.99 311.897 -113.071 315.703 -113.071C319.514 -113.071 322.604 -109.981 322.604 -106.169C322.604 -104.908 322.266 -103.725 321.675 -102.708L431.285 -34.2658C432.522 -36.1251 434.636 -37.3505 437.036 -37.3505C440.848 -37.3505 443.938 -34.2605 443.938 -30.4487C443.938 -27.6977 442.328 -25.3226 439.999 -24.2138L492.048 94.7973C492.805 94.5119 493.626 94.3557 494.483 94.3557C498.294 94.3557 501.384 97.4457 501.384 101.257C501.384 104.99 498.421 108.031 494.718 108.155L494.395 169.499C498.153 169.56 501.181 172.626 501.181 176.4C501.181 180.211 498.091 183.301 494.28 183.301C493.521 183.301 492.791 183.179 492.108 182.953L470.643 235.727C472.976 236.834 474.59 239.212 474.59 241.966ZM387.912 -44.4552C387.912 -50.1727 383.277 -54.8077 377.56 -54.8077C374.873 -54.8077 372.426 -53.7846 370.586 -52.1067L320.767 -101.48C320.929 -101.655 321.083 -101.839 321.226 -102.03L430.876 -33.5642C430.654 -33.1268 430.478 -32.6627 430.353 -32.178L387.745 -42.5946C387.855 -43.1982 387.912 -43.82 387.912 -44.4552ZM430.134 -30.4487C430.134 -26.637 433.224 -23.547 437.036 -23.547C437.166 -23.547 437.295 -23.5506 437.423 -23.5577L445.079 37.0013C443.496 37.1671 442.019 37.6899 440.73 38.4877L384.133 -36.4566C385.784 -37.8148 387.007 -39.6741 387.569 -41.8019L430.197 -31.3802C430.156 -31.0756 430.134 -30.7647 430.134 -30.4487ZM456.523 47.297C456.523 41.5794 451.888 36.9444 446.171 36.9444C446.077 36.9444 445.984 36.9457 445.891 36.9481L438.23 -23.6499C438.579 -23.7107 438.918 -23.7976 439.247 -23.9086L491.307 95.1282C490.933 95.3222 490.58 95.5493 490.25 95.8056L453.582 54.5251C455.402 52.6594 456.523 50.1091 456.523 47.297ZM106.059 -58.6646C109.926 -58.6646 113.062 -61.8 113.062 -65.6678C113.062 -66.7423 112.82 -67.7603 112.387 -68.6702L166.603 -96.7541C166.642 -96.6879 166.682 -96.6225 166.724 -96.5577L64.5005 -21.3614C64.3 -21.5781 64.0894 -21.7853 63.8694 -21.9821L101.25 -60.5763C102.505 -59.3912 104.197 -58.6646 106.059 -58.6646ZM211.421 -90.8498L210.806 -91.8254L225.245 -88.4885C226.407 -92.9359 230.451 -96.218 235.263 -96.218C239.997 -96.218 243.989 -93.0398 245.222 -88.7005L308.942 -104.773C308.902 -104.971 308.869 -105.172 308.846 -105.375L179.44 -100.247C179.438 -99.8612 179.405 -99.4831 179.342 -99.115L193.447 -95.8458L192.817 -95.1584L179.16 -98.3239C178.317 -95.4637 175.671 -93.3761 172.538 -93.3761C170.388 -93.3761 168.467 -94.3595 167.202 -95.9011L65.0268 -20.7407C65.4256 -20.2267 65.7719 -19.67 66.0576 -19.0786L194.185 -69.8499L194.774 -69.1965L66.3787 -18.3325C66.769 -17.3034 66.9827 -16.1873 66.9827 -15.0214C66.9827 -14.4032 66.9227 -13.799 66.808 -13.2144L202.931 20.1547C203.841 17.4083 206.431 15.4273 209.483 15.4273C209.937 15.4273 210.381 15.4712 210.811 15.555L232.592 -75.8606C229.591 -76.6596 227.126 -78.7731 225.851 -81.5469L212.422 -76.2164L212.825 -77.2501L225.541 -82.2975C225.133 -83.4098 224.91 -84.6116 224.91 -85.8654C224.91 -86.4898 224.965 -87.1013 225.071 -87.6953L211.422 -90.8498L211.421 -90.8498ZM120.574 205.567L121.66 204.251L183.349 179.273C182.922 178.126 182.688 176.884 182.688 175.588C182.688 173.827 183.119 172.168 183.881 170.709L60.2408 101.313C59.2382 102.904 57.6034 104.057 55.689 104.42L64.8776 221.035C64.8923 221.035 64.9069 221.035 64.9216 221.035C64.932 221.035 64.9424 221.035 64.9528 221.035C67.5733 221.035 69.8314 222.587 70.8583 224.821L108.394 209.626L109.789 209.937L71.1503 225.579C71.3441 226.195 71.4486 226.851 71.4486 227.531C71.4486 228.884 71.0344 230.141 70.326 231.182L167.934 306.393C169.871 304.11 172.761 302.66 175.989 302.66C176.357 302.66 176.72 302.679 177.078 302.716L191.633 186.021C188.087 185.478 185.122 183.17 183.662 180.023L120.574 205.567ZM163.377 45.1322L163.022 44.4023L203.074 24.8946C202.756 24.1015 202.581 23.2357 202.581 22.329C202.581 21.853 202.629 21.3882 202.721 20.9393L66.6171 -12.4252C65.4923 -8.53134 61.9013 -5.68379 57.6451 -5.68379C57.4893 -5.68379 57.3344 -5.68761 57.1804 -5.69515L55.2237 90.7861C57.497 91.0574 59.431 92.4337 60.4733 94.3626L114.721 67.9515L115.077 68.6815L60.8165 95.0986C61.1279 95.8848 61.299 96.7418 61.299 97.6389C61.299 98.6993 61.0598 99.7039 60.6325 100.602L184.284 170.004C186.148 167.018 189.464 165.032 193.243 165.032C193.531 165.032 193.816 165.044 194.098 165.066L208.423 29.1499C206.26 28.8166 204.429 27.4794 203.42 25.6292L163.377 45.1322ZM53.0049 -6.91653C54.0217 -6.33312 55.1588 -5.93555 56.3698 -5.77016L54.4125 90.7372L54.3973 90.7371C53.4246 90.7371 52.4989 90.9384 51.6595 91.3015L29.2127 53.1806C31.2748 51.987 32.6621 49.757 32.6621 47.203C32.6621 44.3669 30.9514 41.9304 28.5057 40.8689L53.0049 -6.91653ZM25.7604 54.1047C26.7282 54.1047 27.6495 53.9055 28.4856 53.5459L50.9332 91.6682C48.8775 92.8634 47.4956 95.0897 47.4956 97.6389C47.4956 100.517 49.2575 102.984 51.7616 104.019L21.3422 182.467C20.8691 182.3 20.3724 182.184 19.8584 182.124L25.0982 54.0734C25.3161 54.0941 25.537 54.1047 25.7604 54.1047ZM54.3973 104.541C54.5605 104.541 54.7223 104.535 54.8827 104.524L64.0678 221.095C62.5106 221.307 61.129 222.071 60.1264 223.183L24.0865 193.695C25.242 192.461 25.9494 190.802 25.9494 188.978C25.9494 186.259 24.3766 183.907 22.091 182.782L52.5296 104.285C53.1236 104.451 53.75 104.541 54.3973 104.541ZM202.968 171.476C201.572 168.178 198.548 165.738 194.904 165.162L209.231 29.2263C209.315 29.2292 209.399 29.2307 209.483 29.2307C212.219 29.2307 214.583 27.6384 215.7 25.3298L381.053 94.6264C380.632 95.7536 380.402 96.9738 380.402 98.2478C380.402 99.4127 380.594 100.533 380.949 101.578L202.968 171.476ZM165.436 313.431C165.55 319.161 170.231 323.771 175.989 323.771C178.516 323.771 180.835 322.884 182.652 321.403L220.222 363.974C219.618 364.533 219.114 365.199 218.741 365.941L100.709 314.995C100.944 314.337 101.076 313.63 101.085 312.894L165.436 313.431ZM311.46 349.922C310.918 349.188 310.233 348.565 309.447 348.093L361.811 248.146C363.31 248.875 364.994 249.284 366.773 249.284C372.775 249.284 377.691 244.632 378.112 238.736L460.786 242.009C460.794 243.294 461.153 244.495 461.772 245.523L311.46 349.922ZM464.08 236.081C462.31 237.168 461.068 239.032 460.828 241.198L378.141 237.925V237.916C378.141 232.473 374.316 227.924 369.207 226.81L389.323 108.502C389.791 108.567 390.268 108.6 390.754 108.6C392.324 108.6 393.811 108.251 395.144 107.626L464.08 236.081ZM466.537 235.16C465.926 235.262 465.341 235.445 464.796 235.697L395.865 107.253C398.996 105.472 401.107 102.107 401.107 98.2478C401.107 95.6765 400.169 93.3241 398.617 91.5138L438.903 54.6699C440.772 56.5124 443.339 57.6495 446.171 57.6495C446.607 57.6495 447.036 57.6226 447.458 57.5703L466.537 235.16ZM467.688 235.064C467.573 235.064 467.458 235.067 467.345 235.072L448.261 57.4385C450.049 57.0718 451.67 56.2437 452.993 55.0841L489.639 96.3407C488.369 97.5924 487.581 99.3329 487.581 101.257C487.581 104.433 489.725 107.107 492.644 107.912L468.544 235.117C468.263 235.082 467.978 235.064 467.688 235.064ZM215.771 19.48C214.972 17.7203 213.457 16.3551 211.597 15.7573L233.384 -75.6828C233.994 -75.5712 234.621 -75.5128 235.263 -75.5128C239.765 -75.5128 243.596 -78.3868 245.021 -82.4002L367.538 -47.0607C367.322 -46.2283 367.207 -45.3551 367.207 -44.4552C367.207 -43.2541 367.412 -42.1009 367.788 -41.0283L215.771 19.48ZM216.384 22.329C216.384 21.6001 216.271 20.8976 216.062 20.238L368.086 -40.2733C369.693 -36.6388 373.33 -34.1026 377.56 -34.1026C377.76 -34.1026 377.959 -34.1083 378.157 -34.1195L389.313 87.9947C385.782 88.4865 382.82 90.7598 381.367 93.8775L216.009 24.5791C216.252 23.8739 216.384 23.1169 216.384 22.329ZM390.754 87.8953C390.542 87.8953 390.331 87.9017 390.121 87.9143L378.965 -34.1972C380.631 -34.4233 382.17 -35.0454 383.486 -35.9656L440.056 38.9424C437.486 40.8262 435.818 43.8668 435.818 47.297C435.818 49.8905 436.772 52.2613 438.348 54.0777L398.065 90.9184C396.193 89.0503 393.608 87.8953 390.754 87.8953ZM469.89 235.423C469.711 235.363 469.528 235.309 469.343 235.264L493.439 108.081C493.507 108.091 493.575 108.1 493.644 108.109C493.731 108.119 493.818 108.128 493.906 108.135L493.582 169.533C490.098 169.882 487.378 172.823 487.378 176.4C487.378 179.165 489.005 181.551 491.354 182.652L469.89 235.423ZM370.008 -51.5365C369.022 -50.4857 368.253 -49.2291 367.772 -47.8381L245.262 -83.1757C245.493 -84.0334 245.615 -84.9351 245.615 -85.8654C245.615 -86.5658 245.546 -87.2499 245.413 -87.9112L309.152 -103.989C310.065 -101.246 312.653 -99.2675 315.703 -99.2675C317.412 -99.2675 318.975 -99.8886 320.181 -100.917L370.008 -51.5365Z" fill="#7689A4"/>
<g opacity="0.3">
<path fill-rule="evenodd" clip-rule="evenodd" d="M499.963 47.906C505.345 47.906 509.707 52.2683 509.707 57.6495C509.707 62.1271 506.687 65.8993 502.572 67.0399L509.738 122.226C513.553 122.35 516.609 125.482 516.609 129.327C516.609 133.251 513.428 136.432 509.504 136.432C509.148 136.432 508.798 136.406 508.456 136.355L472.922 250.615C473.473 250.818 474.015 251.044 474.549 251.294C477.645 252.742 480.334 254.933 482.377 257.669C482.48 257.807 482.449 258.002 482.31 258.102C482.17 258.203 481.976 258.172 481.873 258.034C479.892 255.383 477.286 253.261 474.286 251.857C471.191 250.409 467.779 249.773 464.371 250.009C460.963 250.245 457.671 251.345 454.805 253.205C451.94 255.065 449.595 257.624 447.992 260.641C446.389 263.658 445.581 267.034 445.644 270.45C445.707 273.865 446.638 277.209 448.351 280.165C450.063 283.121 452.5 285.592 455.432 287.346C458.275 289.047 461.492 290.018 464.798 290.176C464.97 290.184 465.104 290.328 465.099 290.499C465.093 290.671 464.949 290.806 464.778 290.798C461.367 290.636 458.046 289.635 455.113 287.88C453.352 286.827 451.764 285.523 450.396 284.015L355.46 360.086C356.212 361.191 356.651 362.526 356.651 363.964C356.651 367.775 353.561 370.865 349.75 370.865C346.217 370.865 343.304 368.211 342.897 364.787L209.48 373.277C209.385 377.006 206.333 380 202.581 380C198.769 380 195.679 376.91 195.679 373.098C195.679 372.177 195.86 371.298 196.187 370.494L134.705 334.292C133.452 336.034 131.408 337.169 129.098 337.169C125.286 337.169 122.196 334.079 122.196 330.267C122.196 329.28 122.404 328.341 122.777 327.492L94.7967 311.021C94.6525 311.231 94.5047 311.438 94.3533 311.644C91.8902 314.982 88.5689 317.599 84.7368 319.223C80.9047 320.847 76.7025 321.417 72.5696 320.874C68.4366 320.331 64.5248 318.695 61.243 316.136C57.9613 313.578 55.4301 310.191 53.9142 306.33C52.3984 302.47 51.9535 298.276 52.626 294.19C53.2772 290.233 54.9527 286.516 57.4852 283.403C57.623 283.233 57.8737 283.211 58.0418 283.351C58.2098 283.491 58.2317 283.74 58.094 283.909C55.6526 286.914 54.0372 290.5 53.4089 294.318C52.7593 298.265 53.1891 302.316 54.6532 306.045C56.1174 309.774 58.5622 313.045 61.7321 315.516C64.902 317.987 68.6804 319.568 72.6724 320.092C76.6644 320.617 80.7233 320.066 84.4247 318.498C88.1262 316.929 91.3342 314.401 93.7133 311.177C96.0925 307.953 97.5554 304.151 97.9491 300.17C98.3299 296.32 97.6971 292.438 96.1159 288.904C96.0269 288.705 96.1127 288.471 96.3113 288.379C96.5097 288.288 96.7457 288.373 96.8347 288.571C98.4761 292.233 99.1334 296.257 98.7387 300.248C98.3828 303.846 97.1834 307.303 95.2457 310.343L123.148 326.768C123.523 326.132 123.997 325.56 124.549 325.076L14.4713 170.481C14.2955 170.596 14.1142 170.704 13.928 170.804L64.663 277.509C65.7738 276.922 66.9344 276.425 68.1338 276.023C71.5114 274.893 75.1062 274.555 78.6373 275.034C82.1684 275.514 85.54 276.798 88.4886 278.788C91.3285 280.704 93.7018 283.223 95.4377 286.162C95.5479 286.349 95.4807 286.588 95.2912 286.694C95.1016 286.8 94.8616 286.734 94.7513 286.547C93.0752 283.714 90.7853 281.284 88.046 279.436C85.1979 277.514 81.9413 276.273 78.5306 275.81C75.12 275.347 71.6477 275.674 68.3853 276.765C65.2475 277.815 62.3855 279.545 60.0057 281.828C59.8492 281.979 59.5999 281.979 59.4461 281.826C59.2922 281.673 59.292 281.425 59.4484 281.275C60.8087 279.968 62.3214 278.836 63.9505 277.901L13.1914 171.146C12.3823 171.466 11.5003 171.642 10.5772 171.642C6.65336 171.642 3.47248 168.461 3.47248 164.538C3.47248 160.832 6.31009 157.788 9.93116 157.462L7.51452 99.0598H7.50612C3.47019 99.0598 0.198425 95.788 0.198425 91.7521C0.198425 87.7162 3.47019 84.4444 7.50612 84.4444C8.31543 84.4444 9.09402 84.576 9.82165 84.8189L31.0214 24.6519C28.4211 23.5964 26.5873 21.0454 26.5873 18.0662C26.5873 14.1424 29.7682 10.9615 33.692 10.9615C35.4569 10.9615 37.0715 11.605 38.3139 12.6702L130.611 -85.0639C129.303 -86.3524 128.493 -88.1439 128.493 -90.1246C128.493 -94.0484 131.674 -97.2293 135.597 -97.2293C138.975 -97.2293 141.801 -94.8729 142.523 -91.7146L273.446 -120.251C273.382 -120.636 273.348 -121.031 273.348 -121.434C273.348 -125.358 276.529 -128.539 280.453 -128.539C284.377 -128.539 287.558 -125.358 287.558 -121.434C287.558 -120.624 287.422 -119.845 287.173 -119.12L411.485 -68.861C412.645 -71.2096 415.064 -72.825 417.86 -72.825C421.784 -72.825 424.965 -69.6441 424.965 -65.7203C424.965 -63.8269 424.224 -62.1065 423.017 -60.833L466.353 -14.0628C467.544 -15.0423 469.07 -15.6304 470.733 -15.6304C474.544 -15.6304 477.634 -12.5404 477.634 -8.72866C477.634 -6.0631 476.123 -3.75047 473.911 -2.60071L497.152 48.3177C498.042 48.0499 498.986 47.906 499.963 47.906ZM408.211 298.397C412.023 298.397 415.113 295.307 415.113 291.496C415.113 290.777 415.003 290.084 414.799 289.433L446.65 278.144C446.987 278.943 447.375 279.722 447.812 280.477C448.412 281.513 449.099 282.491 449.862 283.402L354.964 359.442C354.896 359.363 354.825 359.285 354.753 359.21C354.676 359.128 354.596 359.049 354.515 358.971L404.229 297.133C405.354 297.929 406.728 298.397 408.211 298.397ZM362.741 -73.4829C362.741 -79.5368 357.834 -84.4445 351.78 -84.4445C348.128 -84.4445 344.893 -82.6586 342.901 -79.9127L286.53 -117.75C286.651 -117.95 286.763 -118.156 286.864 -118.368L411.168 -68.1134C411.04 -67.7563 410.941 -67.3859 410.871 -67.005L362.709 -72.6345C362.73 -72.9145 362.741 -73.1974 362.741 -73.4829ZM410.755 -65.7203C410.755 -61.7965 413.936 -58.6156 417.86 -58.6156C419.164 -58.6156 420.387 -58.9672 421.438 -59.5809L494.841 49.3598C494.319 49.683 493.83 50.0541 493.379 50.467L360.32 -66.6107C361.507 -68.0841 362.321 -69.871 362.617 -71.8277L410.771 -66.1992C410.76 -66.0409 410.755 -65.8812 410.755 -65.7203ZM463.831 -8.72866C463.831 -4.91695 466.921 -1.82695 470.733 -1.82695C471.59 -1.82695 472.412 -1.98346 473.17 -2.26948L496.382 48.5854C496.098 48.6977 495.82 48.8229 495.55 48.9603L422.114 -60.0297C422.22 -60.1091 422.324 -60.1914 422.425 -60.2764L465.757 -13.5113C464.564 -12.2708 463.831 -10.5854 463.831 -8.72866ZM99.4612 -28.8248C93.4074 -28.8248 88.4997 -23.9172 88.4997 -17.8633C88.4997 -16.1591 88.8886 -14.5457 89.5825 -13.1071L39.7257 14.3132C39.4848 13.9267 39.2078 13.565 38.8993 13.2329L131.221 -84.5275C131.517 -84.2956 131.832 -84.0868 132.163 -83.9036L103.693 -27.978C102.391 -28.5235 100.961 -28.8248 99.4612 -28.8248ZM33.692 25.1709C37.6158 25.1709 40.7967 21.99 40.7967 18.0662C40.7967 16.9783 40.5522 15.9475 40.1151 15.0258L89.9622 -12.3893C90.9268 -10.719 92.3193 -9.32693 93.9899 -8.36277L13.3126 157.979C12.956 157.83 12.5847 157.709 12.2014 157.619L33.0339 25.1408C33.2506 25.1607 33.4701 25.1709 33.692 25.1709ZM31.7901 24.9135C31.9352 24.9537 32.0822 24.9894 32.2309 25.0205L11.4013 157.48C11.1846 157.455 10.9649 157.44 10.7427 157.435L8.3253 99.0144C11.9756 98.6072 14.8138 95.5111 14.8138 91.7521C14.8138 88.8129 13.0786 86.2791 10.5768 85.119L31.7901 24.9135ZM132.895 -83.5519C133.728 -83.209 134.641 -83.0199 135.597 -83.0199C139.034 -83.0199 141.901 -85.4606 142.56 -88.7034L185.308 -84.1034C185.213 -83.0509 185.232 -81.9876 185.369 -80.9326C185.597 -79.1688 186.148 -77.4659 186.988 -75.9072L108.303 -24.344C107.291 -25.7218 105.965 -26.8545 104.431 -27.6363L132.895 -83.5519ZM15.5845 159.497C15.1275 159.043 14.609 158.651 14.0427 158.334L94.7081 -7.98307C96.146 -7.29009 97.7583 -6.90174 99.4612 -6.90174C101.173 -6.90174 102.793 -7.29412 104.237 -7.99385L122.257 26.1347C121.358 26.6405 120.487 27.1967 119.646 27.8013C116.53 30.042 113.908 32.8983 111.943 36.1918C111.826 36.3884 111.894 36.6421 112.093 36.7565C112.291 36.8709 112.544 36.8026 112.662 36.6061C114.568 33.4145 117.109 30.6465 120.13 28.4745C123.263 26.2218 126.839 24.6619 130.622 23.8985C134.404 23.1351 138.306 23.1857 142.067 24.0469C145.693 24.8773 149.109 26.4429 152.104 28.6453C152.289 28.7809 152.549 28.7456 152.687 28.5632C152.826 28.3808 152.79 28.1205 152.606 27.9848C151.352 27.0616 150.026 26.2469 148.643 25.5474L192.955 -69.9787C193.787 -69.5365 194.665 -69.1742 195.577 -68.8995C198.478 -68.026 201.579 -68.082 204.446 -69.0596C206.569 -69.7833 208.485 -70.9853 210.052 -72.5603L315.082 20.1112C311.73 23.6488 309.233 27.9408 307.823 32.6586C306.908 35.7179 306.473 38.8783 306.515 42.0304L163.994 49.5252C163.924 47.5979 163.654 45.6748 163.185 43.7869C161.991 38.9816 159.544 34.5813 156.099 31.0321C155.939 30.8678 155.677 30.868 155.515 31.0299C155.353 31.1919 155.353 31.4541 155.512 31.6185C158.852 35.0611 161.222 39.3279 162.38 43.987C163.572 48.7803 163.435 53.8076 161.984 58.5289C160.534 63.2503 157.824 67.4871 154.147 70.7844C150.469 74.0816 145.963 76.3146 141.112 77.2434C136.261 78.1723 131.248 77.762 126.613 76.0564C121.978 74.3509 117.895 71.4147 114.802 67.5632C111.71 63.7118 109.726 59.0906 109.062 54.1962C108.418 49.4388 109.044 44.5981 110.876 40.1655C110.963 39.9538 110.866 39.71 110.656 39.6193C110.446 39.5287 110.202 39.6256 110.114 39.8372C108.223 44.4081 107.576 49.4009 108.241 54.3076C108.924 59.3513 110.969 64.1134 114.156 68.0823C114.554 68.5789 114.969 69.0606 115.399 69.527L15.5845 159.497ZM17.6819 164.538C17.6819 162.859 17.1 161.317 16.1271 160.102L115.958 70.1163C118.863 73.0914 122.403 75.3909 126.327 76.8346C127.819 77.3836 129.349 77.8024 130.9 78.0896L112.527 181.171C110.582 180.861 108.596 180.951 106.688 181.433C106.573 181.462 106.506 181.58 106.536 181.694C106.567 181.809 106.685 181.877 106.8 181.848C108.667 181.377 110.613 181.294 112.515 181.604C114.488 181.927 116.37 182.666 118.035 183.772C119.701 184.878 121.112 186.326 122.174 188.019C123.198 189.652 123.876 191.477 124.167 193.381C124.185 193.499 124.293 193.581 124.41 193.565C124.528 193.549 124.61 193.44 124.592 193.323C124.294 191.358 123.595 189.475 122.538 187.791C121.443 186.046 119.989 184.554 118.273 183.414C116.766 182.413 115.088 181.704 113.325 181.321L131.7 78.2258C134.862 78.7168 138.098 78.6647 141.268 78.0578C146.267 77.1006 150.911 74.7995 154.7 71.4017C155.279 70.8823 155.835 70.3404 156.367 69.7774L268.211 167.453C264.317 171.938 261.393 177.224 259.672 182.981C258.455 187.05 257.87 191.251 257.911 195.442L124.75 195.666C124.727 195.573 124.643 195.504 124.542 195.504C124.424 195.504 124.328 195.601 124.326 195.719C124.288 198.204 123.594 200.635 122.311 202.767C120.991 204.959 119.099 206.751 116.838 207.949C114.577 209.148 112.032 209.707 109.477 209.568C106.921 209.428 104.452 208.596 102.335 207.159C100.217 205.722 98.5313 203.735 97.458 201.412C96.3846 199.089 95.9644 196.517 96.2426 193.973C96.5207 191.429 97.4868 189.009 99.0368 186.973C100.543 184.994 102.547 183.45 104.841 182.497C104.951 182.452 105.005 182.327 104.961 182.217C104.917 182.106 104.792 182.052 104.683 182.098C102.315 183.08 100.249 184.672 98.695 186.713C97.6974 188.023 96.9346 189.488 96.4325 191.042L17.4567 166.319C17.6037 165.75 17.6819 165.153 17.6819 164.538ZM15.1237 169.997C16.0455 169.229 16.7697 168.231 17.2088 167.092L96.2046 191.821C96.0239 192.51 95.8935 193.214 95.8155 193.927C95.5288 196.548 95.9618 199.198 97.068 201.592C98.1741 203.986 99.9115 206.033 102.094 207.514C104.276 208.995 106.82 209.853 109.453 209.997C110.255 210.04 111.057 210.017 111.849 209.929L127.669 323.513C126.765 323.704 125.927 324.071 125.191 324.577L15.1237 169.997ZM129.098 323.365C128.887 323.365 128.678 323.375 128.472 323.393L112.653 209.817C114.179 209.56 115.66 209.06 117.039 208.329C119.369 207.094 121.319 205.248 122.679 202.988C123.871 201.008 124.57 198.775 124.725 196.478L257.927 196.254C258.055 200.64 258.868 205.006 260.363 209.189C260.44 209.403 260.677 209.512 260.891 209.434C261.105 209.355 261.214 209.118 261.137 208.904C258.183 200.635 257.945 191.636 260.462 183.218C263.018 174.667 268.279 167.177 275.455 161.871C282.631 156.565 291.335 153.73 300.259 153.792C309.046 153.854 317.58 156.72 324.619 161.967C324.802 162.103 325.06 162.068 325.198 161.887C325.336 161.706 325.301 161.447 325.119 161.311C321.052 158.278 316.496 156.025 311.681 154.629L331.848 72.3072C335.582 73.0281 339.423 73.0627 343.181 72.4026C347.678 71.6127 351.948 69.8471 355.69 67.23C357.395 66.0372 358.972 64.6807 360.4 63.1832L458.384 163.486C457.228 164.75 456.523 166.433 456.523 168.28C456.523 168.601 456.545 168.917 456.586 169.227L341.543 188.612C341.126 185.905 340.443 183.238 339.501 180.649C337.448 175.004 334.209 169.867 330.006 165.58C329.847 165.418 329.585 165.418 329.424 165.579C329.263 165.74 329.264 166 329.423 166.163C333.541 170.364 336.714 175.4 338.726 180.931C340.786 186.592 341.58 192.635 341.054 198.636C340.527 204.636 338.692 210.449 335.678 215.664C332.664 220.88 328.544 225.372 323.608 228.824C318.672 232.277 313.039 234.606 307.107 235.648C301.174 236.69 295.084 236.42 289.267 234.856C283.45 233.292 278.046 230.473 273.435 226.597C268.93 222.809 265.288 218.101 262.754 212.792C262.656 212.586 262.411 212.497 262.205 212.593C261.999 212.689 261.909 212.934 262.007 213.14C263.484 216.236 265.33 219.132 267.499 221.766L134.285 325.714C133.02 324.274 131.165 323.365 129.098 323.365ZM136 330.267C136 328.814 135.551 327.466 134.784 326.354L268.021 222.389C269.51 224.127 271.143 225.746 272.905 227.228C277.608 231.182 283.12 234.057 289.053 235.652C289.921 235.885 290.795 236.09 291.674 236.267L275.824 307.492L275.772 307.482C275.741 307.477 275.711 307.471 275.681 307.466C271.594 306.736 267.399 306.911 263.391 307.975C263.133 308.044 262.983 308.312 263.056 308.569C263.129 308.827 263.397 308.976 263.656 308.907C267.523 307.883 271.569 307.716 275.51 308.42C279.611 309.152 283.491 310.808 286.857 313.262C290.223 315.716 292.986 318.904 294.938 322.584C296.813 326.122 297.891 330.025 298.099 334.02C298.113 334.287 298.336 334.496 298.604 334.487C298.871 334.478 299.081 334.254 299.067 333.987C298.952 331.732 298.568 329.506 297.929 327.354L401.74 293.9C402.132 294.954 402.774 295.887 403.594 296.626L353.896 358.446C352.742 357.577 351.306 357.062 349.75 357.062C346.907 357.062 344.466 358.781 343.408 361.236L297.456 344.982C297.99 343.483 298.399 341.938 298.676 340.361C298.722 340.098 298.542 339.849 298.277 339.808C298.013 339.766 297.765 339.946 297.719 340.21C296.938 344.636 295.082 348.806 292.311 352.351C289.439 356.024 285.681 358.904 281.388 360.722C277.096 362.539 272.411 363.234 267.776 362.74C263.141 362.246 258.707 360.58 254.894 357.899C251.081 355.217 248.014 351.609 245.981 347.414C243.948 343.219 243.017 338.576 243.276 333.922C243.534 329.267 244.973 324.756 247.458 320.812C249.856 317.004 253.153 313.847 257.054 311.615C257.287 311.482 257.373 311.188 257.244 310.954C257.115 310.719 256.82 310.633 256.588 310.766C252.542 313.077 249.124 316.348 246.638 320.295C244.066 324.378 242.575 329.049 242.308 333.868C242.296 334.088 242.286 334.307 242.279 334.526L136 330.275V330.267ZM135.14 333.606C135.562 332.843 135.845 331.991 135.952 331.086L242.264 335.338C242.249 339.66 243.219 343.936 245.109 347.837C245.274 348.177 245.445 348.514 245.623 348.847L208.393 369.374C207.165 367.463 205.021 366.197 202.581 366.197C199.98 366.197 197.716 367.635 196.539 369.759L135.14 333.606ZM209.454 372.465C209.377 371.617 209.146 370.813 208.79 370.082L246.016 349.557C248.083 353.168 250.921 356.289 254.337 358.691C258.285 361.467 262.874 363.192 267.673 363.704C272.472 364.215 277.322 363.496 281.766 361.614C286.21 359.733 290.102 356.75 293.074 352.948C294.792 350.751 296.17 348.322 297.173 345.743L343.132 361.999C342.947 362.622 342.848 363.281 342.848 363.964V363.977L209.454 372.465ZM401.31 291.496C401.31 292.056 401.376 292.601 401.502 293.123L297.687 326.579C297.185 325.05 296.552 323.561 295.794 322.13C293.774 318.32 290.913 315.02 287.428 312.479C284.201 310.126 280.518 308.482 276.62 307.65L292.472 236.42C297.348 237.303 302.351 237.32 307.249 236.46C313.301 235.397 319.046 233.021 324.081 229.5C326.719 227.654 329.129 225.518 331.268 223.136L402.806 287.203C401.869 288.382 401.31 289.873 401.31 291.496ZM408.211 284.594C406.314 284.594 404.596 285.359 403.348 286.599L331.805 222.527C333.528 220.532 335.065 218.373 336.392 216.077C339.466 210.757 341.338 204.828 341.875 198.708C342.147 195.603 342.073 192.486 341.66 189.416L456.739 170.025C457.24 172.009 458.575 173.66 460.349 174.585L410.549 285C409.819 284.737 409.032 284.594 408.211 284.594ZM414.511 288.674C413.859 287.219 412.717 286.031 411.295 285.32L461.09 174.918C461.854 175.21 462.683 175.375 463.548 175.384L465.249 249.345C464.942 249.353 464.635 249.367 464.328 249.389C460.814 249.632 457.42 250.765 454.466 252.683C451.512 254.601 449.095 257.239 447.443 260.349C445.79 263.46 444.957 266.94 445.022 270.461C445.065 272.838 445.517 275.18 446.349 277.389L414.511 288.674ZM463.628 161.175C461.844 161.175 460.213 161.833 458.965 162.919L360.953 62.5875C362.429 60.9567 363.733 59.1699 364.84 57.2544C367.124 53.3009 368.515 48.8948 368.914 44.3461L368.922 44.2611L368.925 44.2237L490.248 56.9021C490.229 57.1488 490.22 57.398 490.22 57.6495C490.22 62.1128 493.221 65.8752 497.315 67.0289L465.607 161.454C464.979 161.273 464.315 161.175 463.628 161.175ZM468.737 163.343C468.072 162.655 467.269 162.101 466.373 161.725L498.108 67.2168C498.709 67.3325 499.329 67.3931 499.963 67.3931C500.583 67.3931 501.19 67.3352 501.778 67.2245L508.922 122.246C505.27 122.543 502.399 125.6 502.399 129.327C502.399 131.064 503.022 132.655 504.057 133.89L468.737 163.343ZM470.733 168.28C470.733 166.654 470.186 165.155 469.267 163.958L504.615 134.482C505.459 135.283 506.499 135.879 507.657 136.19L472.154 250.35C470.186 249.712 468.132 249.371 466.061 249.341L464.36 175.347C467.94 174.981 470.733 171.957 470.733 168.28ZM492.803 51.0414C491.532 52.4179 490.653 54.1617 490.343 56.0956L368.982 43.4133C369.227 39.1727 368.605 34.9232 367.15 30.9254C365.635 26.76 363.251 22.966 360.16 19.7941C360.005 19.6354 359.751 19.6356 359.594 19.7922C359.437 19.9489 359.438 20.2027 359.592 20.3615C362.601 23.4505 364.921 27.1445 366.396 31.1997C367.917 35.3806 368.504 39.8439 368.115 44.2759C367.726 48.7079 366.371 53.0009 364.145 56.8529C361.919 60.705 358.876 64.0226 355.23 66.5725C351.584 69.1224 347.424 70.8427 343.042 71.6123C338.66 72.382 334.163 72.1823 329.866 71.0274C325.57 69.8725 321.579 67.7903 318.173 64.9274C314.87 62.1505 312.196 58.7045 310.326 54.8187C310.23 54.619 309.992 54.5317 309.791 54.6252C309.59 54.7186 309.503 54.9573 309.599 55.157C311.518 59.1491 314.264 62.6893 317.657 65.5415C321.152 68.4799 325.249 70.6169 329.658 71.8022C330.121 71.9266 330.585 72.0401 331.052 72.1428L310.898 154.411C307.451 153.484 303.879 152.993 300.265 152.968C291.162 152.905 282.285 155.796 274.965 161.208C272.698 162.884 270.618 164.775 268.749 166.845L156.916 69.1789C159.587 66.1809 161.591 62.6339 162.777 58.7725C163.62 56.0278 164.033 53.1828 164.012 50.3374L306.537 42.8423C306.659 45.9632 307.25 49.0666 308.305 52.0459C308.379 52.2548 308.61 52.3612 308.818 52.2846C309.025 52.208 309.132 51.9773 309.058 51.7684C306.907 45.6868 306.741 39.0755 308.591 32.8884C310.479 26.5732 314.365 21.0408 319.665 17.1221C324.965 13.2034 331.394 11.1098 337.985 11.1556C344.443 11.2005 350.715 13.2966 355.899 17.1355C356.077 17.2673 356.329 17.2335 356.463 17.0572C356.597 16.8809 356.563 16.6289 356.385 16.4969C352.354 13.51 347.682 11.55 342.771 10.7546L350.9 -62.5562C351.19 -62.5331 351.484 -62.5214 351.78 -62.5214C354.939 -62.5214 357.787 -63.8584 359.788 -65.9976L492.803 51.0414ZM340.818 -73.4829C340.818 -68.0024 344.84 -63.4613 350.094 -62.6503L341.967 10.6351C340.655 10.4574 339.327 10.3626 337.991 10.3533C331.226 10.3062 324.628 12.455 319.188 16.4769C317.928 17.4088 316.746 18.4295 315.649 19.5285L210.608 -73.152C210.947 -73.5332 211.267 -73.9332 211.566 -74.3509C213.11 -76.5084 214.029 -79.0418 214.233 -81.6728L340.823 -73.8115C340.822 -73.7722 340.821 -73.7328 340.82 -73.6934C340.819 -73.6572 340.819 -73.6209 340.819 -73.5846C340.818 -73.5507 340.818 -73.5169 340.818 -73.4829ZM342.449 -79.2382C341.603 -77.8702 341.05 -76.3023 340.877 -74.6217L214.273 -82.4838C214.274 -82.5165 214.274 -82.5493 214.275 -82.5821C214.277 -82.7007 214.18 -82.7969 214.062 -82.7969C213.943 -82.7969 213.847 -82.7007 213.845 -82.5821C213.802 -79.7179 212.885 -76.9332 211.216 -74.6009C209.506 -72.2103 207.09 -70.4149 204.308 -69.4662C201.525 -68.5176 198.516 -68.4633 195.701 -69.3109C192.955 -70.1379 190.529 -71.7829 188.744 -74.0239C188.671 -74.1167 188.536 -74.1342 188.442 -74.0617C188.348 -73.9893 188.33 -73.8542 188.404 -73.7614C189.48 -72.4088 190.783 -71.2667 192.246 -70.3809L147.913 25.1914C146.106 24.3425 144.209 23.6867 142.252 23.2387C138.376 22.3512 134.355 22.299 130.458 23.0857C127.842 23.6137 125.321 24.5115 122.97 25.7466L104.954 -8.37493C108.224 -10.2719 110.423 -13.8108 110.423 -17.8633C110.423 -19.9968 109.813 -21.988 108.759 -23.6722L187.394 -75.2024C187.452 -75.109 187.51 -75.0161 187.57 -74.9239C187.634 -74.8242 187.768 -74.7977 187.866 -74.8635C187.965 -74.9293 187.991 -75.0626 187.927 -75.1623C186.793 -76.9208 186.064 -78.9108 185.795 -80.9878C185.517 -83.1359 185.738 -85.3192 186.441 -87.368C187.144 -89.4168 188.31 -91.2759 189.848 -92.8006C191.387 -94.3253 193.256 -95.4747 195.311 -96.1593C197.366 -96.8439 199.551 -97.0452 201.697 -96.7478C203.842 -96.4503 205.89 -95.6619 207.682 -94.444C209.473 -93.2262 210.959 -91.6115 212.025 -89.7257C213.055 -87.9023 213.665 -85.8728 213.812 -83.7854C213.82 -83.667 213.922 -83.5763 214.04 -83.5828C214.159 -83.5893 214.249 -83.6906 214.241 -83.809C214.107 -85.7238 213.595 -87.5914 212.736 -89.3042L274.189 -118.078C275.387 -115.846 277.743 -114.329 280.453 -114.329C282.737 -114.329 284.769 -115.407 286.069 -117.081L342.449 -79.2382ZM273.626 -119.459C273.69 -119.24 273.763 -119.024 273.847 -118.814L212.351 -90.0206C211.257 -91.9281 209.743 -93.5623 207.923 -94.7993C206.077 -96.0544 203.967 -96.8667 201.756 -97.1733C199.545 -97.4799 197.293 -97.2723 195.175 -96.5669C193.058 -95.8614 191.131 -94.677 189.546 -93.1057C187.96 -91.5345 186.759 -89.6187 186.034 -87.5075C185.744 -86.6601 185.533 -85.7905 185.403 -84.9098L142.676 -89.5076C142.693 -89.7109 142.702 -89.9167 142.702 -90.1246C142.702 -90.3911 142.687 -90.6542 142.659 -90.913L273.626 -119.459Z" fill="#3E4A5D"/>
<path fill-rule="evenodd" clip-rule="evenodd" d="M252.097 354.031C262.362 364.297 279.007 364.297 289.273 354.031C299.538 343.765 299.538 327.121 289.273 316.855C279.007 306.589 262.362 306.589 252.097 316.855C241.831 327.121 241.831 343.765 252.097 354.031ZM251.522 354.605C262.105 365.188 279.264 365.188 289.847 354.605C300.43 344.023 300.43 326.864 289.847 316.281C279.264 305.698 262.105 305.698 251.522 316.281C240.939 326.864 240.939 344.023 251.522 354.605Z" fill="#3E4A5D"/>
<path fill-rule="evenodd" clip-rule="evenodd" d="M60.7537 312.746C68.9585 320.951 82.261 320.951 90.4658 312.746C98.6706 304.541 98.6706 291.239 90.4658 283.034C82.261 274.829 68.9585 274.829 60.7537 283.034C52.5489 291.239 52.5489 304.541 60.7537 312.746ZM60.1796 313.32C68.7014 321.842 82.5181 321.842 91.0399 313.32C99.5618 304.798 99.5618 290.982 91.0399 282.46C82.5181 273.938 68.7014 273.938 60.1796 282.46C51.6577 290.982 51.6577 304.798 60.1796 313.32Z" fill="#3E4A5D"/>
<path fill-rule="evenodd" clip-rule="evenodd" d="M100.811 204.937C106.02 210.147 114.467 210.147 119.676 204.937C124.886 199.728 124.886 191.281 119.676 186.072C114.467 180.862 106.02 180.862 100.811 186.072C95.601 191.281 95.601 199.728 100.811 204.937ZM100.509 205.239C105.885 210.615 114.602 210.615 119.978 205.239C125.354 199.863 125.354 191.146 119.978 185.77C114.602 180.393 105.885 180.393 100.509 185.77C95.1325 191.146 95.1325 199.863 100.509 205.239Z" fill="#3E4A5D"/>
<path fill-rule="evenodd" clip-rule="evenodd" d="M136 76.3248C150.238 76.3248 161.78 64.7827 161.78 50.5448C161.78 36.307 150.238 24.7649 136 24.7649C121.762 24.7649 110.22 36.307 110.22 50.5448C110.22 64.7827 121.762 76.3248 136 76.3248ZM136 77.1367C150.686 77.1367 162.592 65.2311 162.592 50.5448C162.592 35.8586 150.686 23.953 136 23.953C121.313 23.953 109.408 35.8586 109.408 50.5448C109.408 65.2311 121.313 77.1367 136 77.1367Z" fill="#3E4A5D"/>
<path fill-rule="evenodd" clip-rule="evenodd" d="M452.287 283.684C459.759 291.155 471.874 291.155 479.346 283.684C486.817 276.212 486.817 264.097 479.346 256.625C471.874 249.154 459.759 249.154 452.287 256.625C444.816 264.097 444.816 276.212 452.287 283.684ZM451.866 284.105C459.571 291.809 472.062 291.809 479.767 284.105C487.471 276.4 487.471 263.909 479.767 256.204C472.062 248.5 459.571 248.5 451.866 256.204C444.162 263.909 444.162 276.4 451.866 284.105Z" fill="#3E4A5D"/>
<path fill-rule="evenodd" clip-rule="evenodd" d="M190.33 -73.3641C195.539 -68.1545 203.986 -68.1545 209.195 -73.3641C214.405 -78.5737 214.405 -87.0201 209.195 -92.2297C203.986 -97.4392 195.539 -97.4392 190.33 -92.2297C185.12 -87.0201 185.12 -78.5737 190.33 -73.3641ZM190.028 -73.0622C195.404 -67.686 204.121 -67.686 209.497 -73.0622C214.874 -78.4385 214.874 -87.1552 209.497 -92.5315C204.121 -97.9078 195.404 -97.9078 190.028 -92.5315C184.652 -87.1552 184.652 -78.4385 190.028 -73.0622Z" fill="#3E4A5D"/>
<path fill-rule="evenodd" clip-rule="evenodd" d="M337.773 70.438C353.693 70.438 366.598 57.5327 366.598 41.6132C366.598 25.6937 353.693 12.7884 337.773 12.7884C321.854 12.7884 308.948 25.6937 308.948 41.6132C308.948 57.5327 321.854 70.438 337.773 70.438ZM337.773 71.25C354.141 71.25 367.41 57.9811 367.41 41.6132C367.41 25.2453 354.141 11.9765 337.773 11.9765C321.405 11.9765 308.136 25.2453 308.136 41.6132C308.136 57.9811 321.405 71.25 337.773 71.25Z" fill="#3E4A5D"/>
<path fill-rule="evenodd" clip-rule="evenodd" d="M299.973 234.014C321.502 234.014 338.956 216.56 338.956 195.031C338.956 173.501 321.502 156.047 299.973 156.047C278.443 156.047 260.989 173.501 260.989 195.031C260.989 216.56 278.443 234.014 299.973 234.014ZM299.973 234.826C321.951 234.826 339.768 217.009 339.768 195.031C339.768 173.052 321.951 155.235 299.973 155.235C277.994 155.235 260.177 173.052 260.177 195.031C260.177 217.009 277.994 234.826 299.973 234.826Z" fill="#3E4A5D"/>
<path d="M161.78 50.5448C161.78 64.7827 150.238 76.3248 136 76.3248C121.762 76.3248 110.22 64.7827 110.22 50.5448C110.22 36.307 121.762 24.7649 136 24.7649C150.238 24.7649 161.78 36.307 161.78 50.5448Z" fill="#B8C2D1"/>
<path d="M366.598 41.6132C366.598 57.5327 353.693 70.438 337.773 70.438C321.854 70.438 308.948 57.5327 308.948 41.6132C308.948 25.6937 321.854 12.7884 337.773 12.7884C353.693 12.7884 366.598 25.6937 366.598 41.6132Z" fill="#B8C2D1"/>
<path d="M289.273 354.031C279.007 364.297 262.362 364.297 252.097 354.031C241.831 343.765 241.831 327.121 252.097 316.855C262.362 306.589 279.007 306.589 289.273 316.855C299.538 327.121 299.538 343.765 289.273 354.031Z" fill="#B8C2D1"/>
<path d="M90.4658 312.746C82.261 320.951 68.9585 320.951 60.7537 312.746C52.5489 304.541 52.5489 291.239 60.7537 283.034C68.9585 274.829 82.261 274.829 90.4658 283.034C98.6706 291.239 98.6706 304.541 90.4658 312.746Z" fill="#B8C2D1"/>
<path d="M479.411 283.732C471.927 291.215 459.794 291.215 452.311 283.732C444.827 276.248 444.827 264.115 452.311 256.631C459.794 249.148 471.927 249.148 479.411 256.631C486.895 264.115 486.895 276.248 479.411 283.732Z" fill="#B8C2D1"/>
<path d="M119.677 204.938C114.467 210.148 106.02 210.148 100.81 204.938C95.6001 199.728 95.6001 191.281 100.81 186.071C106.02 180.861 114.467 180.861 119.677 186.071C124.887 191.281 124.887 199.728 119.677 204.938Z" fill="#B8C2D1"/>
<path fill-rule="evenodd" clip-rule="evenodd" d="M106.876 187.552C106.48 187.327 105.983 187.333 105.553 187.547L105.547 187.55L101.678 189.806C101.228 190.034 101.007 190.483 101.007 190.922V195.34C101.007 195.784 101.231 196.225 101.668 196.497L101.671 196.499L105.496 198.71L105.496 198.71C105.892 198.935 106.389 198.929 106.819 198.715L106.824 198.712L109.424 197.205L111.217 196.171L113.811 194.668L113.812 194.668C114.075 194.518 114.425 194.512 114.748 194.671L116.771 195.843L116.772 195.843C117.041 195.996 117.237 196.306 117.237 196.656V199.006C117.237 199.313 117.084 199.624 116.767 199.822L114.789 200.994C114.526 201.143 114.177 201.15 113.854 200.991L111.83 199.819L111.829 199.819C111.561 199.666 111.365 199.356 111.365 199.006V197.154L109.169 198.42V200.087C109.169 200.531 109.393 200.972 109.83 201.244L109.833 201.245L113.658 203.456L113.658 203.457C114.054 203.682 114.551 203.676 114.981 203.462L114.986 203.459L118.812 201.248L118.812 201.247C119.204 201.024 119.479 200.583 119.479 200.087V195.622C119.479 195.177 119.256 194.737 118.819 194.465L118.816 194.463L114.991 192.252L114.99 192.252C114.595 192.027 114.098 192.033 113.668 192.247L113.662 192.25L111.016 193.803L109.223 194.79L106.627 196.342C106.364 196.49 106.016 196.497 105.693 196.339L103.67 195.12L103.667 195.119C103.399 194.966 103.203 194.656 103.203 194.306V191.956C103.203 191.649 103.355 191.339 103.672 191.141L105.696 189.968L105.697 189.968C105.959 189.819 106.309 189.812 106.632 189.97L108.655 191.189L108.657 191.19C108.926 191.343 109.122 191.653 109.122 192.003V193.902L111.318 192.636V190.922C111.318 190.478 111.094 190.037 110.657 189.765L110.654 189.764L106.877 187.553L106.876 187.552ZM101.871 190.159L101.865 190.161C101.565 190.311 101.41 190.611 101.41 190.922V195.34C101.41 195.647 101.563 195.957 101.879 196.155L105.696 198.362L105.697 198.362C105.96 198.512 106.31 198.518 106.633 198.359L109.222 196.858L111.015 195.824L113.61 194.32L113.611 194.32C114.007 194.095 114.503 194.101 114.933 194.315L114.939 194.317L116.972 195.495L116.973 195.495C117.364 195.718 117.64 196.16 117.64 196.656V199.006C117.64 199.45 117.416 199.891 116.979 200.163L116.977 200.164L114.992 201.341L114.99 201.342C114.595 201.567 114.098 201.561 113.668 201.347L113.662 201.344L111.63 200.167L111.629 200.166C111.237 199.943 110.962 199.502 110.962 199.006V197.85L109.572 198.651V200.087C109.572 200.393 109.725 200.704 110.041 200.902L113.858 203.109L113.859 203.109C114.122 203.258 114.472 203.265 114.795 203.106L118.612 200.9L118.612 200.9C118.881 200.747 119.077 200.436 119.077 200.087V195.622C119.077 195.315 118.924 195.005 118.608 194.807L114.791 192.6L114.79 192.6C114.527 192.45 114.177 192.444 113.854 192.602L111.216 194.151L109.424 195.138L106.83 196.688L106.828 196.689C106.433 196.914 105.936 196.908 105.506 196.694L105.499 196.691L103.465 195.466C103.075 195.242 102.8 194.801 102.8 194.306V191.956C102.8 191.512 103.024 191.071 103.461 190.799L103.464 190.797L105.496 189.62L105.496 189.62C105.892 189.395 106.389 189.401 106.819 189.615L106.826 189.618L108.859 190.843C109.25 191.067 109.525 191.508 109.525 192.003V193.206L110.915 192.404V190.922C110.915 190.615 110.762 190.305 110.446 190.107L106.675 187.9C106.412 187.751 106.062 187.744 105.739 187.903L101.871 190.159Z" fill="#303A48"/>
<path fill-rule="evenodd" clip-rule="evenodd" d="M475.421 276.052L475.436 270.791L478.039 269.252V277.606L470.949 281.762V278.682L475.421 276.052ZM471.761 279.146L476.232 276.517L476.246 271.255L477.227 270.675V277.141L471.761 280.345V279.146ZM476.248 265.065L474.419 263.99L475.435 263.392L477.228 264.453V266.592L476.248 267.172V265.065ZM475.436 268.595L478.04 267.055V263.99L475.436 262.45L472.818 263.99L475.436 265.53V268.595ZM466.476 281.325L469.081 279.785V282.851L466.476 284.391L463.859 282.851V279.785L466.476 281.325ZM464.671 281.205L466.477 282.268L468.269 281.209V282.388L466.475 283.448L464.671 282.387V281.205ZM457.518 268.595L454.901 267.055V263.99L457.518 262.45L460.123 263.99L457.518 265.53V268.595ZM456.706 267.176V265.066L458.528 263.99L457.517 263.392L455.713 264.454V266.591L456.706 267.176ZM461.992 265.08L466.478 267.723L470.936 265.08L473.552 266.62V269.7L469.067 272.331V277.604L466.462 279.13L463.857 277.604V272.331L459.372 269.7L459.386 266.62H459.375L461.992 265.08ZM460.196 267.079L461.992 266.022L466.479 268.666L470.937 266.023L472.74 267.084V269.235L468.255 271.865V277.139L466.462 278.189L464.669 277.139V271.865L460.186 269.236L460.196 267.079ZM456.708 276.517L461.177 279.145V280.343L455.711 277.139V270.674L456.693 271.255L456.708 276.517ZM457.504 270.791L457.518 276.052L461.989 278.68V281.761L454.899 277.604V269.251L457.504 270.791ZM466.476 260.257L461.991 262.901L459.386 261.361L466.476 257.19L473.553 261.361L470.949 262.901L466.476 260.257ZM470.949 261.957L466.477 259.315L461.992 261.958L460.985 261.362L466.476 258.132L471.956 261.362L470.949 261.957ZM469.081 263.99L466.476 265.53L463.859 263.99L466.476 262.45L469.081 263.99ZM467.485 263.99L466.475 264.587L465.46 263.99L466.475 263.392L467.485 263.99ZM472.741 274.496L471.761 275.07V273.884L472.741 273.304V274.496ZM473.553 274.961L470.949 276.487V273.421L473.553 271.881V274.961ZM460.198 274.496V273.304L461.179 273.884V275.07L460.198 274.496ZM459.386 274.961V271.881L461.991 273.421V276.487L459.386 274.961Z" fill="#303A48"/>
<path fill-rule="evenodd" clip-rule="evenodd" d="M64.1332 285.248C64.2281 285.134 64.3776 285.081 64.5231 285.109L84.4986 289.014C84.5736 289.029 84.6429 289.064 84.6986 289.117L89.4881 293.613C89.6424 293.758 89.6595 293.997 89.5274 294.163L75.159 312.15C75.0686 312.263 74.9247 312.319 74.7814 312.298C74.6381 312.276 74.5172 312.18 74.4641 312.045L64.0675 285.656C64.0131 285.518 64.0383 285.362 64.1332 285.248ZM65.3992 286.821L74.6526 310.308L76.628 296.09L65.3992 286.821ZM77.4223 296.273L75.4474 310.488L88.2325 294.483L77.4223 296.273ZM88.3334 293.643L78.3878 295.29L84.4126 289.962L88.3334 293.643ZM83.5358 289.653L65.9376 286.213L77.0522 295.387L83.5358 289.653Z" fill="#303A48"/>
<path fill-rule="evenodd" clip-rule="evenodd" d="M276.228 335.889L272.292 337.011L269.767 345.568H283.276C283.365 345.565 283.454 345.579 283.538 345.611C283.622 345.642 283.699 345.69 283.764 345.752C283.83 345.813 283.883 345.887 283.92 345.969C283.957 346.051 283.977 346.139 283.98 346.229V346.453L282.806 350.525C282.754 350.718 282.639 350.887 282.478 351.005C282.318 351.123 282.123 351.183 281.925 351.174H261.251L264.716 339.312L260.839 340.493L261.72 337.778L265.597 336.598L270.472 319.955C270.525 319.764 270.641 319.596 270.801 319.478C270.961 319.36 271.155 319.3 271.353 319.306H276.58C276.67 319.303 276.759 319.317 276.843 319.349C276.926 319.38 277.003 319.428 277.069 319.49C277.134 319.551 277.187 319.625 277.224 319.707C277.261 319.789 277.282 319.877 277.285 319.967V320.191L273.173 334.237L277.05 333.057L276.228 335.889ZM274.375 333.022L278.248 331.843L276.882 336.547L272.945 337.669L270.853 344.756H283.264C283.455 344.751 283.645 344.784 283.824 344.851C284.008 344.92 284.177 345.025 284.32 345.159C284.463 345.294 284.578 345.455 284.659 345.634C284.74 345.813 284.785 346.006 284.792 346.202L284.792 346.215V346.568L283.588 350.744C283.487 351.111 283.266 351.433 282.96 351.659C282.657 351.882 282.287 351.998 281.911 351.986H260.167L263.515 340.527L259.587 341.723L261.079 337.124L264.941 335.949L269.691 319.731C269.794 319.368 270.015 319.049 270.319 318.824C270.621 318.602 270.988 318.486 271.363 318.494H276.569C276.759 318.489 276.949 318.522 277.128 318.589C277.312 318.658 277.481 318.763 277.624 318.897C277.768 319.032 277.883 319.193 277.964 319.372C278.045 319.551 278.09 319.744 278.096 319.94L278.097 319.953V320.308L274.375 333.022Z" fill="#303A48"/>
<path fill-rule="evenodd" clip-rule="evenodd" d="M136.402 60.2735L128.326 55.5534L136.403 66.8123L144.484 55.5528L136.402 60.2735ZM147.367 52.9283L136.402 68.2051L125.444 52.9283L136.402 59.3331L147.367 52.9283ZM147.361 50.8725L136.402 32.8846L125.444 50.8725L136.402 57.2806L147.361 50.8725ZM146.237 50.5889L136.402 34.4453L126.568 50.5889L136.402 56.3399L146.237 50.5889Z" fill="#303A48"/>
<path fill-rule="evenodd" clip-rule="evenodd" d="M325.774 49.9672C325.656 49.9672 325.546 50.0144 325.466 50.0944L319.763 55.8226H349.773C349.89 55.8226 350.001 55.7754 350.08 55.6955L355.783 49.9672H325.774ZM325.459 27.5382C325.557 27.4458 325.673 27.4038 325.774 27.4038H355.783L350.08 33.1321C350 33.212 349.89 33.2592 349.773 33.2592H319.763L325.459 27.5382ZM350.08 38.7404C350.001 38.6605 349.89 38.6132 349.773 38.6132H319.763L325.466 44.3415C325.546 44.4214 325.656 44.4687 325.774 44.4687H355.783L350.08 38.7404ZM324.891 26.9581C325.131 26.7268 325.447 26.5919 325.774 26.5919H356.231C356.787 26.5919 357.065 27.2665 356.672 27.6617L350.655 33.705C350.425 33.9363 350.109 34.0712 349.773 34.0712H319.316C318.759 34.0712 318.481 33.3965 318.874 33.0014L324.891 26.9581ZM324.891 49.5215C325.121 49.2902 325.438 49.1552 325.774 49.1552H356.231C356.787 49.1552 357.066 49.8299 356.672 50.2251L350.656 56.2683C350.425 56.4996 350.109 56.6346 349.773 56.6346H319.316C318.759 56.6346 318.481 55.9599 318.874 55.5647L324.891 49.5215ZM349.773 37.8013C350.109 37.8013 350.425 37.9362 350.656 38.1675L356.672 44.2108C357.066 44.6059 356.787 45.2806 356.231 45.2806H325.774C325.438 45.2806 325.121 45.1457 324.891 44.9144L318.874 38.8711C318.481 38.4759 318.759 37.8013 319.316 37.8013H349.773Z" fill="#303A48"/>
<path d="M483.313 259.711C483.481 259.612 483.698 259.668 483.795 259.837C485.497 262.835 486.426 266.21 486.496 269.66C486.568 273.228 485.719 276.754 484.03 279.897C482.341 283.04 479.87 285.695 476.855 287.604C473.94 289.45 470.612 290.538 467.173 290.773C466.978 290.786 466.812 290.636 466.802 290.441C466.792 290.246 466.942 290.08 467.137 290.066C470.454 289.838 473.664 288.787 476.477 287.006C479.389 285.162 481.776 282.598 483.407 279.562C485.038 276.526 485.859 273.12 485.789 269.674C485.722 266.346 484.826 263.089 483.186 260.197C483.089 260.027 483.145 259.811 483.313 259.711Z" fill="#3E4A5D"/>
<path fill-rule="evenodd" clip-rule="evenodd" d="M317.14 189.906L317.14 189.907C316.884 191.755 316.288 193.057 315.498 193.964C314.71 194.868 313.68 195.436 312.459 195.737L310.456 196.231L312.258 197.235C314.019 198.216 315.256 199.406 315.876 200.92C316.494 202.43 316.55 204.392 315.689 207.022C314.637 210.237 312.916 211.868 310.71 212.594C308.429 213.345 305.509 213.17 302.006 212.461L301.233 212.305L299.529 219.607L296.955 218.921L298.648 211.668L297.887 211.466C296.818 211.182 295.726 210.881 294.602 210.554L293.779 210.316L292.077 217.62L289.507 216.934L291.221 209.575L290.468 209.368C290.089 209.265 289.703 209.157 289.311 209.048C288.718 208.882 288.113 208.714 287.509 208.552L283.005 207.351L284.443 203.804C284.691 203.873 284.98 203.954 285.269 204.034C285.649 204.139 286.032 204.243 286.319 204.317C286.461 204.353 286.589 204.385 286.683 204.406C286.725 204.415 286.782 204.427 286.835 204.435L286.837 204.435C286.843 204.436 286.854 204.437 286.869 204.439C287.643 204.616 288.294 204.446 288.785 204.066C289.256 203.702 289.506 203.203 289.634 202.862L289.653 202.812L294.332 182.745L294.336 182.674C294.366 182.108 294.295 181.398 293.906 180.742C293.518 180.087 292.865 179.576 291.909 179.297C291.901 179.294 291.895 179.291 291.891 179.289L291.889 179.289C291.834 179.265 291.775 179.245 291.732 179.232C291.637 179.201 291.509 179.164 291.368 179.125C291.08 179.045 290.696 178.945 290.314 178.848C290.052 178.781 289.789 178.715 289.557 178.656L290.287 175.519L298.647 177.715L300.342 170.454L302.913 171.14L301.245 178.292L302.026 178.483C303.139 178.755 304.25 179.027 305.33 179.314L306.139 179.53L307.792 172.441L310.366 173.127L308.684 180.34L309.357 180.588C311.929 181.536 314.052 182.685 315.44 184.182C316.792 185.64 317.482 187.463 317.14 189.906ZM309.267 204.402C308.921 205.888 308.094 206.897 306.98 207.509C305.9 208.101 304.604 208.291 303.327 208.286C300.799 208.275 298.021 207.49 296.346 207.017L296.31 207.007C296.003 206.92 295.738 206.845 295.514 206.786L294.753 206.583L297.398 195.244L298.207 195.46C298.478 195.532 298.811 195.612 299.206 195.707L299.245 195.716C300.976 196.131 303.731 196.793 305.91 198.03C307.014 198.657 308.033 199.465 308.688 200.524C309.36 201.61 309.616 202.906 309.267 204.402ZM310.549 190.123L310.549 190.123C310.204 191.599 309.387 192.578 308.294 193.146C307.239 193.695 305.994 193.828 304.806 193.781C302.827 193.703 300.737 193.105 299.466 192.741C299.221 192.671 299.007 192.61 298.83 192.563L298.07 192.36L300.502 181.929L301.311 182.145C301.392 182.166 301.481 182.188 301.578 182.212C301.73 182.25 301.902 182.29 302.09 182.335L302.094 182.336L302.094 182.336L302.094 182.336C303.382 182.64 305.417 183.12 307.13 183.985C308.205 184.527 309.242 185.261 309.922 186.276C310.623 187.322 310.903 188.605 310.549 190.123Z" fill="#B8C2D1"/>
<path fill-rule="evenodd" clip-rule="evenodd" d="M338.957 195.031C338.957 216.561 321.503 234.015 299.973 234.015C278.443 234.015 260.989 216.561 260.989 195.031C260.989 173.5 278.443 156.046 299.973 156.046C321.503 156.046 338.957 173.5 338.957 195.031ZM295.986 219.503L297.678 212.251C296.853 212.032 296.014 211.802 295.157 211.559L295.053 211.529C294.922 211.492 294.791 211.454 294.659 211.416C294.565 211.389 294.47 211.362 294.376 211.334L292.677 218.621L288.538 217.516L290.253 210.151C289.866 210.045 289.477 209.937 289.085 209.828C288.496 209.663 287.901 209.497 287.299 209.336L281.906 207.898L283.964 202.825C283.964 202.825 284.977 203.113 285.829 203.345C285.892 203.363 285.955 203.38 286.016 203.396C286.074 203.412 286.131 203.427 286.186 203.442C286.603 203.553 286.924 203.634 286.97 203.632C286.972 203.632 286.974 203.632 286.975 203.631L286.976 203.631L286.976 203.63C286.976 203.63 286.976 203.629 286.976 203.629C287.291 203.712 287.56 203.714 287.787 203.662C288.406 203.519 288.724 202.975 288.875 202.576L293.525 182.63C293.567 181.852 293.367 180.906 292.351 180.348C292.136 180.231 291.886 180.13 291.594 180.052C291.595 180.052 291.595 180.051 291.595 180.051C291.595 180.051 291.595 180.05 291.595 180.049C291.594 180.048 291.592 180.046 291.588 180.044C291.537 180.014 291.224 179.925 290.817 179.817C290.75 179.799 290.679 179.781 290.607 179.762C289.729 179.533 288.584 179.252 288.584 179.252L289.687 174.518L295.401 176.044C295.614 176.101 295.827 176.159 296.042 176.218C296.441 176.328 296.845 176.439 297.254 176.539C297.515 176.604 297.778 176.668 298.043 176.732L299.741 169.454L303.883 170.558L302.219 177.694C303.065 177.901 303.915 178.109 304.753 178.324C304.857 178.351 304.961 178.378 305.065 178.405C305.185 178.436 305.304 178.468 305.423 178.499L305.539 178.53L307.191 171.441L311.335 172.545L309.638 179.826C314.87 181.754 318.696 184.643 317.944 190.018C317.472 193.433 315.873 195.319 313.689 196.195C313.357 196.328 313.011 196.438 312.653 196.526C312.98 196.707 313.292 196.898 313.589 197.097C316.675 199.171 318.105 202.254 316.461 207.275C314.224 214.11 308.911 214.687 301.844 213.257L300.13 220.607L295.986 219.503ZM301.891 183.123L301.957 183.138C304.875 183.83 310.852 185.245 309.758 189.939C308.687 194.528 302.538 192.773 299.719 191.968C299.463 191.895 299.234 191.83 299.039 191.778L301.102 182.929C301.229 182.963 301.371 182.998 301.527 183.036C301.641 183.064 301.763 183.093 301.891 183.123ZM298.786 196.441C298.489 196.369 298.223 196.304 297.998 196.244L295.722 206.001C295.953 206.062 296.223 206.138 296.525 206.224L296.53 206.225C299.912 207.18 307.301 209.268 308.476 204.218C309.68 199.055 302.513 197.335 299.016 196.496L299.016 196.496C298.937 196.477 298.861 196.459 298.786 196.441Z" fill="#B8C2D1"/>
<path fill-rule="evenodd" clip-rule="evenodd" d="M190.33 -73.3641C195.539 -68.1545 203.986 -68.1545 209.195 -73.3641C214.405 -78.5737 214.405 -87.0201 209.195 -92.2297C203.986 -97.4392 195.539 -97.4392 190.33 -92.2297C185.12 -87.0201 185.12 -78.5737 190.33 -73.3641Z" fill="#B8C2D1"/>
<path fill-rule="evenodd" clip-rule="evenodd" d="M201.087 -84.9838C201.635 -84.9838 202.08 -85.4226 202.08 -85.9639C202.08 -86.5052 201.635 -86.944 201.087 -86.944C200.539 -86.944 200.094 -86.5052 200.094 -85.9639C200.094 -85.4226 200.539 -84.9838 201.087 -84.9838ZM201.087 -79.103C201.635 -79.103 202.08 -79.5419 202.08 -80.0832C202.08 -80.6245 201.635 -81.0633 201.087 -81.0633C200.539 -81.0633 200.094 -80.6245 200.094 -80.0832C200.094 -79.5419 200.539 -79.103 201.087 -79.103ZM197.642 -79.103C198.19 -79.103 198.635 -79.5419 198.635 -80.0832C198.635 -80.6245 198.19 -81.0633 197.642 -81.0633C197.094 -81.0633 196.649 -80.6245 196.649 -80.0832C196.649 -79.5419 197.094 -79.103 197.642 -79.103ZM195.89 -82.0434C196.438 -82.0434 196.883 -82.4822 196.883 -83.0235C196.883 -83.5648 196.438 -84.0037 195.89 -84.0037C195.342 -84.0037 194.897 -83.5648 194.897 -83.0235C194.897 -82.4822 195.342 -82.0434 195.89 -82.0434ZM197.642 -84.9838C198.19 -84.9838 198.635 -85.4226 198.635 -85.9639C198.635 -86.5052 198.19 -86.944 197.642 -86.944C197.094 -86.944 196.649 -86.5052 196.649 -85.9639C196.649 -85.4226 197.094 -84.9838 197.642 -84.9838ZM194.138 -85.5603C194.364 -85.5603 194.547 -85.741 194.547 -85.9639C194.547 -86.1868 194.364 -86.3675 194.138 -86.3675C193.912 -86.3675 193.729 -86.1868 193.729 -85.9639C193.729 -85.741 193.912 -85.5603 194.138 -85.5603ZM195.481 -89.3079C195.643 -89.3079 195.773 -89.4369 195.773 -89.5961C195.773 -89.7553 195.643 -89.8844 195.481 -89.8844C195.32 -89.8844 195.189 -89.7553 195.189 -89.5961C195.189 -89.4369 195.32 -89.3079 195.481 -89.3079ZM203.189 -89.3079C203.351 -89.3079 203.481 -89.4369 203.481 -89.5961C203.481 -89.7553 203.351 -89.8844 203.189 -89.8844C203.028 -89.8844 202.897 -89.7553 202.897 -89.5961C202.897 -89.4369 203.028 -89.3079 203.189 -89.3079ZM203.189 -76.1627C203.351 -76.1627 203.481 -76.2917 203.481 -76.4509C203.481 -76.6101 203.351 -76.7392 203.189 -76.7392C203.028 -76.7392 202.897 -76.6101 202.897 -76.4509C202.897 -76.2917 203.028 -76.1627 203.189 -76.1627ZM195.481 -76.1627C195.643 -76.1627 195.773 -76.2917 195.773 -76.4509C195.773 -76.6101 195.643 -76.7392 195.481 -76.7392C195.32 -76.7392 195.189 -76.6101 195.189 -76.4509C195.189 -76.2917 195.32 -76.1627 195.481 -76.1627ZM191.16 -78.1806C191.225 -78.1806 191.277 -78.2322 191.277 -78.2959C191.277 -78.3596 191.225 -78.4112 191.16 -78.4112C191.096 -78.4112 191.043 -78.3596 191.043 -78.2959C191.043 -78.2322 191.096 -78.1806 191.16 -78.1806ZM207.569 -78.1806C207.634 -78.1806 207.686 -78.2322 207.686 -78.2959C207.686 -78.3596 207.634 -78.4112 207.569 -78.4112C207.505 -78.4112 207.452 -78.3596 207.452 -78.2959C207.452 -78.2322 207.505 -78.1806 207.569 -78.1806ZM207.569 -87.5782C207.634 -87.5782 207.686 -87.6299 207.686 -87.6935C207.686 -87.7572 207.634 -87.8088 207.569 -87.8088C207.505 -87.8088 207.452 -87.7572 207.452 -87.6935C207.452 -87.6299 207.505 -87.5782 207.569 -87.5782ZM191.16 -87.5782C191.225 -87.5782 191.277 -87.6299 191.277 -87.6935C191.277 -87.7572 191.225 -87.8088 191.16 -87.8088C191.096 -87.8088 191.043 -87.7572 191.043 -87.6935C191.043 -87.6299 191.096 -87.5782 191.16 -87.5782ZM199.335 -92.3059C199.4 -92.3059 199.452 -92.3575 199.452 -92.4212C199.452 -92.4849 199.4 -92.5365 199.335 -92.5365C199.271 -92.5365 199.219 -92.4849 199.219 -92.4212C199.219 -92.3575 199.271 -92.3059 199.335 -92.3059ZM199.335 -73.5106C199.4 -73.5106 199.452 -73.5622 199.452 -73.6259C199.452 -73.6896 199.4 -73.7412 199.335 -73.7412C199.271 -73.7412 199.219 -73.6896 199.219 -73.6259C199.219 -73.5622 199.271 -73.5106 199.335 -73.5106ZM194.138 -79.6796C194.364 -79.6796 194.547 -79.8603 194.547 -80.0832C194.547 -80.3061 194.364 -80.4867 194.138 -80.4867C193.912 -80.4867 193.729 -80.3061 193.729 -80.0832C193.729 -79.8603 193.912 -79.6796 194.138 -79.6796ZM204.591 -79.6796C204.817 -79.6796 205 -79.8603 205 -80.0832C205 -80.3061 204.817 -80.4867 204.591 -80.4867C204.365 -80.4867 204.182 -80.3061 204.182 -80.0832C204.182 -79.8603 204.365 -79.6796 204.591 -79.6796ZM204.591 -85.5603C204.817 -85.5603 205 -85.741 205 -85.9639C205 -86.1868 204.817 -86.3675 204.591 -86.3675C204.365 -86.3675 204.182 -86.1868 204.182 -85.9639C204.182 -85.741 204.365 -85.5603 204.591 -85.5603ZM199.365 -88.5007C199.59 -88.5007 199.773 -88.6814 199.773 -88.9043C199.773 -89.1272 199.59 -89.3079 199.365 -89.3079C199.139 -89.3079 198.956 -89.1272 198.956 -88.9043C198.956 -88.6814 199.139 -88.5007 199.365 -88.5007ZM199.365 -76.7392C199.59 -76.7392 199.773 -76.9199 199.773 -77.1428C199.773 -77.3657 199.59 -77.5464 199.365 -77.5464C199.139 -77.5464 198.956 -77.3657 198.956 -77.1428C198.956 -76.9199 199.139 -76.7392 199.365 -76.7392ZM202.839 -82.0434C203.387 -82.0434 203.832 -82.4822 203.832 -83.0235C203.832 -83.5648 203.387 -84.0037 202.839 -84.0037C202.291 -84.0037 201.846 -83.5648 201.846 -83.0235C201.846 -82.4822 202.291 -82.0434 202.839 -82.0434ZM207.102 -82.7929C207.231 -82.7929 207.335 -82.8962 207.335 -83.0235C207.335 -83.1509 207.231 -83.2542 207.102 -83.2542C206.973 -83.2542 206.868 -83.1509 206.868 -83.0235C206.868 -82.8962 206.973 -82.7929 207.102 -82.7929ZM191.627 -82.7929C191.756 -82.7929 191.861 -82.8962 191.861 -83.0235C191.861 -83.1509 191.756 -83.2542 191.627 -83.2542C191.498 -83.2542 191.394 -83.1509 191.394 -83.0235C191.394 -82.8962 191.498 -82.7929 191.627 -82.7929ZM199.686 -92.4212C199.686 -92.2301 199.529 -92.0753 199.335 -92.0753C199.142 -92.0753 198.985 -92.2301 198.985 -92.4212C198.985 -92.6122 199.142 -92.7671 199.335 -92.7671C199.529 -92.7671 199.686 -92.6122 199.686 -92.4212ZM196.007 -89.5961C196.007 -89.3096 195.772 -89.0772 195.481 -89.0772C195.191 -89.0772 194.956 -89.3096 194.956 -89.5961C194.956 -89.8827 195.191 -90.115 195.481 -90.115C195.772 -90.115 196.007 -89.8827 196.007 -89.5961ZM201.087 -84.7532C201.764 -84.7532 202.314 -85.2952 202.314 -85.9639C202.314 -86.6326 201.764 -87.1747 201.087 -87.1747C200.41 -87.1747 199.861 -86.6326 199.861 -85.9639C199.861 -85.2952 200.41 -84.7532 201.087 -84.7532ZM201.087 -78.8724C201.764 -78.8724 202.314 -79.4145 202.314 -80.0832C202.314 -80.7518 201.764 -81.2939 201.087 -81.2939C200.41 -81.2939 199.861 -80.7518 199.861 -80.0832C199.861 -79.4145 200.41 -78.8724 201.087 -78.8724ZM198.868 -80.0832C198.868 -79.4145 198.319 -78.8724 197.642 -78.8724C196.965 -78.8724 196.416 -79.4145 196.416 -80.0832C196.416 -80.7518 196.965 -81.2939 197.642 -81.2939C198.319 -81.2939 198.868 -80.7518 198.868 -80.0832ZM195.89 -81.8128C196.567 -81.8128 197.116 -82.3549 197.116 -83.0235C197.116 -83.6922 196.567 -84.2343 195.89 -84.2343C195.213 -84.2343 194.664 -83.6922 194.664 -83.0235C194.664 -82.3549 195.213 -81.8128 195.89 -81.8128ZM198.868 -85.9639C198.868 -85.2952 198.319 -84.7532 197.642 -84.7532C196.965 -84.7532 196.416 -85.2952 196.416 -85.9639C196.416 -86.6326 196.965 -87.1747 197.642 -87.1747C198.319 -87.1747 198.868 -86.6326 198.868 -85.9639ZM194.138 -85.3297C194.493 -85.3297 194.781 -85.6136 194.781 -85.9639C194.781 -86.3142 194.493 -86.5981 194.138 -86.5981C193.783 -86.5981 193.496 -86.3142 193.496 -85.9639C193.496 -85.6136 193.783 -85.3297 194.138 -85.3297ZM203.189 -89.0772C203.48 -89.0772 203.715 -89.3096 203.715 -89.5961C203.715 -89.8827 203.48 -90.115 203.189 -90.115C202.899 -90.115 202.664 -89.8827 202.664 -89.5961C202.664 -89.3096 202.899 -89.0772 203.189 -89.0772ZM203.715 -76.4509C203.715 -76.1644 203.48 -75.932 203.189 -75.932C202.899 -75.932 202.664 -76.1644 202.664 -76.4509C202.664 -76.7375 202.899 -76.9698 203.189 -76.9698C203.48 -76.9698 203.715 -76.7375 203.715 -76.4509ZM195.481 -75.932C195.772 -75.932 196.007 -76.1644 196.007 -76.4509C196.007 -76.7375 195.772 -76.9698 195.481 -76.9698C195.191 -76.9698 194.956 -76.7375 194.956 -76.4509C194.956 -76.1644 195.191 -75.932 195.481 -75.932ZM191.51 -78.2959C191.51 -78.1048 191.354 -77.95 191.16 -77.95C190.967 -77.95 190.81 -78.1048 190.81 -78.2959C190.81 -78.4869 190.967 -78.6418 191.16 -78.6418C191.354 -78.6418 191.51 -78.4869 191.51 -78.2959ZM207.569 -77.95C207.763 -77.95 207.919 -78.1048 207.919 -78.2959C207.919 -78.4869 207.763 -78.6418 207.569 -78.6418C207.376 -78.6418 207.219 -78.4869 207.219 -78.2959C207.219 -78.1048 207.376 -77.95 207.569 -77.95ZM207.919 -87.6935C207.919 -87.5025 207.763 -87.3476 207.569 -87.3476C207.376 -87.3476 207.219 -87.5025 207.219 -87.6935C207.219 -87.8846 207.376 -88.0395 207.569 -88.0395C207.763 -88.0395 207.919 -87.8846 207.919 -87.6935ZM191.16 -87.3476C191.354 -87.3476 191.51 -87.5025 191.51 -87.6935C191.51 -87.8846 191.354 -88.0395 191.16 -88.0395C190.967 -88.0395 190.81 -87.8846 190.81 -87.6935C190.81 -87.5025 190.967 -87.3476 191.16 -87.3476ZM199.335 -73.2799C199.529 -73.2799 199.686 -73.4348 199.686 -73.6259C199.686 -73.8169 199.529 -73.9718 199.335 -73.9718C199.142 -73.9718 198.985 -73.8169 198.985 -73.6259C198.985 -73.4348 199.142 -73.2799 199.335 -73.2799ZM194.781 -80.0832C194.781 -79.7329 194.493 -79.449 194.138 -79.449C193.783 -79.449 193.496 -79.7329 193.496 -80.0832C193.496 -80.4334 193.783 -80.7174 194.138 -80.7174C194.493 -80.7174 194.781 -80.4334 194.781 -80.0832ZM204.591 -79.449C204.946 -79.449 205.233 -79.7329 205.233 -80.0832C205.233 -80.4334 204.946 -80.7174 204.591 -80.7174C204.236 -80.7174 203.949 -80.4334 203.949 -80.0832C203.949 -79.7329 204.236 -79.449 204.591 -79.449ZM205.233 -85.9639C205.233 -85.6136 204.946 -85.3297 204.591 -85.3297C204.236 -85.3297 203.949 -85.6136 203.949 -85.9639C203.949 -86.3142 204.236 -86.5981 204.591 -86.5981C204.946 -86.5981 205.233 -86.3142 205.233 -85.9639ZM199.365 -88.2701C199.719 -88.2701 200.007 -88.554 200.007 -88.9043C200.007 -89.2545 199.719 -89.5385 199.365 -89.5385C199.01 -89.5385 198.722 -89.2545 198.722 -88.9043C198.722 -88.554 199.01 -88.2701 199.365 -88.2701ZM200.007 -77.1428C200.007 -76.7925 199.719 -76.5086 199.365 -76.5086C199.01 -76.5086 198.722 -76.7925 198.722 -77.1428C198.722 -77.493 199.01 -77.777 199.365 -77.777C199.719 -77.777 200.007 -77.493 200.007 -77.1428ZM202.839 -81.8128C203.516 -81.8128 204.065 -82.3549 204.065 -83.0235C204.065 -83.6922 203.516 -84.2343 202.839 -84.2343C202.162 -84.2343 201.613 -83.6922 201.613 -83.0235C201.613 -82.3549 202.162 -81.8128 202.839 -81.8128ZM207.569 -83.0235C207.569 -82.7688 207.36 -82.5623 207.102 -82.5623C206.844 -82.5623 206.635 -82.7688 206.635 -83.0235C206.635 -83.2783 206.844 -83.4848 207.102 -83.4848C207.36 -83.4848 207.569 -83.2783 207.569 -83.0235ZM191.627 -82.5623C191.885 -82.5623 192.094 -82.7688 192.094 -83.0235C192.094 -83.2783 191.885 -83.4848 191.627 -83.4848C191.369 -83.4848 191.16 -83.2783 191.16 -83.0235C191.16 -82.7688 191.369 -82.5623 191.627 -82.5623ZM189.175 -83.0235C189.175 -82.8962 189.07 -82.7929 188.941 -82.7929C188.812 -82.7929 188.708 -82.8962 188.708 -83.0235C188.708 -83.1509 188.812 -83.2542 188.941 -83.2542C189.07 -83.2542 189.175 -83.1509 189.175 -83.0235ZM194.138 -73.7988C194.267 -73.7988 194.372 -73.9021 194.372 -74.0295C194.372 -74.1568 194.267 -74.2601 194.138 -74.2601C194.009 -74.2601 193.905 -74.1568 193.905 -74.0295C193.905 -73.9021 194.009 -73.7988 194.138 -73.7988ZM204.824 -74.0295C204.824 -73.9021 204.72 -73.7988 204.591 -73.7988C204.462 -73.7988 204.357 -73.9021 204.357 -74.0295C204.357 -74.1568 204.462 -74.2601 204.591 -74.2601C204.72 -74.2601 204.824 -74.1568 204.824 -74.0295ZM204.591 -91.7293C204.72 -91.7293 204.824 -91.8326 204.824 -91.96C204.824 -92.0873 204.72 -92.1906 204.591 -92.1906C204.462 -92.1906 204.357 -92.0873 204.357 -91.96C204.357 -91.8326 204.462 -91.7293 204.591 -91.7293ZM194.313 -91.96C194.313 -91.8326 194.209 -91.7293 194.08 -91.7293C193.951 -91.7293 193.846 -91.8326 193.846 -91.96C193.846 -92.0873 193.951 -92.1906 194.08 -92.1906C194.209 -92.1906 194.313 -92.0873 194.313 -91.96ZM209.788 -82.7929C209.917 -82.7929 210.022 -82.8962 210.022 -83.0235C210.022 -83.1509 209.917 -83.2542 209.788 -83.2542C209.659 -83.2542 209.554 -83.1509 209.554 -83.0235C209.554 -82.8962 209.659 -82.7929 209.788 -82.7929Z" fill="#303A48"/>
<path fill-rule="evenodd" clip-rule="evenodd" d="M297.678 212.251L295.986 219.503L300.13 220.607L301.844 213.257C308.911 214.687 314.224 214.11 316.461 207.275C318.105 202.254 316.675 199.171 313.589 197.097C313.292 196.898 312.98 196.707 312.653 196.526C313.011 196.438 313.357 196.328 313.689 196.195C315.873 195.319 317.472 193.433 317.944 190.018C318.696 184.643 314.87 181.754 309.638 179.826L311.335 172.545L307.191 171.441L305.539 178.53L305.423 178.499C305.304 178.468 305.185 178.436 305.065 178.405C304.961 178.378 304.857 178.351 304.753 178.324C303.915 178.109 303.065 177.901 302.219 177.694L303.883 170.558L299.741 169.454L298.043 176.732C297.778 176.668 297.515 176.604 297.254 176.539C296.845 176.439 296.441 176.328 296.042 176.218C295.827 176.159 295.614 176.101 295.401 176.044L289.687 174.518L288.584 179.252C288.584 179.252 289.729 179.533 290.607 179.762C290.679 179.781 290.75 179.799 290.817 179.817C291.224 179.925 291.537 180.014 291.588 180.044C291.592 180.046 291.594 180.048 291.595 180.049C291.595 180.05 291.595 180.051 291.595 180.051C291.595 180.051 291.595 180.052 291.594 180.052C291.886 180.13 292.136 180.231 292.351 180.348C293.367 180.906 293.567 181.852 293.525 182.63L288.875 202.576C288.724 202.975 288.406 203.519 287.787 203.662C287.56 203.714 287.291 203.712 286.976 203.629C286.976 203.629 286.976 203.63 286.976 203.63L286.976 203.631L286.975 203.631C286.974 203.632 286.972 203.632 286.97 203.632C286.924 203.634 286.603 203.553 286.186 203.442C286.131 203.427 286.074 203.412 286.016 203.396C285.955 203.38 285.892 203.363 285.829 203.345C284.977 203.113 283.964 202.825 283.964 202.825L281.906 207.898L287.299 209.336C287.901 209.497 288.496 209.663 289.085 209.828C289.477 209.937 289.866 210.045 290.253 210.151L288.538 217.516L292.677 218.621L294.376 211.334C294.47 211.362 294.565 211.389 294.659 211.416C294.791 211.454 294.922 211.492 295.053 211.529L295.157 211.559C296.014 211.802 296.853 212.032 297.678 212.251ZM317.14 189.907L317.14 189.906C317.482 187.463 316.792 185.64 315.44 184.182C314.052 182.685 311.929 181.536 309.357 180.588L308.684 180.34L310.366 173.127L307.792 172.441L306.139 179.53L305.33 179.314C304.25 179.027 303.139 178.755 302.026 178.483L301.245 178.292L302.913 171.14L300.342 170.454L298.647 177.715L290.287 175.519L289.557 178.656C289.789 178.715 290.052 178.781 290.314 178.848C290.696 178.945 291.08 179.045 291.368 179.125C291.509 179.164 291.637 179.201 291.732 179.232C291.775 179.245 291.834 179.265 291.889 179.289L291.891 179.289C291.895 179.291 291.901 179.294 291.909 179.297C292.865 179.576 293.518 180.087 293.906 180.742C294.295 181.398 294.366 182.108 294.336 182.674L294.332 182.745L289.653 202.812L289.634 202.862C289.506 203.203 289.256 203.702 288.785 204.066C288.294 204.446 287.643 204.616 286.869 204.439C286.854 204.437 286.843 204.436 286.837 204.435L286.835 204.435C286.782 204.427 286.725 204.415 286.683 204.406C286.589 204.385 286.461 204.353 286.319 204.317C286.032 204.243 285.649 204.139 285.269 204.034C284.98 203.954 284.691 203.873 284.443 203.804L283.005 207.351L287.509 208.552C288.113 208.714 288.718 208.882 289.311 209.048C289.703 209.157 290.089 209.265 290.468 209.368L291.221 209.575L289.507 216.934L292.077 217.62L293.779 210.316L294.602 210.554C295.726 210.881 296.818 211.182 297.887 211.466L298.648 211.668L296.955 218.921L299.529 219.607L301.233 212.305L302.006 212.461C305.509 213.17 308.429 213.345 310.71 212.594C312.916 211.868 314.637 210.237 315.689 207.022C316.55 204.392 316.494 202.43 315.876 200.92C315.256 199.406 314.019 198.216 312.258 197.235L310.456 196.231L312.459 195.737C313.68 195.436 314.71 194.868 315.498 193.964C316.288 193.057 316.884 191.755 317.14 189.907Z" fill="#303A48"/>
<path fill-rule="evenodd" clip-rule="evenodd" d="M310.549 190.123L310.549 190.123C310.903 188.605 310.623 187.322 309.922 186.276C309.242 185.261 308.205 184.527 307.13 183.985C305.417 183.12 303.382 182.64 302.094 182.336L302.094 182.336L302.094 182.336L302.09 182.335C301.902 182.29 301.73 182.25 301.578 182.212C301.481 182.188 301.392 182.166 301.311 182.145L300.502 181.929L298.07 192.36L298.83 192.563C299.007 192.61 299.221 192.671 299.466 192.741C300.737 193.105 302.827 193.703 304.806 193.781C305.994 193.828 307.239 193.695 308.294 193.146C309.387 192.578 310.204 191.599 310.549 190.123ZM301.891 183.123L301.957 183.138C304.875 183.83 310.852 185.245 309.758 189.939C308.687 194.528 302.538 192.773 299.719 191.968C299.463 191.895 299.234 191.83 299.039 191.778L301.102 182.929C301.229 182.963 301.371 182.998 301.527 183.036C301.641 183.064 301.763 183.093 301.891 183.123Z" fill="#303A48"/>
<path fill-rule="evenodd" clip-rule="evenodd" d="M306.98 207.509C308.094 206.897 308.921 205.888 309.267 204.402C309.616 202.906 309.36 201.61 308.688 200.524C308.033 199.465 307.014 198.657 305.91 198.03C303.731 196.793 300.976 196.131 299.245 195.716L299.206 195.707C298.811 195.612 298.478 195.532 298.207 195.46L297.398 195.244L294.753 206.583L295.514 206.786C295.738 206.845 296.003 206.92 296.31 207.007L296.346 207.017C298.021 207.49 300.799 208.275 303.327 208.286C304.604 208.291 305.9 208.101 306.98 207.509ZM297.998 196.244C298.223 196.304 298.489 196.369 298.786 196.441C298.861 196.459 298.937 196.477 299.016 196.496L299.016 196.496C302.513 197.335 309.68 199.055 308.476 204.218C307.301 209.268 299.912 207.18 296.53 206.225L296.525 206.224C296.223 206.138 295.953 206.062 295.722 206.001L297.998 196.244Z" fill="#303A48"/>
</g>
</g>
<defs>
<clipPath id="clip0_2291_330">
<rect width="380" height="380" fill="white"/>
</clipPath>
</defs>
</svg>
