<svg width="380" height="380" viewBox="0 0 380 380" fill="none" xmlns="http://www.w3.org/2000/svg">
<g clip-path="url(#clip0_2291_333)">
<path opacity="0.3" fill-rule="evenodd" clip-rule="evenodd" d="M474.945 241.883C474.945 245.697 471.852 248.789 468.038 248.789C466.273 248.789 464.664 248.128 463.443 247.039L457.875 252.574L457.302 251.998L462.869 246.464C462.768 246.35 462.671 246.233 462.577 246.112L312.137 350.585C312.482 351.192 312.739 351.856 312.889 352.559L356.811 344.444C356.748 343.983 356.715 343.512 356.715 343.034C356.715 337.313 361.354 332.675 367.076 332.675C369.611 332.675 371.933 333.585 373.734 335.097L448.335 260.914L448.908 261.49L374.336 335.644C376.249 337.523 377.436 340.14 377.436 343.034C377.436 348.754 372.798 353.392 367.076 353.392C362.113 353.392 357.965 349.903 356.952 345.244L313.01 353.363C313.03 353.573 313.04 353.786 313.04 354.002C313.04 357.816 309.947 360.907 306.133 360.907C302.967 360.907 300.298 358.777 299.482 355.872L286.145 358.373L285.995 357.574L299.309 355.078C299.254 354.727 299.226 354.368 299.226 354.002C299.226 353.454 299.289 352.922 299.41 352.411L294.33 350.811L294.575 350.036L299.643 351.633C300.134 350.287 301.032 349.138 302.187 348.332L297.801 341.406L298.487 340.972L302.88 347.908C303.849 347.39 304.957 347.096 306.133 347.096C307.14 347.096 308.096 347.311 308.959 347.698L361.364 247.687C357.961 245.721 355.672 242.043 355.672 237.831C355.672 236.658 355.849 235.527 356.179 234.462L329.507 224.88L330.056 224.214L356.447 233.695C358.102 229.459 362.224 226.457 367.048 226.457C367.603 226.457 368.149 226.497 368.684 226.574L388.814 108.197C385.528 107.476 382.827 105.195 381.525 102.17L203.408 172.112C203.76 173.165 203.952 174.293 203.952 175.466C203.952 176.601 203.772 177.694 203.441 178.718L258.78 198.566V199.429L203.161 179.481C202.371 181.402 201.03 183.039 199.336 184.196L277.593 307.933L276.906 308.368L198.647 184.627C197.099 185.518 195.303 186.028 193.388 186.028C193.117 186.028 192.849 186.017 192.583 185.997L178.016 302.784C182.945 303.676 186.684 307.99 186.684 313.176C186.684 314.118 186.561 315.032 186.329 315.901L242.636 333.679L242.392 334.454L186.09 316.678C185.53 318.272 184.598 319.691 183.399 320.831L221.014 363.448C222.155 362.617 223.559 362.126 225.078 362.126C228.439 362.126 231.24 364.526 231.858 367.706L263.412 361.81L263.561 362.609L231.966 368.512C231.979 368.684 231.985 368.857 231.985 369.032C231.985 372.846 228.893 375.938 225.078 375.938C221.264 375.938 218.172 372.846 218.172 369.032C218.172 368.206 218.317 367.413 218.583 366.679L100.463 315.703C99.3911 317.819 97.1952 319.269 94.6604 319.269C92.571 319.269 90.7118 318.284 89.5225 316.752C89.4857 316.705 89.4495 316.657 89.4139 316.608L89.4005 316.59C92.8114 314.099 95.5145 310.711 97.1553 306.778L97.1595 306.768C97.2221 306.794 97.2842 306.821 97.3458 306.849C99.3855 307.775 100.862 309.724 101.121 312.041L165.574 312.579C165.69 310.498 166.409 308.577 167.559 306.989L69.8803 231.735C69.2256 232.478 68.4037 233.07 67.4736 233.453L81.9829 275.569L81.2146 275.834L66.7042 233.714C66.1615 233.861 65.5906 233.939 65.0014 233.939C61.4112 233.939 58.5008 231.029 58.5008 227.44C58.5008 226.059 58.9315 224.779 59.6658 223.726L23.5104 194.147C23.1685 194.435 22.7982 194.691 22.4043 194.909L71.6774 275.025L70.9852 275.451L21.6674 195.262C20.8634 195.59 19.9837 195.77 19.0619 195.77C15.2473 195.77 12.155 192.678 12.155 188.864C12.155 185.05 15.2473 181.959 19.0619 181.959L24.3088 53.7535C21.2008 53.0795 18.8727 50.3139 18.8727 47.0046C18.8727 43.1906 21.965 40.0987 25.7796 40.0987C26.467 40.0987 27.131 40.1992 27.7577 40.3861L52.3552 -7.58378C49.9305 -9.27164 48.3436 -12.079 48.3436 -15.257C48.3436 -20.4171 52.5274 -24.6002 57.6882 -24.6002C59.7881 -24.6002 61.7262 -23.9077 63.2865 -22.7386L100.768 -61.4307C99.7453 -62.6485 99.1295 -64.2191 99.1295 -65.9336C99.1295 -69.8036 102.267 -72.9409 106.138 -72.9409C108.643 -72.9409 110.841 -71.6267 112.08 -69.6503L166.354 -97.7599C165.972 -98.6169 165.761 -99.5658 165.761 -100.564C165.761 -104.378 168.853 -107.47 172.667 -107.47C176.218 -107.47 179.143 -104.791 179.531 -101.344L309.032 -106.476C309.041 -110.282 312.13 -113.365 315.939 -113.365C319.753 -113.365 322.846 -110.273 322.846 -106.459C322.846 -105.197 322.507 -104.014 321.916 -102.995L431.608 -34.5129C432.845 -36.3733 434.961 -37.5994 437.363 -37.5994C441.178 -37.5994 444.27 -34.5075 444.27 -30.6935C444.27 -27.9408 442.659 -25.5643 440.329 -24.4549L492.417 94.6272C493.174 94.3416 493.995 94.1854 494.853 94.1854C498.667 94.1854 501.76 97.2772 501.76 101.091C501.76 104.826 498.794 107.869 495.088 107.993L494.765 169.373C498.526 169.435 501.557 172.503 501.557 176.278C501.557 180.092 498.464 183.184 494.65 183.184C493.89 183.184 493.16 183.061 492.476 182.835L470.996 235.641C473.33 236.749 474.945 239.128 474.945 241.883ZM388.203 -44.7083C388.203 -50.4293 383.564 -55.067 377.842 -55.067C375.154 -55.067 372.705 -54.0433 370.863 -52.3644L321.007 -101.767C321.169 -101.943 321.323 -102.126 321.467 -102.318L431.198 -33.8108C430.977 -33.3732 430.8 -32.9088 430.675 -32.4238L388.036 -42.8467C388.145 -43.4506 388.203 -44.0728 388.203 -44.7083ZM430.456 -30.6935C430.456 -26.8795 433.549 -23.7877 437.363 -23.7877C437.493 -23.7877 437.622 -23.7913 437.751 -23.7984L445.413 36.7967C443.828 36.9627 442.35 37.4858 441.06 38.284L384.42 -36.705C386.072 -38.064 387.296 -39.9244 387.859 -42.0534L430.519 -31.6256C430.478 -31.3208 430.456 -31.0096 430.456 -30.6935ZM456.865 47.0986C456.865 41.3776 452.227 36.7398 446.505 36.7398C446.411 36.7398 446.318 36.7411 446.225 36.7435L438.558 -23.8906C438.907 -23.9515 439.247 -24.0385 439.575 -24.1495L491.675 94.9584C491.301 95.1524 490.947 95.3797 490.617 95.6361L453.922 54.331C455.743 52.4642 456.865 49.9124 456.865 47.0986ZM106.138 -58.9262C110.009 -58.9262 113.146 -62.0635 113.146 -65.9336C113.146 -67.0087 112.904 -68.0273 112.471 -68.9378L166.727 -97.0384C166.767 -96.9722 166.807 -96.9067 166.849 -96.842L64.5487 -21.6008C64.3481 -21.8176 64.1373 -22.0249 63.9171 -22.2218L101.326 -60.839C102.581 -59.6532 104.275 -58.9262 106.138 -58.9262ZM211.579 -91.1306L210.964 -92.1068L225.414 -88.7679C226.576 -93.2179 230.624 -96.502 235.439 -96.502C240.177 -96.502 244.172 -93.3219 245.406 -88.98L309.173 -105.062C309.133 -105.26 309.101 -105.461 309.077 -105.665L179.574 -100.533C179.573 -100.147 179.539 -99.7691 179.477 -99.4007L193.592 -96.1296L192.961 -95.4418L179.294 -98.6091C178.45 -95.7473 175.803 -93.6584 172.667 -93.6584C170.515 -93.6584 168.593 -94.6424 167.327 -96.1849L65.0755 -20.9796C65.4745 -20.4654 65.8211 -19.9084 66.107 -19.3166L194.33 -70.1182L194.92 -69.4644L66.4283 -18.57C66.819 -17.5403 67.0328 -16.4236 67.0328 -15.257C67.0328 -14.6384 66.9727 -14.0339 66.858 -13.4489L203.082 19.9401C203.994 17.1921 206.585 15.2099 209.64 15.2099C210.094 15.2099 210.538 15.2538 210.969 15.3376L232.766 -76.1325C229.763 -76.932 227.296 -79.0467 226.02 -81.8221L212.581 -76.4885L212.984 -77.5228L225.71 -82.5732C225.301 -83.6861 225.078 -84.8887 225.078 -86.1433C225.078 -86.768 225.134 -87.3799 225.24 -87.9742L211.58 -91.1306L211.579 -91.1306ZM120.665 205.463L121.751 204.147L183.486 179.154C183.058 178.006 182.825 176.763 182.825 175.466C182.825 173.705 183.256 172.044 184.018 170.584L60.2859 101.147C59.2825 102.739 57.6465 103.893 55.7306 104.256L64.9262 220.94C64.9408 220.94 64.9555 220.94 64.9702 220.94C64.9806 220.94 64.991 220.94 65.0014 220.94C67.6239 220.94 69.8836 222.493 70.9113 224.729L108.475 209.525L109.872 209.836L71.2035 225.487C71.3974 226.103 71.502 226.759 71.502 227.44C71.502 228.794 71.0876 230.052 70.3786 231.093L168.06 306.35C169.998 304.064 172.89 302.614 176.121 302.614C176.489 302.614 176.853 302.633 177.211 302.67L191.776 185.905C188.227 185.362 185.26 183.053 183.799 179.903L120.665 205.463ZM163.499 44.9325L163.144 44.2021L203.226 24.6828C202.908 23.8892 202.733 23.0229 202.733 22.1157C202.733 21.6394 202.781 21.1744 202.873 20.7252L66.6669 -12.6593C65.5413 -8.76305 61.9476 -5.9138 57.6882 -5.9138C57.5323 -5.9138 57.3772 -5.91762 57.2231 -5.92517L55.2649 90.6136C57.54 90.8851 59.4754 92.2622 60.5185 94.1922L114.807 67.7654L115.163 68.4958L60.8619 94.9287C61.1736 95.7154 61.3448 96.5729 61.3448 97.4705C61.3448 98.5316 61.1055 99.5368 60.6778 100.435L184.422 169.879C186.288 166.891 189.606 164.904 193.388 164.904C193.676 164.904 193.961 164.915 194.243 164.938L208.579 28.9407C206.415 28.6072 204.582 27.2692 203.572 25.4179L163.499 44.9325ZM53.0445 -7.14728C54.0621 -6.56351 55.2 -6.16571 56.4119 -6.00022L54.4532 90.5647L54.4379 90.5646C53.4645 90.5646 52.5381 90.766 51.6981 91.1293L29.2345 52.9857C31.2982 51.7914 32.6865 49.5601 32.6865 47.0046C32.6865 44.1668 30.9746 41.7288 28.5269 40.6667L53.0445 -7.14728ZM25.7796 53.9104C26.7482 53.9104 27.6702 53.7111 28.5068 53.3512L50.9712 91.4962C48.9141 92.6921 47.5311 94.9198 47.5311 97.4705C47.5311 100.35 49.2943 102.819 51.8003 103.855L21.3581 182.349C20.8847 182.183 20.3876 182.066 19.8732 182.006L25.1169 53.879C25.335 53.8998 25.5561 53.9104 25.7796 53.9104ZM54.4379 104.376C54.6013 104.376 54.7633 104.371 54.9237 104.359L64.1157 221C62.5574 221.212 61.1747 221.977 60.1713 223.09L24.1045 193.584C25.2608 192.349 25.9688 190.689 25.9688 188.864C25.9688 186.143 24.3948 183.79 22.1075 182.664L52.5688 104.12C53.1633 104.287 53.7902 104.376 54.4379 104.376ZM203.12 171.352C201.723 168.052 198.697 165.61 195.05 165.034L209.388 29.0171C209.472 29.0201 209.555 29.0216 209.64 29.0216C212.378 29.0216 214.744 27.4282 215.861 25.1183L381.338 94.4562C380.917 95.5841 380.686 96.805 380.686 98.0798C380.686 99.2454 380.879 100.366 381.234 101.412L203.12 171.352ZM165.56 313.391C165.674 319.125 170.359 323.738 176.121 323.738C178.649 323.738 180.971 322.85 182.789 321.368L220.386 363.964C219.782 364.524 219.278 365.19 218.904 365.933L100.784 314.956C101.019 314.298 101.151 313.591 101.16 312.854L165.56 313.391ZM311.693 349.904C311.15 349.169 310.466 348.546 309.679 348.074L362.082 248.068C363.582 248.797 365.267 249.206 367.048 249.206C373.055 249.206 377.974 244.551 378.395 238.652L461.131 241.927C461.139 243.212 461.498 244.415 462.118 245.442L311.693 349.904ZM464.427 235.995C462.656 237.083 461.413 238.948 461.173 241.115L378.424 237.84V237.831C378.424 232.385 374.596 227.833 369.483 226.718L389.614 108.34C390.082 108.405 390.561 108.439 391.047 108.439C392.617 108.439 394.106 108.089 395.44 107.464L464.427 235.995ZM466.886 235.073C466.274 235.176 465.69 235.359 465.144 235.611L396.162 107.09C399.294 105.308 401.407 101.941 401.407 98.0798C401.407 95.5069 400.469 93.1532 398.916 91.3418L439.232 54.4759C441.102 56.3195 443.671 57.4573 446.505 57.4573C446.941 57.4573 447.371 57.4303 447.793 57.378L466.886 235.073ZM468.038 234.978C467.923 234.978 467.808 234.98 467.694 234.986L448.596 57.2461C450.386 56.8792 452.008 56.0507 453.332 54.8904L490.006 96.1715C488.734 97.424 487.946 99.1656 487.946 101.091C487.946 104.268 490.092 106.944 493.013 107.749L468.895 235.03C468.614 234.996 468.328 234.978 468.038 234.978ZM215.932 19.265C215.133 17.5043 213.617 16.1383 211.756 15.54L233.559 -75.9546C234.169 -75.8429 234.797 -75.7845 235.439 -75.7845C239.944 -75.7845 243.778 -78.6602 245.204 -82.676L367.813 -47.3154C367.597 -46.4825 367.482 -45.6088 367.482 -44.7083C367.482 -43.5065 367.687 -42.3526 368.063 -41.2794L215.932 19.265ZM216.546 22.1157C216.546 21.3864 216.433 20.6834 216.224 20.0235L368.362 -40.5239C369.97 -36.8873 373.61 -34.3496 377.842 -34.3496C378.043 -34.3496 378.242 -34.3553 378.44 -34.3665L389.605 87.8206C386.07 88.3127 383.107 90.5874 381.652 93.7069L216.171 24.3672C216.414 23.6615 216.546 22.904 216.546 22.1157ZM391.047 87.7211C390.834 87.7211 390.623 87.7275 390.413 87.7401L379.249 -34.4442C380.916 -34.6705 382.456 -35.293 383.773 -36.2137L440.385 38.739C437.814 40.6239 436.144 43.6663 436.144 47.0986C436.144 49.6936 437.099 52.0658 438.676 53.8834L398.363 90.746C396.489 88.8768 393.903 87.7211 391.047 87.7211ZM470.242 235.337C470.063 235.276 469.88 235.223 469.694 235.177L493.808 107.919C493.876 107.929 493.945 107.938 494.013 107.947C494.1 107.957 494.188 107.966 494.276 107.973L493.952 169.407C490.465 169.757 487.743 172.7 487.743 176.278C487.743 179.046 489.371 181.433 491.722 182.534L470.242 235.337ZM370.285 -51.7939C369.298 -50.7425 368.529 -49.4851 368.048 -48.0933L245.446 -83.4519C245.676 -84.3101 245.799 -85.2123 245.799 -86.1433C245.799 -86.844 245.729 -87.5286 245.597 -88.1903L309.384 -104.277C310.297 -101.533 312.887 -99.5533 315.939 -99.5533C317.649 -99.5533 319.214 -100.175 320.421 -101.204L370.285 -51.7939Z" fill="#7689A4"/>
<g opacity="0.3">
<path fill-rule="evenodd" clip-rule="evenodd" d="M500.338 47.708C505.723 47.708 510.089 52.0729 510.089 57.4574C510.089 61.9376 507.066 65.712 502.949 66.8533L510.119 122.073C513.938 122.196 516.996 125.33 516.996 129.178C516.996 133.104 513.812 136.287 509.885 136.287C509.529 136.287 509.179 136.261 508.836 136.21L473.276 250.538C473.827 250.741 474.37 250.967 474.905 251.217C478.003 252.667 480.694 254.858 482.739 257.596C482.841 257.734 482.81 257.929 482.671 258.03C482.531 258.13 482.337 258.099 482.234 257.961C480.251 255.309 477.643 253.186 474.641 251.781C471.544 250.332 468.129 249.696 464.719 249.932C461.308 250.168 458.013 251.268 455.146 253.129C452.278 254.991 449.931 257.551 448.328 260.57C446.724 263.589 445.915 266.966 445.978 270.384C446.04 273.802 446.973 277.148 448.686 280.105C450.4 283.063 452.839 285.536 455.773 287.291C458.618 288.992 461.838 289.964 465.146 290.122C465.318 290.131 465.453 290.274 465.447 290.446C465.441 290.618 465.298 290.753 465.126 290.745C461.712 290.583 458.389 289.581 455.454 287.825C453.691 286.771 452.102 285.466 450.734 283.958L355.726 360.074C356.479 361.18 356.918 362.516 356.918 363.954C356.918 367.768 353.826 370.86 350.012 370.86C346.476 370.86 343.561 368.204 343.153 364.778L209.637 373.273C209.542 377.005 206.487 380 202.733 380C198.918 380 195.826 376.908 195.826 373.094C195.826 372.172 196.006 371.293 196.334 370.489L134.806 334.265C133.552 336.008 131.506 337.143 129.195 337.143C125.38 337.143 122.288 334.051 122.288 330.237C122.288 329.25 122.495 328.31 122.869 327.461L94.8677 310.98C94.7234 311.19 94.5755 311.398 94.424 311.603C91.959 314.943 88.6352 317.562 84.8003 319.187C80.9653 320.812 76.76 321.382 72.6239 320.839C68.4879 320.295 64.5731 318.658 61.2889 316.098C58.0047 313.538 55.4717 310.149 53.9546 306.286C52.4376 302.423 51.9924 298.228 52.6655 294.138C53.3171 290.179 54.9939 286.46 57.5282 283.345C57.6662 283.175 57.9171 283.154 58.0853 283.294C58.2534 283.434 58.2753 283.682 58.1375 283.852C55.6943 286.858 54.0777 290.447 53.449 294.267C52.7989 298.217 53.2289 302.269 54.6942 306.001C56.1595 309.732 58.6061 313.005 61.7784 315.478C64.9506 317.95 68.7319 319.532 72.7269 320.057C76.7218 320.582 80.7838 320.03 84.488 318.461C88.1922 316.892 91.4026 314.362 93.7835 311.136C96.1645 307.91 97.6285 304.106 98.0225 300.122C98.4036 296.27 97.7703 292.386 96.1879 288.85C96.0988 288.651 96.1846 288.416 96.3835 288.325C96.582 288.233 96.8182 288.318 96.9073 288.517C98.5499 292.181 99.2076 296.207 98.8126 300.201C98.4565 303.801 97.2562 307.259 95.317 310.302L123.24 326.736C123.615 326.1 124.09 325.528 124.643 325.043L14.4822 170.356C14.3062 170.472 14.1248 170.58 13.9384 170.679L64.7114 277.448C65.8231 276.861 66.9845 276.363 68.1849 275.961C71.565 274.83 75.1625 274.492 78.6962 274.972C82.23 275.451 85.6041 276.737 88.5549 278.727C91.3969 280.645 93.772 283.166 95.5092 286.106C95.6195 286.293 95.5522 286.532 95.3625 286.639C95.1729 286.745 94.9327 286.678 94.8223 286.492C93.1449 283.656 90.8533 281.225 88.1119 279.376C85.2618 277.453 82.0027 276.211 78.5895 275.748C75.1762 275.284 71.7014 275.612 68.4365 276.704C65.2963 277.755 62.4323 279.486 60.0507 281.77C59.894 281.92 59.6446 281.921 59.4906 281.768C59.3366 281.615 59.3364 281.366 59.493 281.216C60.8543 279.909 62.3681 278.776 63.9984 277.84L13.2013 171.021C12.3916 171.342 11.5089 171.518 10.5851 171.518C6.65838 171.518 3.47511 168.335 3.47511 164.409C3.47511 160.701 6.31485 157.656 9.93863 157.329L7.52018 98.8923H7.51177C3.47282 98.8923 0.198608 95.6186 0.198608 91.5803C0.198608 87.542 3.47282 84.2682 7.51177 84.2682C8.32169 84.2682 9.10086 84.3999 9.82904 84.6429L31.0447 24.4401C28.4424 23.3839 26.6073 20.8314 26.6073 17.8504C26.6073 13.9243 29.7905 10.7415 33.7173 10.7415C35.4835 10.7415 37.0992 11.3854 38.3426 12.4512L130.709 -85.3412C129.4 -86.6305 128.589 -88.423 128.589 -90.4049C128.589 -94.3311 131.772 -97.5139 135.699 -97.5139C139.079 -97.5139 141.908 -95.1561 142.63 -91.9958L273.651 -120.549C273.586 -120.934 273.553 -121.33 273.553 -121.733C273.553 -125.659 276.736 -128.842 280.663 -128.842C284.59 -128.842 287.773 -125.659 287.773 -121.733C287.773 -120.922 287.638 -120.143 287.388 -119.417L411.793 -69.1287C412.954 -71.4786 415.374 -73.095 418.173 -73.095C422.099 -73.095 425.283 -69.9122 425.283 -65.9861C425.283 -64.0915 424.542 -62.3701 423.333 -61.0959L466.702 -14.2977C467.894 -15.2778 469.421 -15.8663 471.085 -15.8663C474.9 -15.8663 477.992 -12.7744 477.992 -8.96043C477.992 -6.29327 476.48 -3.97926 474.266 -2.82882L497.524 48.12C498.415 47.852 499.36 47.708 500.338 47.708ZM408.517 298.349C412.331 298.349 415.424 295.257 415.424 291.443C415.424 290.724 415.314 290.031 415.11 289.379L446.985 278.083C447.322 278.883 447.71 279.662 448.148 280.418C448.748 281.454 449.435 282.433 450.199 283.345L355.23 359.43C355.161 359.351 355.091 359.273 355.019 359.197C354.941 359.116 354.862 359.036 354.781 358.959L404.531 297.084C405.657 297.881 407.032 298.349 408.517 298.349ZM363.013 -73.7533C363.013 -79.8108 358.101 -84.7214 352.043 -84.7214C348.388 -84.7214 345.151 -82.9345 343.158 -80.1869L286.744 -118.047C286.866 -118.247 286.978 -118.453 287.079 -118.666L411.476 -68.3806C411.348 -68.0232 411.248 -67.6527 411.179 -67.2715L362.98 -72.9044C363.002 -73.1845 363.013 -73.4677 363.013 -73.7533ZM411.063 -65.9861C411.063 -62.0599 414.246 -58.8771 418.173 -58.8771C419.478 -58.8771 420.702 -59.2289 421.753 -59.8429L495.211 49.1627C494.689 49.4861 494.199 49.8574 493.749 50.2706L360.59 -66.877C361.778 -68.3513 362.592 -70.1393 362.889 -72.0971L411.079 -66.4652C411.068 -66.3068 411.063 -66.1471 411.063 -65.9861ZM464.178 -8.96043C464.178 -5.14644 467.271 -2.0546 471.085 -2.0546C471.944 -2.0546 472.765 -2.2112 473.524 -2.4974L496.753 48.3878C496.469 48.5002 496.192 48.6254 495.921 48.7629L422.43 -60.2921C422.536 -60.3715 422.64 -60.4538 422.742 -60.539L466.105 -13.746C464.912 -12.5047 464.178 -10.8182 464.178 -8.96043ZM99.5357 -29.0686C93.4773 -29.0686 88.566 -24.158 88.566 -18.1005C88.566 -16.3953 88.9552 -14.781 89.6496 -13.3415L39.7555 14.0952C39.5144 13.7085 39.2371 13.3465 38.9285 13.0142L131.319 -84.8044C131.615 -84.5725 131.931 -84.3635 132.262 -84.1802L103.771 -28.2212C102.468 -28.767 101.037 -29.0686 99.5357 -29.0686ZM33.7173 24.9594C37.644 24.9594 40.8273 21.7766 40.8273 17.8504C40.8273 16.7619 40.5826 15.7304 40.1452 14.8082L90.0296 -12.6232C90.995 -10.952 92.3885 -9.55905 94.0603 -8.59432L13.3226 157.846C12.9658 157.697 12.5941 157.577 12.2106 157.487L33.0587 24.9293C33.2755 24.9492 33.4952 24.9594 33.7173 24.9594ZM31.814 24.7018C31.9592 24.742 32.1063 24.7778 32.255 24.8089L11.4099 157.348C11.193 157.323 10.9732 157.307 10.7508 157.302L8.33157 98.8469C11.9846 98.4395 14.8249 95.3415 14.8249 91.5803C14.8249 88.6394 13.0885 86.104 10.5848 84.9432L31.814 24.7018ZM132.995 -83.8283C133.828 -83.4852 134.741 -83.296 135.699 -83.296C139.139 -83.296 142.008 -85.7381 142.667 -88.9828L185.446 -84.3802C185.351 -83.327 185.371 -82.2631 185.508 -81.2075C185.736 -79.4426 186.287 -77.7386 187.128 -76.179L108.384 -24.5851C107.371 -25.9637 106.045 -27.0971 104.509 -27.8794L132.995 -83.8283ZM15.5962 159.366C15.1388 158.912 14.62 158.519 14.0533 158.202L94.7791 -8.21439C96.218 -7.521 97.8315 -7.13241 99.5357 -7.13241C101.249 -7.13241 102.87 -7.52503 104.315 -8.22517L122.349 25.9237C121.449 26.4299 120.577 26.9864 119.735 27.5914C116.617 29.8334 113.994 32.6913 112.027 35.9868C111.91 36.1835 111.978 36.4374 112.177 36.5519C112.375 36.6663 112.629 36.598 112.746 36.4013C114.654 33.2079 117.197 30.4382 120.22 28.265C123.355 26.0109 126.934 24.4501 130.719 23.6862C134.505 22.9224 138.409 22.973 142.173 23.8347C145.803 24.6656 149.221 26.2321 152.218 28.4358C152.403 28.5715 152.663 28.5362 152.801 28.3537C152.94 28.1712 152.905 27.9107 152.72 27.7749C151.465 26.8512 150.138 26.036 148.754 25.336L193.099 -70.247C193.933 -69.8045 194.811 -69.4421 195.724 -69.1672C198.627 -68.2932 201.73 -68.3492 204.6 -69.3273C206.724 -70.0515 208.641 -71.2542 210.209 -72.8301L315.318 19.8967C311.963 23.4364 309.465 27.731 308.053 32.4515C307.138 35.5127 306.703 38.675 306.745 41.8289L164.117 49.3282C164.047 47.3998 163.777 45.4755 163.307 43.5865C162.112 38.7783 159.664 34.3754 156.216 30.8241C156.056 30.6597 155.793 30.6599 155.631 30.8219C155.469 30.9839 155.469 31.2463 155.629 31.4108C158.971 34.8554 161.343 39.1248 162.502 43.7866C163.695 48.5828 163.557 53.6131 162.106 58.3373C160.654 63.0614 157.942 67.3008 154.262 70.6C150.582 73.8992 146.072 76.1335 141.218 77.063C136.363 77.9924 131.347 77.5818 126.708 75.8752C122.069 74.1687 117.983 71.2307 114.888 67.377C111.794 63.5232 109.808 58.8993 109.144 54.002C108.499 49.2418 109.126 44.3981 110.959 39.9629C111.046 39.7511 110.949 39.5071 110.739 39.4164C110.529 39.3257 110.284 39.4227 110.197 39.6344C108.304 44.2081 107.656 49.2038 108.322 54.1134C109.006 59.1601 111.052 63.9251 114.241 67.8964C114.64 68.3932 115.055 68.8753 115.485 69.3419L15.5962 159.366ZM17.6952 164.409C17.6952 162.73 17.1129 161.187 16.1392 159.97L116.045 69.9315C118.952 72.9084 122.495 75.2093 126.421 76.6539C127.915 77.2032 129.446 77.6223 130.998 77.9096L112.611 181.053C110.665 180.743 108.677 180.832 106.768 181.314C106.653 181.343 106.585 181.461 106.616 181.576C106.647 181.691 106.765 181.758 106.88 181.729C108.749 181.258 110.695 181.175 112.599 181.486C114.574 181.809 116.457 182.548 118.124 183.655C119.79 184.762 121.202 186.21 122.266 187.905C123.291 189.539 123.969 191.365 124.26 193.27C124.278 193.387 124.386 193.47 124.503 193.454C124.621 193.438 124.704 193.329 124.686 193.212C124.387 191.246 123.687 189.362 122.63 187.676C121.534 185.93 120.079 184.437 118.362 183.297C116.854 182.296 115.174 181.586 113.41 181.203L131.799 78.0459C134.963 78.5372 138.202 78.4851 141.374 77.8778C146.376 76.9201 151.024 74.6176 154.816 71.2177C155.396 70.6981 155.952 70.1558 156.484 69.5925L268.412 167.326C264.515 171.814 261.589 177.103 259.866 182.864C258.649 186.935 258.063 191.138 258.104 195.332L124.843 195.556C124.82 195.463 124.736 195.394 124.636 195.394C124.517 195.394 124.421 195.491 124.419 195.609C124.381 198.095 123.686 200.529 122.403 202.661C121.082 204.855 119.189 206.648 116.926 207.847C114.663 209.046 112.116 209.606 109.559 209.466C107.002 209.327 104.531 208.493 102.412 207.056C100.292 205.618 98.6051 203.63 97.531 201.305C96.4568 198.981 96.0363 196.408 96.3147 193.862C96.593 191.317 97.5598 188.896 99.111 186.858C100.619 184.878 102.623 183.333 104.92 182.379C105.03 182.334 105.084 182.209 105.04 182.099C104.996 181.989 104.871 181.935 104.761 181.98C102.392 182.962 100.324 184.555 98.7689 186.598C97.7706 187.909 97.0072 189.375 96.5048 190.929L17.4698 166.192C17.6169 165.622 17.6952 165.025 17.6952 164.409ZM15.135 169.872C16.0576 169.103 16.7823 168.105 17.2217 166.965L96.2766 191.709C96.0958 192.398 95.9653 193.102 95.8873 193.816C95.6004 196.439 96.0337 199.09 97.1407 201.486C98.2476 203.881 99.9864 205.93 102.17 207.411C104.354 208.893 106.9 209.752 109.535 209.895C110.338 209.939 111.14 209.916 111.933 209.828L127.765 323.48C126.86 323.67 126.021 324.038 125.285 324.544L15.135 169.872ZM129.195 323.332C128.984 323.332 128.775 323.341 128.569 323.36L112.737 209.715C114.264 209.458 115.747 208.958 117.127 208.227C119.459 206.991 121.41 205.144 122.771 202.883C123.964 200.901 124.664 198.667 124.818 196.368L258.12 196.145C258.248 200.533 259.062 204.902 260.558 209.087C260.635 209.301 260.872 209.411 261.086 209.332C261.3 209.253 261.409 209.016 261.333 208.802C258.377 200.529 258.138 191.524 260.657 183.1C263.215 174.545 268.48 167.05 275.662 161.741C282.843 156.432 291.553 153.596 300.484 153.658C309.278 153.719 317.818 156.587 324.862 161.837C325.045 161.973 325.304 161.938 325.442 161.757C325.58 161.576 325.545 161.317 325.362 161.181C321.292 158.146 316.733 155.891 311.914 154.495L332.096 72.1238C335.833 72.8451 339.677 72.8797 343.438 72.2192C347.939 71.4288 352.212 69.6622 355.956 67.0436C357.663 65.85 359.241 64.4927 360.67 62.9943L458.727 163.357C457.571 164.622 456.865 166.305 456.865 168.154C456.865 168.475 456.886 168.792 456.928 169.102L341.799 188.498C341.381 185.79 340.698 183.121 339.755 180.53C337.7 174.882 334.46 169.741 330.253 165.452C330.094 165.29 329.832 165.29 329.671 165.451C329.51 165.612 329.51 165.873 329.67 166.036C333.791 170.239 336.966 175.278 338.98 180.812C341.041 186.477 341.836 192.523 341.309 198.528C340.782 204.532 338.946 210.348 335.93 215.566C332.914 220.785 328.79 225.28 323.851 228.734C318.911 232.189 313.274 234.519 307.337 235.562C301.399 236.604 295.305 236.334 289.484 234.769C283.662 233.205 278.254 230.384 273.64 226.505C269.131 222.715 265.487 218.005 262.951 212.692C262.853 212.487 262.608 212.397 262.401 212.493C262.195 212.589 262.105 212.835 262.203 213.04C263.681 216.138 265.529 219.036 267.699 221.672L134.385 325.682C133.12 324.241 131.263 323.332 129.195 323.332ZM136.102 330.237C136.102 328.784 135.652 327.435 134.885 326.322L268.222 222.295C269.712 224.034 271.346 225.655 273.109 227.137C277.815 231.093 283.332 233.97 289.27 235.566C290.138 235.799 291.013 236.005 291.892 236.182L276.03 307.448L275.978 307.439C275.948 307.433 275.917 307.428 275.887 307.422C271.797 306.692 267.6 306.867 263.588 307.932C263.33 308.001 263.18 308.269 263.253 308.527C263.326 308.784 263.594 308.934 263.853 308.865C267.723 307.84 271.772 307.673 275.716 308.377C279.82 309.11 283.703 310.767 287.072 313.222C290.44 315.678 293.206 318.868 295.158 322.55C297.035 326.09 298.114 329.995 298.322 333.992C298.336 334.26 298.56 334.469 298.827 334.46C299.095 334.451 299.305 334.227 299.291 333.959C299.176 331.704 298.792 329.476 298.152 327.323L402.04 293.848C402.433 294.904 403.075 295.837 403.897 296.576L354.161 358.433C353.006 357.564 351.569 357.048 350.012 357.048C347.167 357.048 344.724 358.768 343.665 361.225L297.679 344.961C298.213 343.462 298.622 341.915 298.9 340.338C298.946 340.074 298.765 339.826 298.501 339.784C298.236 339.742 297.988 339.923 297.942 340.186C297.161 344.615 295.303 348.788 292.529 352.335C289.656 356.009 285.894 358.892 281.599 360.71C277.303 362.529 272.615 363.224 267.976 362.73C263.338 362.236 258.901 360.568 255.085 357.885C251.269 355.203 248.2 351.592 246.165 347.395C244.131 343.198 243.199 338.551 243.458 333.894C243.716 329.237 245.157 324.723 247.643 320.776C250.043 316.967 253.342 313.808 257.247 311.575C257.479 311.442 257.565 311.147 257.436 310.912C257.308 310.678 257.013 310.592 256.78 310.724C252.731 313.037 249.311 316.311 246.823 320.26C244.248 324.345 242.757 329.019 242.489 333.841C242.477 334.06 242.468 334.28 242.461 334.499L136.102 330.246V330.237ZM135.241 333.579C135.664 332.815 135.946 331.963 136.053 331.057L242.446 335.312C242.43 339.636 243.401 343.915 245.292 347.818C245.458 348.158 245.629 348.495 245.807 348.828L208.549 369.368C207.32 367.455 205.174 366.188 202.733 366.188C200.13 366.188 197.864 367.627 196.686 369.753L135.241 333.579ZM209.611 372.461C209.534 371.612 209.303 370.808 208.947 370.076L246.201 349.539C248.268 353.152 251.109 356.275 254.527 358.679C258.478 361.456 263.071 363.182 267.873 363.694C272.676 364.206 277.53 363.486 281.977 361.603C286.424 359.721 290.319 356.736 293.294 352.932C295.013 350.734 296.392 348.303 297.395 345.723L343.389 361.989C343.204 362.612 343.105 363.271 343.105 363.954V363.967L209.611 372.461ZM401.61 291.443C401.61 292.004 401.677 292.549 401.803 293.071L297.91 326.547C297.408 325.017 296.774 323.528 296.015 322.096C293.994 318.283 291.131 314.981 287.643 312.439C284.414 310.085 280.728 308.44 276.827 307.607L292.691 236.334C297.57 237.218 302.577 237.235 307.479 236.374C313.535 235.311 319.285 232.934 324.323 229.41C326.964 227.563 329.376 225.426 331.516 223.043L403.108 287.148C402.17 288.327 401.61 289.82 401.61 291.443ZM408.517 284.537C406.618 284.537 404.899 285.303 403.65 286.543L332.053 222.433C333.778 220.437 335.316 218.277 336.644 215.979C339.721 210.656 341.593 204.724 342.131 198.6C342.404 195.493 342.329 192.375 341.915 189.302L457.081 169.9C457.582 171.885 458.918 173.537 460.694 174.462L410.856 284.943C410.126 284.68 409.338 284.537 408.517 284.537ZM414.822 288.619C414.169 287.163 413.026 285.975 411.603 285.263L461.435 174.796C462.2 175.088 463.029 175.253 463.895 175.262L465.597 249.267C465.29 249.275 464.983 249.289 464.676 249.311C461.159 249.554 457.763 250.688 454.807 252.607C451.85 254.526 449.431 257.166 447.778 260.278C446.124 263.39 445.29 266.872 445.355 270.396C445.399 272.774 445.851 275.118 446.683 277.328L414.822 288.619ZM463.975 161.045C462.189 161.045 460.557 161.703 459.309 162.79L361.223 62.3983C362.7 60.7665 364.005 58.9787 365.113 57.062C367.399 53.1061 368.791 48.6974 369.19 44.146L369.198 44.0609L369.201 44.0236L490.615 56.7095C490.596 56.9563 490.587 57.2057 490.587 57.4574C490.587 61.9233 493.59 65.6879 497.687 66.8423L465.956 161.324C465.327 161.142 464.662 161.045 463.975 161.045ZM469.088 163.214C468.422 162.525 467.619 161.971 466.722 161.595L498.481 67.0303C499.082 67.1461 499.703 67.2068 500.338 67.2068C500.958 67.2068 501.565 67.1488 502.153 67.0381L509.303 122.093C505.648 122.389 502.775 125.448 502.775 129.178C502.775 130.916 503.399 132.508 504.435 133.743L469.088 163.214ZM471.085 168.154C471.085 166.527 470.538 165.027 469.619 163.829L504.992 134.336C505.837 135.137 506.879 135.733 508.037 136.044L472.508 250.272C470.538 249.634 468.483 249.294 466.41 249.263L464.707 175.225C468.29 174.859 471.085 171.833 471.085 168.154ZM493.172 50.8453C491.9 52.2226 491.02 53.9675 490.71 55.9025L369.258 43.2127C369.503 38.9695 368.881 34.7175 367.425 30.7172C365.908 26.5494 363.523 22.7532 360.429 19.5793C360.275 19.4206 360.02 19.4207 359.863 19.5775C359.707 19.7343 359.707 19.9882 359.862 20.147C362.873 23.238 365.194 26.9341 366.67 30.9917C368.193 35.1751 368.78 39.6412 368.391 44.0758C368.001 48.5104 366.645 52.8059 364.417 56.6603C362.19 60.5146 359.145 63.8343 355.496 66.3857C351.848 68.9371 347.684 70.6584 343.299 71.4285C338.914 72.1986 334.413 71.9988 330.113 70.8432C325.814 69.6876 321.819 67.6042 318.411 64.7395C315.106 61.961 312.43 58.513 310.559 54.6248C310.463 54.425 310.224 54.3377 310.023 54.4312C309.822 54.5247 309.735 54.7636 309.831 54.9634C311.751 58.9578 314.499 62.5001 317.895 65.3541C321.393 68.2942 325.492 70.4324 329.905 71.6185C330.368 71.7429 330.833 71.8565 331.3 71.9593L311.131 154.276C307.681 153.349 304.107 152.858 300.49 152.833C291.38 152.769 282.496 155.662 275.171 161.077C272.902 162.755 270.82 164.646 268.95 166.718L157.034 68.9936C159.706 65.9938 161.712 62.4447 162.899 58.581C163.743 55.8347 164.156 52.988 164.135 50.1408L306.766 42.6413C306.889 45.764 307.48 48.8693 308.536 51.8504C308.61 52.0594 308.841 52.1659 309.049 52.0892C309.257 52.0126 309.363 51.7818 309.289 51.5728C307.137 45.4875 306.971 38.8722 308.822 32.6815C310.712 26.3625 314.601 20.8268 319.905 16.9058C325.209 12.9847 331.642 10.8898 338.238 10.9357C344.7 10.9807 350.978 13.0779 356.166 16.9191C356.344 17.0511 356.596 17.0172 356.73 16.8408C356.864 16.6644 356.83 16.4122 356.652 16.2802C352.618 13.2915 347.942 11.3303 343.028 10.5345L351.163 -62.82C351.453 -62.797 351.747 -62.7852 352.043 -62.7852C355.205 -62.7852 358.055 -64.1231 360.057 -66.2635L493.172 50.8453ZM341.073 -73.7533C341.073 -68.2695 345.098 -63.7257 350.356 -62.9142L342.224 10.4149C340.91 10.2371 339.581 10.1422 338.244 10.1329C331.474 10.0858 324.871 12.2359 319.427 16.2602C318.166 17.1926 316.983 18.2139 315.885 19.3136L210.766 -73.4222C211.105 -73.8036 211.425 -74.2038 211.724 -74.6218C213.269 -76.7806 214.189 -79.3155 214.393 -81.948L341.078 -74.0821C341.077 -74.0427 341.076 -74.0034 341.075 -73.9639C341.075 -73.9277 341.074 -73.8914 341.074 -73.855C341.073 -73.8212 341.073 -73.7873 341.073 -73.7533ZM342.705 -79.5121C341.859 -78.1432 341.305 -76.5743 341.132 -74.8928L214.434 -82.7595C214.434 -82.7923 214.435 -82.8251 214.435 -82.8579C214.437 -82.9766 214.341 -83.0729 214.222 -83.0729C214.103 -83.0729 214.007 -82.9766 214.005 -82.8579C213.962 -79.992 213.045 -77.2056 211.375 -74.8719C209.663 -72.4799 207.245 -70.6834 204.461 -69.7342C201.676 -68.785 198.665 -68.7307 195.848 -69.5788C193.1 -70.4063 190.671 -72.0523 188.886 -74.2946C188.812 -74.3874 188.677 -74.405 188.583 -74.3325C188.489 -74.26 188.471 -74.1248 188.545 -74.0319C189.622 -72.6786 190.926 -71.5357 192.39 -70.6494L148.023 24.9798C146.215 24.1304 144.317 23.4743 142.358 23.026C138.48 22.1379 134.456 22.0858 130.555 22.873C127.937 23.4013 125.415 24.2995 123.062 25.5354L105.032 -8.60648C108.305 -10.5046 110.505 -14.0456 110.505 -18.1005C110.505 -20.2353 109.895 -22.2277 108.84 -23.9128L187.535 -75.4739C187.592 -75.3803 187.651 -75.2874 187.71 -75.1951C187.775 -75.0954 187.908 -75.0688 188.007 -75.1347C188.106 -75.2005 188.132 -75.3339 188.068 -75.4337C186.933 -77.1932 186.203 -79.1844 185.934 -81.2627C185.656 -83.4121 185.877 -85.5967 186.58 -87.6467C187.284 -89.6967 188.451 -91.5569 189.99 -93.0825C191.53 -94.6082 193.401 -95.7582 195.457 -96.4432C197.514 -97.1282 199.701 -97.3297 201.848 -97.032C203.995 -96.7344 206.045 -95.9455 207.837 -94.7269C209.63 -93.5083 211.117 -91.8927 212.183 -90.0058C213.215 -88.1813 213.825 -86.1506 213.972 -84.0619C213.981 -83.9435 214.082 -83.8527 214.2 -83.8592C214.319 -83.8657 214.41 -83.9671 214.402 -84.0855C214.268 -86.0015 213.755 -87.8702 212.895 -89.584L274.395 -118.375C275.594 -116.142 277.951 -114.624 280.663 -114.624C282.949 -114.624 284.982 -115.702 286.283 -117.378L342.705 -79.5121ZM273.831 -119.757C273.894 -119.537 273.968 -119.322 274.052 -119.111L212.51 -90.3008C211.415 -92.2095 209.9 -93.8447 208.079 -95.0824C206.232 -96.3382 204.12 -97.1511 201.907 -97.4578C199.694 -97.7646 197.441 -97.5569 195.322 -96.851C193.202 -96.1451 191.274 -94.96 189.688 -93.3878C188.101 -91.8156 186.899 -89.8988 186.174 -87.7862C185.883 -86.9384 185.672 -86.0682 185.542 -85.187L142.782 -89.7875C142.8 -89.991 142.809 -90.1969 142.809 -90.4049C142.809 -90.6716 142.794 -90.9348 142.766 -91.1938L273.831 -119.757Z" fill="#3E4A5D"/>
<path fill-rule="evenodd" clip-rule="evenodd" d="M252.285 354.016C262.559 364.288 279.216 364.288 289.489 354.016C299.763 343.744 299.763 327.09 289.489 316.818C279.216 306.546 262.559 306.546 252.285 316.818C242.012 327.09 242.012 343.744 252.285 354.016ZM251.711 354.59C262.302 365.18 279.473 365.18 290.064 354.59C300.655 344.001 300.655 326.833 290.064 316.243C279.473 305.654 262.302 305.654 251.711 316.243C241.12 326.833 241.12 344.001 251.711 354.59Z" fill="#3E4A5D"/>
<path fill-rule="evenodd" clip-rule="evenodd" d="M60.7992 312.706C69.0101 320.916 82.3226 320.916 90.5336 312.706C98.7445 304.496 98.7445 291.186 90.5336 282.976C82.3226 274.766 69.0101 274.766 60.7992 282.976C52.5883 291.186 52.5883 304.496 60.7992 312.706ZM60.2247 313.28C68.7529 321.807 82.5799 321.807 91.1081 313.28C99.6364 304.753 99.6364 290.929 91.1081 282.402C82.5799 273.875 68.7529 273.875 60.2247 282.402C51.6964 290.929 51.6964 304.753 60.2247 313.28Z" fill="#3E4A5D"/>
<path fill-rule="evenodd" clip-rule="evenodd" d="M100.886 204.833C106.1 210.046 114.552 210.046 119.766 204.833C124.979 199.62 124.979 191.169 119.766 185.956C114.552 180.743 106.1 180.743 100.886 185.956C95.6726 191.169 95.6726 199.62 100.886 204.833ZM100.584 205.135C105.964 210.514 114.688 210.514 120.068 205.135C125.448 199.755 125.448 191.034 120.068 185.654C114.688 180.275 105.964 180.275 100.584 185.654C95.2037 191.034 95.2037 199.755 100.584 205.135Z" fill="#3E4A5D"/>
<path fill-rule="evenodd" clip-rule="evenodd" d="M136.102 76.1437C150.35 76.1437 161.901 64.5948 161.901 50.3484C161.901 36.1021 150.35 24.5531 136.102 24.5531C121.853 24.5531 110.302 36.1021 110.302 50.3484C110.302 64.5948 121.853 76.1437 136.102 76.1437ZM136.102 76.9562C150.799 76.9562 162.713 65.0435 162.713 50.3484C162.713 35.6534 150.799 23.7407 136.102 23.7407C121.404 23.7407 109.49 35.6534 109.49 50.3484C109.49 65.0435 121.404 76.9562 136.102 76.9562Z" fill="#3E4A5D"/>
<path fill-rule="evenodd" clip-rule="evenodd" d="M452.626 283.626C460.104 291.103 472.227 291.103 479.704 283.626C487.182 276.15 487.182 264.028 479.704 256.552C472.227 249.076 460.104 249.076 452.626 256.552C445.149 264.028 445.149 276.15 452.626 283.626ZM452.205 284.048C459.915 291.757 472.416 291.757 480.126 284.048C487.836 276.339 487.836 263.84 480.126 256.131C472.416 248.422 459.915 248.422 452.205 256.131C444.494 263.84 444.494 276.339 452.205 284.048Z" fill="#3E4A5D"/>
<path fill-rule="evenodd" clip-rule="evenodd" d="M190.472 -73.6344C195.686 -68.4217 204.139 -68.4217 209.352 -73.6344C214.566 -78.8471 214.566 -87.2985 209.352 -92.5112C204.139 -97.7239 195.686 -97.7239 190.472 -92.5112C185.259 -87.2985 185.259 -78.8471 190.472 -73.6344ZM190.17 -73.3324C195.551 -67.9529 204.274 -67.9529 209.654 -73.3324C215.034 -78.7119 215.034 -87.4338 209.654 -92.8133C204.274 -98.1928 195.551 -98.1928 190.17 -92.8133C184.79 -87.4338 184.79 -78.7119 190.17 -73.3324Z" fill="#3E4A5D"/>
<path fill-rule="evenodd" clip-rule="evenodd" d="M338.026 70.2535C353.958 70.2535 366.873 57.3405 366.873 41.4115C366.873 25.4825 353.958 12.5695 338.026 12.5695C322.095 12.5695 309.18 25.4825 309.18 41.4115C309.18 57.3405 322.095 70.2535 338.026 70.2535ZM338.026 71.0659C354.406 71.0659 367.685 57.7892 367.685 41.4115C367.685 25.0338 354.406 11.7571 338.026 11.7571C321.646 11.7571 308.367 25.0338 308.367 41.4115C308.367 57.7892 321.646 71.0659 338.026 71.0659Z" fill="#3E4A5D"/>
<path fill-rule="evenodd" clip-rule="evenodd" d="M300.197 233.927C321.743 233.927 339.21 216.463 339.21 194.92C339.21 173.378 321.743 155.914 300.197 155.914C278.651 155.914 261.185 173.378 261.185 194.92C261.185 216.463 278.651 233.927 300.197 233.927ZM300.197 234.739C322.192 234.739 340.022 216.912 340.022 194.92C340.022 172.929 322.192 155.101 300.197 155.101C278.202 155.101 260.372 172.929 260.372 194.92C260.372 216.912 278.202 234.739 300.197 234.739Z" fill="#3E4A5D"/>
<path d="M161.901 50.3484C161.901 64.5948 150.35 76.1437 136.102 76.1437C121.853 76.1437 110.302 64.5948 110.302 50.3484C110.302 36.1021 121.853 24.5531 136.102 24.5531C150.35 24.5531 161.901 36.1021 161.901 50.3484Z" fill="#3E4A5D"/>
<path d="M366.873 41.4115C366.873 57.3405 353.958 70.2535 338.026 70.2535C322.095 70.2535 309.18 57.3405 309.18 41.4115C309.18 25.4825 322.095 12.5695 338.026 12.5695C353.958 12.5695 366.873 25.4825 366.873 41.4115Z" fill="#3E4A5D"/>
<path d="M289.489 354.016C279.216 364.288 262.559 364.288 252.285 354.016C242.012 343.744 242.012 327.09 252.285 316.818C262.559 306.546 279.216 306.546 289.489 316.818C299.763 327.09 299.763 343.744 289.489 354.016Z" fill="#3E4A5D"/>
<path d="M90.5336 312.706C82.3226 320.916 69.0101 320.916 60.7992 312.706C52.5883 304.496 52.5883 291.186 60.7992 282.976C69.0101 274.766 82.3226 274.766 90.5336 282.976C98.7445 291.186 98.7445 304.496 90.5336 312.706Z" fill="#3E4A5D"/>
<path d="M479.77 283.674C472.281 291.162 460.138 291.162 452.649 283.674C445.16 276.186 445.16 264.046 452.649 256.558C460.138 249.07 472.281 249.07 479.77 256.558C487.259 264.046 487.259 276.186 479.77 283.674Z" fill="#3E4A5D"/>
<path d="M119.767 204.834C114.553 210.047 106.099 210.047 100.886 204.834C95.6717 199.621 95.6717 191.168 100.886 185.955C106.099 180.742 114.553 180.742 119.767 185.955C124.981 191.168 124.981 199.621 119.767 204.834Z" fill="#3E4A5D"/>
<path fill-rule="evenodd" clip-rule="evenodd" d="M106.956 187.438C106.56 187.212 106.063 187.218 105.632 187.432L105.626 187.435L101.755 189.693C101.303 189.92 101.083 190.37 101.083 190.809V195.23C101.083 195.675 101.307 196.115 101.744 196.388L101.747 196.389L105.575 198.601L105.575 198.602C105.972 198.827 106.468 198.821 106.899 198.607L106.904 198.604L109.506 197.096L111.3 196.062L113.896 194.558L113.897 194.557C114.16 194.408 114.51 194.401 114.834 194.56L116.859 195.733L116.86 195.733C117.128 195.886 117.325 196.197 117.325 196.547V198.898C117.325 199.205 117.172 199.516 116.855 199.714L114.875 200.888C114.612 201.037 114.262 201.043 113.939 200.884L111.914 199.712L111.913 199.711C111.644 199.558 111.448 199.248 111.448 198.898V197.045L109.251 198.312V199.98C109.251 200.424 109.475 200.865 109.912 201.137L109.915 201.139L113.743 203.351L113.743 203.351C114.14 203.577 114.636 203.571 115.067 203.357L115.072 203.354L118.901 201.141L118.901 201.141C119.293 200.918 119.569 200.476 119.569 199.98V195.512C119.569 195.067 119.345 194.627 118.908 194.354L118.905 194.353L115.077 192.14L115.077 192.14C114.68 191.915 114.184 191.921 113.753 192.135L113.747 192.138L111.099 193.692L109.305 194.68L106.707 196.232C106.444 196.381 106.095 196.388 105.772 196.23L103.747 195.01L103.745 195.009C103.476 194.856 103.28 194.545 103.28 194.195V191.844C103.28 191.537 103.433 191.226 103.749 191.028L105.775 189.855L105.776 189.855C106.039 189.705 106.388 189.698 106.711 189.857L108.737 191.076L108.739 191.078C109.008 191.231 109.204 191.541 109.204 191.891V193.791L111.401 192.524V190.809C111.401 190.365 111.177 189.924 110.74 189.652L110.737 189.65L106.957 187.438L106.956 187.438ZM101.947 190.045L101.941 190.048C101.641 190.198 101.486 190.498 101.486 190.809V195.23C101.486 195.537 101.639 195.847 101.955 196.046L105.775 198.254L105.776 198.254C106.039 198.403 106.389 198.41 106.713 198.251L109.304 196.749L111.098 195.715L113.696 194.21L113.696 194.209C114.092 193.984 114.589 193.99 115.019 194.204L115.025 194.207L117.06 195.385L117.06 195.385C117.452 195.609 117.728 196.05 117.728 196.547V198.898C117.728 199.343 117.504 199.783 117.066 200.056L117.065 200.057L115.078 201.234L115.077 201.235C114.68 201.461 114.184 201.455 113.753 201.241L113.748 201.238L111.713 200.06L111.713 200.059C111.321 199.836 111.045 199.394 111.045 198.898V197.741L109.654 198.543V199.98C109.654 200.286 109.807 200.597 110.123 200.795L113.943 203.003L113.944 203.003C114.207 203.153 114.558 203.16 114.881 203.001L118.7 200.793L118.701 200.793C118.97 200.64 119.166 200.329 119.166 199.98V195.512C119.166 195.205 119.013 194.895 118.697 194.696L114.877 192.488L114.876 192.488C114.613 192.339 114.263 192.332 113.94 192.491L111.299 194.04L109.506 195.028L106.91 196.579L106.908 196.58C106.512 196.805 106.015 196.799 105.585 196.585L105.578 196.581L103.543 195.356C103.152 195.132 102.877 194.691 102.877 194.195V191.844C102.877 191.399 103.101 190.958 103.538 190.686L103.541 190.685L105.575 189.507L105.575 189.507C105.972 189.281 106.468 189.287 106.899 189.501L106.906 189.505L108.941 190.731C109.332 190.954 109.607 191.395 109.607 191.891V193.095L110.998 192.293V190.809C110.998 190.503 110.845 190.192 110.528 189.993L106.755 187.785C106.492 187.636 106.142 187.629 105.818 187.788L101.947 190.045Z" fill="#B8C2D1"/>
<path fill-rule="evenodd" clip-rule="evenodd" d="M475.777 275.99L475.792 270.726L478.397 269.186V277.545L471.301 281.704V278.622L475.777 275.99ZM472.114 279.086L476.589 276.455L476.603 271.19L477.584 270.61V277.079L472.114 280.286V279.086ZM476.604 264.997L474.774 263.92L475.791 263.323L477.586 264.384V266.525L476.604 267.105V264.997ZM475.792 268.529L478.398 266.988V263.92L475.792 262.38L473.172 263.92L475.792 265.461V268.529ZM466.825 281.267L469.432 279.726V282.793L466.825 284.334L464.206 282.793V279.726L466.825 281.267ZM465.019 281.146L466.826 282.21L468.62 281.15V282.33L466.824 283.391L465.019 282.328V281.146ZM457.861 268.529L455.241 266.988V263.92L457.861 262.38L460.468 263.92L457.861 265.461V268.529ZM457.048 267.108V264.998L458.871 263.92L457.86 263.323L456.054 264.385V266.523L457.048 267.108ZM462.338 265.012L466.827 267.656L471.289 265.012L473.906 266.553V269.634L469.418 272.266V277.543L466.811 279.07L464.204 277.543V272.266L459.716 269.634L459.73 266.553H459.719L462.338 265.012ZM460.541 267.012L462.338 265.954L466.828 268.6L471.29 265.955L473.094 267.017V269.169L468.605 271.801V277.078L466.811 278.128L465.017 277.078V271.801L460.531 269.17L460.541 267.012ZM457.05 276.455L461.523 279.085V280.284L456.052 277.078V270.609L457.035 271.19L457.05 276.455ZM457.847 270.726L457.861 275.99L462.335 278.62V281.702L455.24 277.543V269.185L457.847 270.726ZM466.825 260.186L462.337 262.831L459.73 261.29L466.825 257.117L473.908 261.29L471.301 262.831L466.825 260.186ZM471.301 261.887L466.826 259.243L462.337 261.888L461.33 261.292L466.825 258.06L472.309 261.291L471.301 261.887ZM469.432 263.92L466.825 265.461L464.206 263.92L466.825 262.38L469.432 263.92ZM467.836 263.92L466.824 264.518L465.808 263.92L466.824 263.323L467.836 263.92ZM473.095 274.433L472.114 275.008V273.821L473.095 273.241V274.433ZM473.908 274.899L471.301 276.425V273.358L473.908 271.817V274.899ZM460.543 274.433V273.241L461.524 273.821V275.008L460.543 274.433ZM459.73 274.899V271.817L462.337 273.358V276.425L459.73 274.899Z" fill="#B8C2D1"/>
<path fill-rule="evenodd" clip-rule="evenodd" d="M64.1813 285.191C64.2762 285.077 64.4258 285.024 64.5715 285.053L84.5619 288.96C84.637 288.975 84.7063 289.01 84.7621 289.062L89.5551 293.562C89.7095 293.707 89.7266 293.946 89.5944 294.112L75.2153 312.109C75.1248 312.223 74.9808 312.279 74.8374 312.258C74.6941 312.236 74.573 312.14 74.5199 312.005L64.1155 285.6C64.0611 285.462 64.0863 285.305 64.1813 285.191ZM65.4482 286.766L74.7085 310.267L76.6854 296.04L65.4482 286.766ZM77.4803 296.223L75.5039 310.446L88.2986 294.432L77.4803 296.223ZM88.3996 293.592L78.4466 295.239L84.4758 289.908L88.3996 293.592ZM83.5983 289.599L65.987 286.157L77.11 295.337L83.5983 289.599Z" fill="#B8C2D1"/>
<path fill-rule="evenodd" clip-rule="evenodd" d="M276.434 335.863L272.496 336.985L269.969 345.547H283.488C283.577 345.544 283.667 345.559 283.751 345.59C283.834 345.622 283.911 345.67 283.977 345.731C284.042 345.793 284.095 345.867 284.132 345.948C284.169 346.03 284.19 346.119 284.193 346.209V346.433L283.018 350.508C282.966 350.7 282.85 350.87 282.69 350.988C282.53 351.106 282.334 351.166 282.136 351.157H261.446L264.914 339.288L261.035 340.469L261.916 337.753L265.796 336.572L270.674 319.919C270.728 319.728 270.844 319.56 271.004 319.442C271.164 319.324 271.358 319.264 271.556 319.27H276.787C276.877 319.267 276.966 319.281 277.05 319.313C277.134 319.344 277.211 319.392 277.276 319.454C277.342 319.515 277.395 319.589 277.432 319.671C277.469 319.753 277.489 319.841 277.492 319.931V320.156L273.378 334.21L277.257 333.029L276.434 335.863ZM274.581 332.994L278.456 331.815L277.09 336.521L273.149 337.644L271.056 344.735H283.476C283.667 344.731 283.858 344.763 284.036 344.83C284.221 344.899 284.389 345.004 284.533 345.139C284.676 345.273 284.792 345.435 284.873 345.613C284.954 345.792 284.999 345.985 285.005 346.181L285.006 346.195V346.548L283.8 350.727C283.699 351.093 283.479 351.416 283.172 351.642C282.868 351.866 282.499 351.981 282.122 351.97H260.362L263.713 340.503L259.781 341.7L261.274 337.099L265.139 335.922L269.893 319.695C269.996 319.332 270.217 319.012 270.522 318.788C270.824 318.565 271.191 318.449 271.566 318.457H276.776C276.967 318.453 277.157 318.485 277.336 318.552C277.52 318.622 277.689 318.727 277.832 318.861C277.976 318.996 278.091 319.157 278.172 319.336C278.253 319.515 278.298 319.708 278.305 319.904L278.305 319.918V320.272L274.581 332.994Z" fill="#B8C2D1"/>
<path fill-rule="evenodd" clip-rule="evenodd" d="M136.505 60.0829L128.423 55.36L136.505 66.6256L144.592 55.3594L136.505 60.0829ZM147.478 52.7334L136.505 68.0192L125.538 52.7334L136.505 59.1419L147.478 52.7334ZM147.471 50.6763L136.505 32.6776L125.538 50.6763L136.505 57.0882L147.471 50.6763ZM146.347 50.3925L136.505 34.2393L126.662 50.3925L136.505 56.147L146.347 50.3925Z" fill="#B8C2D1"/>
<path fill-rule="evenodd" clip-rule="evenodd" d="M326.018 49.7704C325.9 49.7704 325.79 49.8177 325.71 49.8977L320.003 55.6294H350.035C350.152 55.6294 350.263 55.5821 350.342 55.5021L356.049 49.7704H326.018ZM325.703 27.328C325.801 27.2356 325.917 27.1936 326.018 27.1936H356.049L350.342 32.9253C350.263 33.0053 350.152 33.0525 350.035 33.0525H320.003L325.703 27.328ZM350.342 38.5369C350.263 38.457 350.152 38.4097 350.035 38.4097H320.003L325.71 44.1414C325.79 44.2213 325.9 44.2686 326.018 44.2686H356.049L350.342 38.5369ZM325.134 26.7476C325.374 26.5162 325.691 26.3812 326.018 26.3812H356.497C357.054 26.3812 357.333 27.0562 356.939 27.4516L350.918 33.4985C350.688 33.73 350.371 33.865 350.035 33.865H319.555C318.998 33.865 318.719 33.1899 319.113 32.7945L325.134 26.7476ZM325.134 49.3245C325.365 49.093 325.682 48.958 326.018 48.958H356.497C357.054 48.958 357.333 49.6331 356.939 50.0285L350.918 56.0753C350.688 56.3068 350.371 56.4418 350.035 56.4418H319.555C318.998 56.4418 318.719 55.7667 319.113 55.3713L325.134 49.3245ZM350.035 37.5972C350.371 37.5972 350.688 37.7323 350.918 37.9637L356.939 44.0106C357.333 44.406 357.054 45.0811 356.497 45.0811H326.018C325.682 45.0811 325.365 44.946 325.134 44.7146L319.113 38.6677C318.719 38.2723 318.998 37.5972 319.555 37.5972H350.035Z" fill="#B8C2D1"/>
<path d="M483.675 259.64C483.843 259.54 484.061 259.596 484.157 259.766C485.86 262.765 486.79 266.143 486.86 269.594C486.933 273.164 486.083 276.692 484.392 279.837C482.702 282.983 480.229 285.639 477.212 287.549C474.295 289.396 470.964 290.485 467.523 290.72C467.328 290.733 467.162 290.583 467.152 290.388C467.141 290.192 467.292 290.026 467.487 290.013C470.806 289.784 474.019 288.733 476.833 286.951C479.748 285.106 482.136 282.54 483.769 279.502C485.402 276.464 486.223 273.057 486.153 269.609C486.085 266.279 485.189 263.02 483.548 260.126C483.451 259.956 483.507 259.739 483.675 259.64Z" fill="#3E4A5D"/>
<path fill-rule="evenodd" clip-rule="evenodd" d="M317.378 189.793L317.378 189.794C317.122 191.643 316.525 192.945 315.734 193.853C314.945 194.758 313.915 195.326 312.693 195.628L310.688 196.122L312.492 197.126C314.254 198.107 315.492 199.299 316.112 200.813C316.731 202.325 316.787 204.287 315.925 206.919C314.873 210.136 313.151 211.768 310.943 212.494C308.66 213.246 305.738 213.071 302.232 212.361L301.458 212.205L299.753 219.512L297.178 218.825L298.871 211.568L298.11 211.366C297.04 211.081 295.948 210.78 294.823 210.454L293.999 210.215L292.296 217.523L289.724 216.837L291.439 209.473L290.685 209.267C290.306 209.163 289.92 209.055 289.528 208.946C288.934 208.78 288.329 208.612 287.724 208.45L283.216 207.248L284.656 203.699C284.904 203.768 285.194 203.849 285.483 203.929C285.863 204.034 286.246 204.138 286.534 204.212C286.676 204.249 286.803 204.28 286.897 204.301C286.94 204.31 286.997 204.322 287.05 204.33L287.052 204.33C287.058 204.331 287.068 204.333 287.083 204.334C287.858 204.512 288.509 204.341 289.001 203.961C289.472 203.597 289.723 203.097 289.851 202.757L289.87 202.707L294.552 182.627L294.556 182.556C294.586 181.99 294.516 181.28 294.126 180.623C293.737 179.968 293.085 179.456 292.128 179.178C292.12 179.174 292.113 179.171 292.11 179.17L292.108 179.169C292.053 179.145 291.993 179.126 291.951 179.112C291.856 179.081 291.727 179.044 291.586 179.005C291.298 178.926 290.913 178.825 290.532 178.728C290.269 178.661 290.006 178.595 289.773 178.536L290.505 175.397L298.871 177.595L300.566 170.329L303.14 171.015L301.471 178.172L302.252 178.363C303.366 178.635 304.478 178.907 305.558 179.195L306.368 179.411L308.022 172.317L310.598 173.004L308.915 180.221L309.589 180.469C312.162 181.417 314.287 182.568 315.676 184.065C317.029 185.524 317.72 187.348 317.378 189.793ZM309.499 204.298C309.153 205.785 308.325 206.794 307.21 207.406C306.129 207.998 304.833 208.189 303.554 208.183C301.024 208.173 298.244 207.387 296.568 206.914L296.531 206.903C296.225 206.817 295.96 206.742 295.735 206.682L294.973 206.48L297.62 195.133L298.431 195.35C298.701 195.422 299.035 195.502 299.43 195.597L299.469 195.606C301.201 196.022 303.959 196.684 306.139 197.921C307.243 198.548 308.263 199.357 308.919 200.417C309.592 201.504 309.848 202.8 309.499 204.298ZM310.781 190.01L310.781 190.01C310.437 191.487 309.618 192.467 308.525 193.035C307.469 193.584 306.223 193.717 305.034 193.67C303.054 193.592 300.962 192.994 299.69 192.63C299.445 192.56 299.231 192.498 299.054 192.451L298.293 192.248L300.727 181.811L301.537 182.027C301.617 182.048 301.706 182.071 301.803 182.094C301.956 182.132 302.128 182.173 302.317 182.217L302.32 182.218L302.32 182.218L302.321 182.218C303.609 182.522 305.646 183.003 307.36 183.868C308.435 184.411 309.474 185.145 310.154 186.161C310.856 187.207 311.135 188.491 310.781 190.01Z" fill="#3E4A5D"/>
<path fill-rule="evenodd" clip-rule="evenodd" d="M339.211 194.92C339.211 216.463 321.744 233.928 300.197 233.928C278.651 233.928 261.184 216.463 261.184 194.92C261.184 173.377 278.651 155.913 300.197 155.913C321.744 155.913 339.211 173.377 339.211 194.92ZM296.207 219.407L297.901 212.151C297.075 211.932 296.236 211.702 295.378 211.458L295.274 211.429C295.143 211.391 295.011 211.354 294.879 211.316C294.785 211.288 294.691 211.261 294.596 211.234L292.897 218.524L288.754 217.419L290.47 210.05C290.083 209.944 289.694 209.836 289.301 209.726C288.712 209.562 288.117 209.396 287.514 209.234L282.117 207.796L284.176 202.719C284.176 202.719 285.191 203.008 286.043 203.24C286.106 203.257 286.169 203.274 286.23 203.291C286.288 203.307 286.345 203.322 286.4 203.337C286.817 203.448 287.139 203.529 287.185 203.527C287.187 203.527 287.189 203.527 287.19 203.526L287.191 203.526L287.191 203.525C287.191 203.525 287.191 203.524 287.19 203.524C287.506 203.607 287.775 203.609 288.003 203.557C288.622 203.414 288.941 202.869 289.091 202.47L293.745 182.512C293.787 181.734 293.587 180.788 292.569 180.229C292.355 180.112 292.105 180.011 291.812 179.933C291.813 179.933 291.813 179.932 291.813 179.932C291.813 179.932 291.813 179.931 291.813 179.93C291.812 179.929 291.81 179.927 291.806 179.925C291.756 179.895 291.442 179.806 291.035 179.698C290.967 179.68 290.897 179.661 290.825 179.643C289.946 179.413 288.8 179.132 288.8 179.132L289.904 174.396L295.623 175.923C295.835 175.979 296.049 176.038 296.264 176.097C296.663 176.206 297.067 176.317 297.477 176.418C297.738 176.482 298.001 176.547 298.266 176.611L299.966 169.328L304.11 170.433L302.445 177.574C303.292 177.78 304.142 177.988 304.981 178.204C305.086 178.231 305.19 178.258 305.294 178.285C305.413 178.316 305.533 178.347 305.651 178.379L305.767 178.41L307.421 171.316L311.568 172.421L309.87 179.707C315.106 181.636 318.935 184.527 318.182 189.905C317.71 193.322 316.11 195.209 313.924 196.085C313.591 196.218 313.245 196.328 312.887 196.416C313.214 196.598 313.526 196.789 313.824 196.988C316.912 199.064 318.343 202.148 316.698 207.172C314.459 214.011 309.142 214.589 302.07 213.157L300.354 220.512L296.207 219.407ZM302.117 183.006L302.183 183.021C305.104 183.713 311.085 185.129 309.99 189.826C308.918 194.418 302.764 192.661 299.943 191.856C299.687 191.783 299.458 191.718 299.263 191.666L301.328 182.812C301.455 182.846 301.597 182.881 301.753 182.919C301.867 182.946 301.989 182.975 302.117 183.006ZM299.01 196.331C298.713 196.26 298.447 196.195 298.221 196.135L295.944 205.897C296.174 205.958 296.444 206.035 296.747 206.12L296.752 206.122C300.136 207.077 307.532 209.166 308.707 204.114C309.912 198.948 302.74 197.227 299.24 196.387L299.24 196.387C299.161 196.368 299.084 196.349 299.01 196.331Z" fill="#3E4A5D"/>
<path fill-rule="evenodd" clip-rule="evenodd" d="M190.472 -73.6344C195.686 -68.4217 204.139 -68.4217 209.352 -73.6344C214.566 -78.8471 214.566 -87.2985 209.352 -92.5112C204.139 -97.7239 195.686 -97.7239 190.472 -92.5112C185.259 -87.2985 185.259 -78.8471 190.472 -73.6344Z" fill="#3E4A5D"/>
<path fill-rule="evenodd" clip-rule="evenodd" d="M201.238 -85.261C201.786 -85.261 202.231 -85.7001 202.231 -86.2417C202.231 -86.7834 201.786 -87.2224 201.238 -87.2224C200.689 -87.2224 200.244 -86.7834 200.244 -86.2417C200.244 -85.7001 200.689 -85.261 201.238 -85.261ZM201.238 -79.3768C201.786 -79.3768 202.231 -79.8159 202.231 -80.3575C202.231 -80.8991 201.786 -81.3382 201.238 -81.3382C200.689 -81.3382 200.244 -80.8991 200.244 -80.3575C200.244 -79.8159 200.689 -79.3768 201.238 -79.3768ZM197.79 -79.3768C198.339 -79.3768 198.783 -79.8159 198.783 -80.3575C198.783 -80.8991 198.339 -81.3382 197.79 -81.3382C197.241 -81.3382 196.796 -80.8991 196.796 -80.3575C196.796 -79.8159 197.241 -79.3768 197.79 -79.3768ZM196.037 -82.3189C196.585 -82.3189 197.03 -82.758 197.03 -83.2996C197.03 -83.8412 196.585 -84.2803 196.037 -84.2803C195.488 -84.2803 195.043 -83.8412 195.043 -83.2996C195.043 -82.758 195.488 -82.3189 196.037 -82.3189ZM197.79 -85.261C198.339 -85.261 198.783 -85.7001 198.783 -86.2417C198.783 -86.7834 198.339 -87.2224 197.79 -87.2224C197.241 -87.2224 196.796 -86.7834 196.796 -86.2417C196.796 -85.7001 197.241 -85.261 197.79 -85.261ZM194.284 -85.8379C194.51 -85.8379 194.693 -86.0187 194.693 -86.2417C194.693 -86.4648 194.51 -86.6456 194.284 -86.6456C194.058 -86.6456 193.875 -86.4648 193.875 -86.2417C193.875 -86.0187 194.058 -85.8379 194.284 -85.8379ZM195.628 -89.5877C195.789 -89.5877 195.92 -89.7168 195.92 -89.8761C195.92 -90.0354 195.789 -90.1646 195.628 -90.1646C195.466 -90.1646 195.336 -90.0354 195.336 -89.8761C195.336 -89.7168 195.466 -89.5877 195.628 -89.5877ZM203.342 -89.5877C203.503 -89.5877 203.634 -89.7168 203.634 -89.8761C203.634 -90.0354 203.503 -90.1646 203.342 -90.1646C203.18 -90.1646 203.049 -90.0354 203.049 -89.8761C203.049 -89.7168 203.18 -89.5877 203.342 -89.5877ZM203.342 -76.4346C203.503 -76.4346 203.634 -76.5638 203.634 -76.7231C203.634 -76.8824 203.503 -77.0115 203.342 -77.0115C203.18 -77.0115 203.049 -76.8824 203.049 -76.7231C203.049 -76.5638 203.18 -76.4346 203.342 -76.4346ZM195.628 -76.4346C195.789 -76.4346 195.92 -76.5638 195.92 -76.7231C195.92 -76.8824 195.789 -77.0115 195.628 -77.0115C195.466 -77.0115 195.336 -76.8824 195.336 -76.7231C195.336 -76.5638 195.466 -76.4346 195.628 -76.4346ZM191.303 -78.4538C191.368 -78.4538 191.42 -78.5054 191.42 -78.5691C191.42 -78.6329 191.368 -78.6845 191.303 -78.6845C191.239 -78.6845 191.186 -78.6329 191.186 -78.5691C191.186 -78.5054 191.239 -78.4538 191.303 -78.4538ZM207.724 -78.4538C207.789 -78.4538 207.841 -78.5054 207.841 -78.5691C207.841 -78.6329 207.789 -78.6845 207.724 -78.6845C207.66 -78.6845 207.608 -78.6329 207.608 -78.5691C207.608 -78.5054 207.66 -78.4538 207.724 -78.4538ZM207.724 -87.857C207.789 -87.857 207.841 -87.9087 207.841 -87.9724C207.841 -88.0361 207.789 -88.0878 207.724 -88.0878C207.66 -88.0878 207.608 -88.0361 207.608 -87.9724C207.608 -87.9087 207.66 -87.857 207.724 -87.857ZM191.303 -87.857C191.368 -87.857 191.42 -87.9087 191.42 -87.9724C191.42 -88.0361 191.368 -88.0878 191.303 -88.0878C191.239 -88.0878 191.186 -88.0361 191.186 -87.9724C191.186 -87.9087 191.239 -87.857 191.303 -87.857ZM199.485 -92.5875C199.549 -92.5875 199.602 -92.6392 199.602 -92.7029C199.602 -92.7666 199.549 -92.8183 199.485 -92.8183C199.42 -92.8183 199.368 -92.7666 199.368 -92.7029C199.368 -92.6392 199.42 -92.5875 199.485 -92.5875ZM199.485 -73.781C199.549 -73.781 199.602 -73.8326 199.602 -73.8963C199.602 -73.9601 199.549 -74.0117 199.485 -74.0117C199.42 -74.0117 199.368 -73.9601 199.368 -73.8963C199.368 -73.8326 199.42 -73.781 199.485 -73.781ZM194.284 -79.9537C194.51 -79.9537 194.693 -80.1345 194.693 -80.3575C194.693 -80.5805 194.51 -80.7613 194.284 -80.7613C194.058 -80.7613 193.875 -80.5805 193.875 -80.3575C193.875 -80.1345 194.058 -79.9537 194.284 -79.9537ZM204.744 -79.9537C204.97 -79.9537 205.153 -80.1345 205.153 -80.3575C205.153 -80.5805 204.97 -80.7613 204.744 -80.7613C204.518 -80.7613 204.335 -80.5805 204.335 -80.3575C204.335 -80.1345 204.518 -79.9537 204.744 -79.9537ZM204.744 -85.8379C204.97 -85.8379 205.153 -86.0187 205.153 -86.2417C205.153 -86.4648 204.97 -86.6456 204.744 -86.6456C204.518 -86.6456 204.335 -86.4648 204.335 -86.2417C204.335 -86.0187 204.518 -85.8379 204.744 -85.8379ZM199.514 -88.78C199.74 -88.78 199.923 -88.9608 199.923 -89.1839C199.923 -89.4069 199.74 -89.5877 199.514 -89.5877C199.288 -89.5877 199.105 -89.4069 199.105 -89.1839C199.105 -88.9608 199.288 -88.78 199.514 -88.78ZM199.514 -77.0115C199.74 -77.0115 199.923 -77.1923 199.923 -77.4154C199.923 -77.6384 199.74 -77.8192 199.514 -77.8192C199.288 -77.8192 199.105 -77.6384 199.105 -77.4154C199.105 -77.1923 199.288 -77.0115 199.514 -77.0115ZM202.991 -82.3189C203.54 -82.3189 203.984 -82.758 203.984 -83.2996C203.984 -83.8412 203.54 -84.2803 202.991 -84.2803C202.442 -84.2803 201.997 -83.8412 201.997 -83.2996C201.997 -82.758 202.442 -82.3189 202.991 -82.3189ZM207.257 -83.0689C207.386 -83.0689 207.491 -83.1722 207.491 -83.2996C207.491 -83.4271 207.386 -83.5304 207.257 -83.5304C207.128 -83.5304 207.023 -83.4271 207.023 -83.2996C207.023 -83.1722 207.128 -83.0689 207.257 -83.0689ZM191.771 -83.0689C191.9 -83.0689 192.005 -83.1722 192.005 -83.2996C192.005 -83.4271 191.9 -83.5304 191.771 -83.5304C191.642 -83.5304 191.537 -83.4271 191.537 -83.2996C191.537 -83.1722 191.642 -83.0689 191.771 -83.0689ZM199.835 -92.7029C199.835 -92.5117 199.678 -92.3567 199.485 -92.3567C199.291 -92.3567 199.134 -92.5117 199.134 -92.7029C199.134 -92.894 199.291 -93.049 199.485 -93.049C199.678 -93.049 199.835 -92.894 199.835 -92.7029ZM196.154 -89.8761C196.154 -89.5894 195.918 -89.3569 195.628 -89.3569C195.337 -89.3569 195.102 -89.5894 195.102 -89.8761C195.102 -90.1629 195.337 -90.3953 195.628 -90.3953C195.918 -90.3953 196.154 -90.1629 196.154 -89.8761ZM201.238 -85.0303C201.916 -85.0303 202.465 -85.5727 202.465 -86.2417C202.465 -86.9108 201.916 -87.4532 201.238 -87.4532C200.56 -87.4532 200.011 -86.9108 200.011 -86.2417C200.011 -85.5727 200.56 -85.0303 201.238 -85.0303ZM201.238 -79.146C201.916 -79.146 202.465 -79.6884 202.465 -80.3575C202.465 -81.0266 201.916 -81.5689 201.238 -81.5689C200.56 -81.5689 200.011 -81.0266 200.011 -80.3575C200.011 -79.6884 200.56 -79.146 201.238 -79.146ZM199.017 -80.3575C199.017 -79.6884 198.468 -79.146 197.79 -79.146C197.112 -79.146 196.563 -79.6884 196.563 -80.3575C196.563 -81.0266 197.112 -81.5689 197.79 -81.5689C198.468 -81.5689 199.017 -81.0266 199.017 -80.3575ZM196.037 -82.0881C196.715 -82.0881 197.264 -82.6305 197.264 -83.2996C197.264 -83.9687 196.715 -84.5111 196.037 -84.5111C195.359 -84.5111 194.81 -83.9687 194.81 -83.2996C194.81 -82.6305 195.359 -82.0881 196.037 -82.0881ZM199.017 -86.2417C199.017 -85.5727 198.468 -85.0303 197.79 -85.0303C197.112 -85.0303 196.563 -85.5727 196.563 -86.2417C196.563 -86.9108 197.112 -87.4532 197.79 -87.4532C198.468 -87.4532 199.017 -86.9108 199.017 -86.2417ZM194.284 -85.6072C194.639 -85.6072 194.926 -85.8913 194.926 -86.2417C194.926 -86.5922 194.639 -86.8763 194.284 -86.8763C193.929 -86.8763 193.641 -86.5922 193.641 -86.2417C193.641 -85.8913 193.929 -85.6072 194.284 -85.6072ZM203.342 -89.3569C203.632 -89.3569 203.868 -89.5894 203.868 -89.8761C203.868 -90.1629 203.632 -90.3953 203.342 -90.3953C203.051 -90.3953 202.816 -90.1629 202.816 -89.8761C202.816 -89.5894 203.051 -89.3569 203.342 -89.3569ZM203.868 -76.7231C203.868 -76.4363 203.632 -76.2039 203.342 -76.2039C203.051 -76.2039 202.816 -76.4363 202.816 -76.7231C202.816 -77.0098 203.051 -77.2423 203.342 -77.2423C203.632 -77.2423 203.868 -77.0098 203.868 -76.7231ZM195.628 -76.2039C195.918 -76.2039 196.154 -76.4363 196.154 -76.7231C196.154 -77.0098 195.918 -77.2423 195.628 -77.2423C195.337 -77.2423 195.102 -77.0098 195.102 -76.7231C195.102 -76.4363 195.337 -76.2039 195.628 -76.2039ZM191.654 -78.5691C191.654 -78.378 191.497 -78.223 191.303 -78.223C191.11 -78.223 190.953 -78.378 190.953 -78.5691C190.953 -78.7603 191.11 -78.9153 191.303 -78.9153C191.497 -78.9153 191.654 -78.7603 191.654 -78.5691ZM207.724 -78.223C207.918 -78.223 208.075 -78.378 208.075 -78.5691C208.075 -78.7603 207.918 -78.9153 207.724 -78.9153C207.531 -78.9153 207.374 -78.7603 207.374 -78.5691C207.374 -78.378 207.531 -78.223 207.724 -78.223ZM208.075 -87.9724C208.075 -87.7812 207.918 -87.6263 207.724 -87.6263C207.531 -87.6263 207.374 -87.7812 207.374 -87.9724C207.374 -88.1636 207.531 -88.3185 207.724 -88.3185C207.918 -88.3185 208.075 -88.1636 208.075 -87.9724ZM191.303 -87.6263C191.497 -87.6263 191.654 -87.7812 191.654 -87.9724C191.654 -88.1636 191.497 -88.3185 191.303 -88.3185C191.11 -88.3185 190.953 -88.1636 190.953 -87.9724C190.953 -87.7812 191.11 -87.6263 191.303 -87.6263ZM199.485 -73.5502C199.678 -73.5502 199.835 -73.7052 199.835 -73.8963C199.835 -74.0875 199.678 -74.2425 199.485 -74.2425C199.291 -74.2425 199.134 -74.0875 199.134 -73.8963C199.134 -73.7052 199.291 -73.5502 199.485 -73.5502ZM194.926 -80.3575C194.926 -80.007 194.639 -79.7229 194.284 -79.7229C193.929 -79.7229 193.641 -80.007 193.641 -80.3575C193.641 -80.708 193.929 -80.9921 194.284 -80.9921C194.639 -80.9921 194.926 -80.708 194.926 -80.3575ZM204.744 -79.7229C205.099 -79.7229 205.387 -80.007 205.387 -80.3575C205.387 -80.708 205.099 -80.9921 204.744 -80.9921C204.389 -80.9921 204.101 -80.708 204.101 -80.3575C204.101 -80.007 204.389 -79.7229 204.744 -79.7229ZM205.387 -86.2417C205.387 -85.8913 205.099 -85.6072 204.744 -85.6072C204.389 -85.6072 204.101 -85.8913 204.101 -86.2417C204.101 -86.5922 204.389 -86.8763 204.744 -86.8763C205.099 -86.8763 205.387 -86.5922 205.387 -86.2417ZM199.514 -88.5493C199.869 -88.5493 200.157 -88.8334 200.157 -89.1839C200.157 -89.5343 199.869 -89.8184 199.514 -89.8184C199.159 -89.8184 198.871 -89.5343 198.871 -89.1839C198.871 -88.8334 199.159 -88.5493 199.514 -88.5493ZM200.157 -77.4154C200.157 -77.0649 199.869 -76.7808 199.514 -76.7808C199.159 -76.7808 198.871 -77.0649 198.871 -77.4154C198.871 -77.7658 199.159 -78.0499 199.514 -78.0499C199.869 -78.0499 200.157 -77.7658 200.157 -77.4154ZM202.991 -82.0881C203.669 -82.0881 204.218 -82.6305 204.218 -83.2996C204.218 -83.9687 203.669 -84.5111 202.991 -84.5111C202.313 -84.5111 201.764 -83.9687 201.764 -83.2996C201.764 -82.6305 202.313 -82.0881 202.991 -82.0881ZM207.724 -83.2996C207.724 -83.0447 207.515 -82.8381 207.257 -82.8381C206.999 -82.8381 206.789 -83.0447 206.789 -83.2996C206.789 -83.5545 206.999 -83.7611 207.257 -83.7611C207.515 -83.7611 207.724 -83.5545 207.724 -83.2996ZM191.771 -82.8381C192.029 -82.8381 192.238 -83.0447 192.238 -83.2996C192.238 -83.5545 192.029 -83.7611 191.771 -83.7611C191.513 -83.7611 191.303 -83.5545 191.303 -83.2996C191.303 -83.0447 191.513 -82.8381 191.771 -82.8381ZM189.316 -83.2996C189.316 -83.1722 189.212 -83.0689 189.083 -83.0689C188.953 -83.0689 188.849 -83.1722 188.849 -83.2996C188.849 -83.4271 188.953 -83.5304 189.083 -83.5304C189.212 -83.5304 189.316 -83.4271 189.316 -83.2996ZM194.284 -74.0694C194.413 -74.0694 194.517 -74.1727 194.517 -74.3002C194.517 -74.4276 194.413 -74.5309 194.284 -74.5309C194.155 -74.5309 194.05 -74.4276 194.05 -74.3002C194.05 -74.1727 194.155 -74.0694 194.284 -74.0694ZM204.978 -74.3002C204.978 -74.1727 204.873 -74.0694 204.744 -74.0694C204.615 -74.0694 204.51 -74.1727 204.51 -74.3002C204.51 -74.4276 204.615 -74.5309 204.744 -74.5309C204.873 -74.5309 204.978 -74.4276 204.978 -74.3002ZM204.744 -92.0106C204.873 -92.0106 204.978 -92.1139 204.978 -92.2414C204.978 -92.3688 204.873 -92.4721 204.744 -92.4721C204.615 -92.4721 204.51 -92.3688 204.51 -92.2414C204.51 -92.1139 204.615 -92.0106 204.744 -92.0106ZM194.459 -92.2414C194.459 -92.1139 194.354 -92.0106 194.225 -92.0106C194.096 -92.0106 193.991 -92.1139 193.991 -92.2414C193.991 -92.3688 194.096 -92.4721 194.225 -92.4721C194.354 -92.4721 194.459 -92.3688 194.459 -92.2414ZM209.945 -83.0689C210.074 -83.0689 210.179 -83.1722 210.179 -83.2996C210.179 -83.4271 210.074 -83.5304 209.945 -83.5304C209.816 -83.5304 209.711 -83.4271 209.711 -83.2996C209.711 -83.1722 209.816 -83.0689 209.945 -83.0689Z" fill="#B8C2D1"/>
<path fill-rule="evenodd" clip-rule="evenodd" d="M297.901 212.151L296.207 219.407L300.354 220.512L302.07 213.157C309.142 214.589 314.459 214.011 316.698 207.172C318.343 202.148 316.912 199.064 313.824 196.988C313.526 196.789 313.214 196.598 312.887 196.416C313.245 196.328 313.591 196.218 313.924 196.085C316.11 195.209 317.71 193.322 318.182 189.905C318.935 184.527 315.106 181.636 309.87 179.707L311.568 172.421L307.421 171.316L305.767 178.41L305.651 178.379C305.533 178.347 305.413 178.316 305.294 178.285C305.19 178.258 305.086 178.231 304.981 178.204C304.142 177.988 303.292 177.78 302.445 177.574L304.11 170.433L299.966 169.328L298.266 176.611C298.001 176.547 297.738 176.482 297.477 176.418C297.067 176.317 296.663 176.206 296.264 176.097C296.049 176.038 295.835 175.979 295.623 175.923L289.904 174.396L288.8 179.132C288.8 179.132 289.946 179.413 290.825 179.643C290.897 179.661 290.967 179.68 291.035 179.698C291.442 179.806 291.756 179.895 291.806 179.925C291.81 179.927 291.812 179.929 291.813 179.93C291.813 179.931 291.813 179.932 291.813 179.932C291.813 179.932 291.813 179.933 291.812 179.933C292.105 180.011 292.355 180.112 292.569 180.229C293.587 180.788 293.787 181.734 293.745 182.512L289.091 202.47C288.941 202.869 288.622 203.414 288.003 203.557C287.775 203.609 287.506 203.607 287.19 203.524C287.191 203.524 287.191 203.525 287.191 203.525L287.191 203.526L287.19 203.526C287.189 203.527 287.187 203.527 287.185 203.527C287.139 203.529 286.817 203.448 286.4 203.337C286.345 203.322 286.288 203.307 286.23 203.291C286.169 203.274 286.106 203.257 286.043 203.24C285.191 203.008 284.176 202.719 284.176 202.719L282.117 207.796L287.514 209.234C288.117 209.396 288.712 209.562 289.301 209.726C289.694 209.836 290.083 209.944 290.47 210.05L288.754 217.419L292.897 218.524L294.596 211.234C294.691 211.261 294.785 211.288 294.879 211.316C295.011 211.354 295.143 211.391 295.274 211.429L295.378 211.458C296.236 211.702 297.075 211.932 297.901 212.151ZM317.378 189.794L317.378 189.793C317.72 187.348 317.029 185.524 315.676 184.065C314.287 182.568 312.162 181.417 309.589 180.469L308.915 180.221L310.598 173.004L308.022 172.317L306.368 179.411L305.558 179.195C304.478 178.907 303.366 178.635 302.252 178.363L301.471 178.172L303.14 171.015L300.566 170.329L298.871 177.595L290.505 175.397L289.773 178.536C290.006 178.595 290.269 178.661 290.532 178.728C290.913 178.825 291.298 178.926 291.586 179.005C291.727 179.044 291.856 179.081 291.951 179.112C291.993 179.126 292.053 179.145 292.108 179.169L292.11 179.17C292.113 179.171 292.12 179.174 292.128 179.178C293.085 179.456 293.737 179.968 294.126 180.623C294.516 181.28 294.586 181.99 294.556 182.556L294.552 182.627L289.87 202.707L289.851 202.757C289.723 203.097 289.472 203.597 289.001 203.961C288.509 204.341 287.858 204.512 287.083 204.334C287.068 204.333 287.058 204.331 287.052 204.33L287.05 204.33C286.997 204.322 286.94 204.31 286.897 204.301C286.803 204.28 286.676 204.249 286.534 204.212C286.246 204.138 285.863 204.034 285.483 203.929C285.194 203.849 284.904 203.768 284.656 203.699L283.216 207.248L287.724 208.45C288.329 208.612 288.934 208.78 289.528 208.946C289.92 209.055 290.306 209.163 290.685 209.267L291.439 209.473L289.724 216.837L292.296 217.523L293.999 210.215L294.823 210.454C295.948 210.78 297.04 211.081 298.11 211.366L298.871 211.568L297.178 218.825L299.753 219.512L301.458 212.205L302.232 212.361C305.738 213.071 308.66 213.246 310.943 212.494C313.151 211.768 314.873 210.136 315.925 206.919C316.787 204.287 316.731 202.325 316.112 200.813C315.492 199.299 314.254 198.107 312.492 197.126L310.688 196.122L312.693 195.628C313.915 195.326 314.945 194.758 315.734 193.853C316.525 192.945 317.122 191.643 317.378 189.794Z" fill="#B8C2D1"/>
<path fill-rule="evenodd" clip-rule="evenodd" d="M310.781 190.01L310.781 190.01C311.135 188.491 310.856 187.207 310.154 186.161C309.474 185.145 308.435 184.411 307.36 183.868C305.646 183.003 303.609 182.522 302.321 182.218L302.32 182.218L302.32 182.218L302.317 182.217C302.128 182.173 301.956 182.132 301.803 182.094C301.706 182.071 301.617 182.048 301.537 182.027L300.727 181.811L298.293 192.248L299.054 192.451C299.231 192.498 299.445 192.56 299.69 192.63C300.962 192.994 303.054 193.592 305.034 193.67C306.223 193.717 307.469 193.584 308.525 193.035C309.618 192.467 310.437 191.487 310.781 190.01ZM302.117 183.006L302.183 183.021C305.104 183.713 311.085 185.129 309.99 189.826C308.918 194.418 302.764 192.661 299.943 191.856C299.687 191.783 299.458 191.718 299.263 191.666L301.328 182.812C301.455 182.846 301.597 182.881 301.753 182.919C301.867 182.946 301.989 182.975 302.117 183.006Z" fill="#B8C2D1"/>
<path fill-rule="evenodd" clip-rule="evenodd" d="M307.21 207.406C308.325 206.794 309.153 205.785 309.499 204.298C309.848 202.8 309.592 201.504 308.919 200.417C308.263 199.357 307.243 198.548 306.139 197.921C303.959 196.684 301.201 196.022 299.469 195.606L299.43 195.597C299.035 195.502 298.701 195.422 298.431 195.35L297.62 195.133L294.973 206.48L295.735 206.682C295.96 206.742 296.225 206.817 296.531 206.903L296.568 206.914C298.244 207.387 301.024 208.173 303.554 208.183C304.833 208.189 306.129 207.998 307.21 207.406ZM298.221 196.135C298.447 196.195 298.713 196.26 299.01 196.331C299.084 196.349 299.161 196.368 299.24 196.387L299.24 196.387C302.74 197.227 309.912 198.948 308.707 204.114C307.532 209.166 300.136 207.077 296.752 206.122L296.747 206.12C296.444 206.035 296.174 205.958 295.944 205.897L298.221 196.135Z" fill="#B8C2D1"/>
</g>
</g>
<defs>
<clipPath id="clip0_2291_333">
<rect width="380" height="380" fill="white"/>
</clipPath>
</defs>
</svg>
