<svg width="2544" height="2506" viewBox="0 0 2544 2506" fill="none" xmlns="http://www.w3.org/2000/svg">
<circle cx="2303" cy="1826" r="33.5" fill="#B8C2D1" stroke="#B8C2D1"/>
<circle cx="2435" cy="1132.83" r="33.5" fill="#B8C2D1" stroke="#B8C2D1"/>
<circle cx="2434" cy="1503" r="33.5" fill="#B8C2D1" stroke="#B8C2D1"/>
<circle cx="1805.86" cy="1806.05" r="55.5" fill="#B8C2D1" stroke="#B8C2D1"/>
<circle cx="1506" cy="2378" r="33.5" fill="#B8C2D1" stroke="#B8C2D1"/>
<circle cx="1107" cy="2452" r="33.5" fill="#B8C2D1" stroke="#B8C2D1"/>
<circle cx="866" cy="2177" r="51.5" fill="#B8C2D1" stroke="#B8C2D1"/>
<path fill-rule="evenodd" clip-rule="evenodd" d="M439.708 2194.61C439.527 2194.37 439.349 2194.14 439.174 2193.9C439.152 2193.87 439.129 2193.84 439.107 2193.81C455.898 2181.55 469.204 2164.87 477.282 2145.5C477.289 2145.48 477.295 2145.47 477.302 2145.45C477.61 2145.58 477.916 2145.71 478.219 2145.85C489.297 2150.88 497 2162.04 497 2175C497 2192.67 482.673 2207 465 2207C454.715 2207 445.563 2202.15 439.708 2194.61Z" fill="#B8C2D1"/>
<circle cx="319" cy="1754.89" r="31.5" fill="#B8C2D1" stroke="#B8C2D1"/>
<circle cx="92.8564" cy="1564.97" r="33.5" fill="#B8C2D1" stroke="#B8C2D1"/>
<circle cx="951" cy="1499" r="51.5" fill="#B8C2D1" stroke="#B8C2D1"/>
<circle cx="1031" cy="744" r="33.5" fill="#B8C2D1" stroke="#B8C2D1"/>
<circle cx="1158" cy="211" r="50.5" fill="#B8C2D1" stroke="#B8C2D1"/>
<circle cx="1554.27" cy="110.977" r="33.5" fill="#B8C2D1" stroke="#B8C2D1"/>
<circle cx="1859" cy="415" r="50.5" fill="#B8C2D1" stroke="#B8C2D1"/>
<circle cx="2152" cy="484" r="33.5" fill="#B8C2D1" stroke="#B8C2D1"/>
<circle cx="2197" cy="867" r="50.5" fill="#B8C2D1" stroke="#B8C2D1"/>
<circle cx="1924" cy="1118" r="50.5" fill="#B8C2D1" stroke="#B8C2D1"/>
<circle cx="1806" cy="2324" r="50.5" fill="#B8C2D1" stroke="#B8C2D1"/>
<circle cx="849" cy="140" r="33.5" fill="#B8C2D1" stroke="#B8C2D1"/>
<circle cx="521.5" cy="310.5" r="34" fill="#B8C2D1" stroke="#B8C2D1"/>
<circle cx="283" cy="560" r="45.5" fill="#B8C2D1" stroke="#B8C2D1"/>
<circle cx="125.925" cy="866.537" r="33.5" fill="#B8C2D1" stroke="#B8C2D1"/>
<circle cx="267" cy="1115" r="33.5" fill="#B8C2D1" stroke="#B8C2D1"/>
<line x1="495.951" y1="2173.41" x2="814.661" y2="2176.07" stroke="#B8C2D1" stroke-width="4"/>
<line x1="493.629" y1="2187.29" x2="1076.83" y2="2439.02" stroke="#B8C2D1" stroke-width="4"/>
<line x1="899.619" y1="2215.21" x2="1086.14" y2="2426.56" stroke="#B8C2D1" stroke-width="4"/>
<line x1="1407.24" y1="2397.56" x2="1473.28" y2="2385.17" stroke="#B8C2D1" stroke-width="4"/>
<line x1="1140.01" y1="2447.57" x2="1296.07" y2="2418.41" stroke="#B8C2D1" stroke-width="4"/>
<line x1="915.063" y1="2192.14" x2="1192.83" y2="2279.85" stroke="#B8C2D1" stroke-width="4"/>
<line x1="1448.5" y1="2360.39" x2="1474.17" y2="2368.47" stroke="#B8C2D1" stroke-width="4"/>
<line x1="1466.67" y1="2314.92" x2="1488.84" y2="2349.93" stroke="#B8C2D1" stroke-width="4"/>
<line x1="978.128" y1="1542.32" x2="1360.25" y2="2146.65" stroke="#B8C2D1" stroke-width="4"/>
<line x1="1780.82" y1="1853.29" x2="1521.19" y2="2348.84" stroke="#B8C2D1" stroke-width="4"/>
<line x1="2275.48" y1="1844.83" x2="1532.36" y2="2360.97" stroke="#B8C2D1" stroke-width="4"/>
<line x1="1756.48" y1="2332.79" x2="1538.82" y2="2373.01" stroke="#B8C2D1" stroke-width="4"/>
<line x1="2207.42" y1="1921.11" x2="1839.44" y2="2287.08" stroke="#B8C2D1" stroke-width="4"/>
<line x1="2279.57" y1="1849.37" x2="2251.56" y2="1877.21" stroke="#B8C2D1" stroke-width="4"/>
<line x1="2269.86" y1="1824.24" x2="1861.04" y2="1808.06" stroke="#B8C2D1" stroke-width="4"/>
<line x1="2287.55" y1="1797.12" x2="1946.92" y2="1162.38" stroke="#B8C2D1" stroke-width="4"/>
<line x1="2299.45" y1="1793.52" x2="2205.22" y2="916.413" stroke="#B8C2D1" stroke-width="4"/>
<line x1="2309.06" y1="1793.28" x2="2428.15" y2="1164.73" stroke="#B8C2D1" stroke-width="4"/>
<line x1="2315.34" y1="1795.42" x2="2421.78" y2="1533.71" stroke="#B8C2D1" stroke-width="4"/>
<line x1="2432.56" y1="1470.15" x2="2434.16" y2="1165.77" stroke="#B8C2D1" stroke-width="4"/>
<line x1="2413.27" y1="1108" x2="2231.59" y2="903.461" stroke="#B8C2D1" stroke-width="4"/>
<line x1="2421.85" y1="1103.35" x2="2164.41" y2="514.704" stroke="#B8C2D1" stroke-width="4"/>
<line x1="2193.78" y1="817.416" x2="2155.78" y2="516.808" stroke="#B8C2D1" stroke-width="4"/>
<line x1="1907.15" y1="425.729" x2="2119.99" y2="477.763" stroke="#B8C2D1" stroke-width="4"/>
<line x1="1581.42" y1="128.968" x2="2124.22" y2="467.9" stroke="#B8C2D1" stroke-width="4"/>
<line x1="1576.02" y1="133.724" x2="1824.22" y2="379.705" stroke="#B8C2D1" stroke-width="4"/>
<line x1="1206.26" y1="199.298" x2="1522.67" y2="119.488" stroke="#B8C2D1" stroke-width="4"/>
<path fill-rule="evenodd" clip-rule="evenodd" d="M1108.92 202.245L1040.55 186.445L1040.55 186.445L1037.52 181.639L1109.82 198.347L1108.92 202.245Z" fill="#B8C2D1"/>
<line x1="1204.97" y1="225.671" x2="1811.62" y2="400.657" stroke="#B8C2D1" stroke-width="4"/>
<path fill-rule="evenodd" clip-rule="evenodd" d="M948.896 165.22L880.931 149.467L881.834 145.57L952.002 161.834L948.896 165.22Z" fill="#B8C2D1"/>
<line x1="882.143" y1="138.186" x2="1521.44" y2="112.85" stroke="#B8C2D1" stroke-width="4"/>
<line x1="819.882" y1="155.043" x2="550.341" y2="294.666" stroke="#B8C2D1" stroke-width="4"/>
<line x1="822.961" y1="158.893" x2="316.915" y2="531.144" stroke="#B8C2D1" stroke-width="4"/>
<line x1="496.776" y1="333.776" x2="311.35" y2="525.221" stroke="#B8C2D1" stroke-width="4"/>
<line x1="259.448" y1="596.895" x2="136.588" y2="836.53" stroke="#B8C2D1" stroke-width="4"/>
<line x1="278.733" y1="604.803" x2="269.049" y2="1082.3" stroke="#B8C2D1" stroke-width="4"/>
<line x1="120.71" y1="899.179" x2="94.8245" y2="1531.78" stroke="#B8C2D1" stroke-width="4"/>
<line x1="140.759" y1="896.234" x2="252.224" y2="1085.53" stroke="#B8C2D1" stroke-width="4"/>
<line x1="256.271" y1="1146.15" x2="105.512" y2="1534.93" stroke="#B8C2D1" stroke-width="4"/>
<line x1="106.94" y1="1594.69" x2="350.159" y2="1990.22" stroke="#B8C2D1" stroke-width="4"/>
<line x1="114.938" y1="1588.54" x2="295.081" y2="1735.94" stroke="#B8C2D1" stroke-width="4"/>
<line x1="271.255" y1="1147.11" x2="316.728" y2="1724.23" stroke="#B8C2D1" stroke-width="4"/>
<line x1="329.075" y1="1784.55" x2="400.702" y2="1992.5" stroke="#B8C2D1" stroke-width="4"/>
<line x1="343.375" y1="1773.79" x2="825.842" y2="2145.55" stroke="#B8C2D1" stroke-width="4"/>
<path fill-rule="evenodd" clip-rule="evenodd" d="M905.177 1520.29L593.009 1646.69L598.359 1640.21L903.676 1516.58L905.177 1520.29Z" fill="#B8C2D1"/>
<line x1="296.096" y1="1130.98" x2="907.894" y2="1474.37" stroke="#B8C2D1" stroke-width="4"/>
<line x1="802.992" y1="854.538" x2="1002.11" y2="757.556" stroke="#B8C2D1" stroke-width="4"/>
<line x1="296.656" y1="1101.22" x2="565.049" y2="970.549" stroke="#B8C2D1" stroke-width="4"/>
<line x1="326.643" y1="570.594" x2="999.736" y2="735.596" stroke="#B8C2D1" stroke-width="4"/>
<path fill-rule="evenodd" clip-rule="evenodd" d="M958.538 293.116L325.32 543.967L323.847 540.249L955.637 289.898L958.538 293.116Z" fill="#B8C2D1"/>
<path fill-rule="evenodd" clip-rule="evenodd" d="M1112.22 232.042L1045.48 258.534L1047.46 253.442L1110.75 228.324L1112.22 232.042Z" fill="#B8C2D1"/>
<path fill-rule="evenodd" clip-rule="evenodd" d="M539.879 1668.22L348.516 1745.68L347.015 1741.98L533.005 1666.69L539.879 1668.22Z" fill="#B8C2D1"/>
<line x1="873.185" y1="2126.85" x2="945.182" y2="1549.58" stroke="#B8C2D1" stroke-width="4"/>
<line x1="957.015" y1="1449.12" x2="1027.93" y2="776.292" stroke="#B8C2D1" stroke-width="4"/>
<line x1="998.138" y1="1481.2" x2="1877.67" y2="1135.78" stroke="#B8C2D1" stroke-width="4"/>
<path fill-rule="evenodd" clip-rule="evenodd" d="M1272.9 1616.98L997.595 1518.22L998.945 1514.46L1272.9 1612.73L1272.9 1616.98Z" fill="#B8C2D1"/>
<path fill-rule="evenodd" clip-rule="evenodd" d="M1756.11 1790.81L1621.07 1742.28L1623.76 1739L1757.47 1787.05L1756.11 1790.81Z" fill="#B8C2D1"/>
<line x1="1915.2" y1="1166.86" x2="1815.63" y2="1752.5" stroke="#B8C2D1" stroke-width="4"/>
<line x1="1878.72" y1="1099.05" x2="1061.59" y2="756.598" stroke="#B8C2D1" stroke-width="4"/>
<line x1="1039.26" y1="712.062" x2="1147.02" y2="259.793" stroke="#B8C2D1" stroke-width="4"/>
<line x1="1061.62" y1="732.258" x2="1812.47" y2="433.392" stroke="#B8C2D1" stroke-width="4"/>
<line x1="1919.04" y1="1068.93" x2="1863.78" y2="464.082" stroke="#B8C2D1" stroke-width="4"/>
<line x1="2169.7" y1="826.271" x2="1889.24" y2="454.894" stroke="#B8C2D1" stroke-width="4"/>
<line x1="2160.92" y1="900.869" x2="1960.15" y2="1084.48" stroke="#B8C2D1" stroke-width="4"/>
<line x1="153.886" y1="755.665" x2="48.8863" y2="1053.66" stroke="#7689A4" stroke-width="4"/>
<line x1="159.976" y1="756.311" x2="56.9757" y2="1411.31" stroke="#7689A4" stroke-width="4"/>
<line x1="37.9983" y1="1120.92" x2="49.9983" y2="1410.92" stroke="#7689A4" stroke-width="4"/>
<line x1="64.8062" y1="1474.14" x2="316.806" y2="2004.14" stroke="#7689A4" stroke-width="4"/>
<line x1="70.6292" y1="1470.84" x2="614.629" y2="2234.84" stroke="#7689A4" stroke-width="4"/>
<line x1="465.015" y1="2163.28" x2="606.015" y2="2246.28" stroke="#7689A4" stroke-width="4"/>
<line x1="551.981" y1="1667.72" x2="629.981" y2="2227.72" stroke="#7689A4" stroke-width="4"/>
<line x1="1321.23" y1="1725.58" x2="661.23" y2="2240.58" stroke="#7689A4" stroke-width="4"/>
<line x1="1192.92" y1="2284" x2="667.92" y2="2263" stroke="#7689A4" stroke-width="4"/>
<line x1="966.985" y1="2457.72" x2="662.985" y2="2278.72" stroke="#7689A4" stroke-width="4"/>
<line x1="1210.97" y1="2353.75" x2="1025.97" y2="2455.75" stroke="#7689A4" stroke-width="4"/>
<line x1="1689.13" y1="2429" x2="1030.12" y2="2470.93" stroke="#7689A4" stroke-width="4"/>
<line x1="1691.33" y1="2415.89" x2="1462.33" y2="2334.89" stroke="#7689A4" stroke-width="4"/>
<line x1="1977.61" y1="2079.9" x2="1465.61" y2="2244.9" stroke="#7689A4" stroke-width="4"/>
<line x1="1743.44" y1="2401.75" x2="1989.44" y2="2095.75" stroke="#7689A4" stroke-width="4"/>
<line x1="1748.75" y1="2406.44" x2="2216.75" y2="2031.44" stroke="#7689A4" stroke-width="4"/>
<line x1="2041.33" y1="2058.11" x2="2199.33" y2="2002.11" stroke="#7689A4" stroke-width="4"/>
<line x1="2023.18" y1="2039.18" x2="2268.91" y2="1494.34" stroke="#7689A4" stroke-width="4"/>
<line x1="2293" y1="1863.05" x2="2284.59" y2="1497.41" stroke="#7689A4" stroke-width="4"/>
<line x1="2326.63" y1="1868.8" x2="2502.05" y2="1304.74" stroke="#7689A4" stroke-width="4"/>
<line x1="2308.8" y1="1440.76" x2="2483.96" y2="1294.69" stroke="#7689A4" stroke-width="4"/>
<line x1="2294.35" y1="1430.9" x2="2451.1" y2="964.102" stroke="#7689A4" stroke-width="4"/>
<line x1="2508.24" y1="1236.96" x2="2472.84" y2="964.254" stroke="#7689A4" stroke-width="4"/>
<line x1="2446.58" y1="873.401" x2="2331.64" y2="621.583" stroke="#7689A4" stroke-width="4"/>
<line x1="2439.33" y1="877.389" x2="2076.65" y2="339.118" stroke="#7689A4" stroke-width="4"/>
<line x1="2428.81" y1="884.612" x2="1772.16" y2="306.84" stroke="#7689A4" stroke-width="4"/>
<line x1="2295.23" y1="566.377" x2="2081.15" y2="335.328" stroke="#7689A4" stroke-width="4"/>
<line x1="2023.17" y1="305.934" x2="1784.2" y2="278.001" stroke="#7689A4" stroke-width="4"/>
<line x1="2025.92" y1="296.842" x2="1412.66" y2="48.9069" stroke="#7689A4" stroke-width="4"/>
<line x1="1687.49" y1="242.216" x2="1409.1" y2="55.3542" stroke="#7689A4" stroke-width="4"/>
<line x1="1679.48" y1="268.468" x2="1053.95" y2="229.622" stroke="#7689A4" stroke-width="4"/>
<line x1="1349.22" y1="50.3583" x2="1045.65" y2="192.498" stroke="#7689A4" stroke-width="4"/>
<line x1="1346.9" y1="43.4789" x2="701.093" y2="184.242" stroke="#7689A4" stroke-width="4"/>
<line x1="912.802" y1="217.765" x2="701.233" y2="194.999" stroke="#7689A4" stroke-width="4"/>
<line x1="921.526" y1="261.571" x2="533.173" y2="516.061" stroke="#7689A4" stroke-width="4"/>
<line x1="652.168" y1="221.008" x2="511.469" y2="497.398" stroke="#7689A4" stroke-width="4"/>
<path fill-rule="evenodd" clip-rule="evenodd" d="M187.471 696.732L642.747 214.635L645.655 217.382L190.38 699.478L187.471 696.732Z" fill="#7689A4"/>
<line x1="442.525" y1="570.508" x2="195.127" y2="706.572" stroke="#7689A4" stroke-width="4"/>
<line x1="464.193" y1="592.959" x2="65.8072" y2="1414.36" stroke="#7689A4" stroke-width="4"/>
<line x1="569.478" y1="977.434" x2="76.0249" y2="1422.22" stroke="#7689A4" stroke-width="4"/>
<line x1="474.581" y1="1577.39" x2="82.8958" y2="1454.77" stroke="#7689A4" stroke-width="4"/>
<line x1="646.037" y1="1017.97" x2="555.213" y2="1527.53" stroke="#7689A4" stroke-width="4"/>
<line x1="514.002" y1="593.134" x2="603.293" y2="762.241" stroke="#7689A4" stroke-width="4"/>
<line x1="948.103" y1="287.693" x2="728.068" y2="762.035" stroke="#7689A4" stroke-width="4"/>
<line x1="1034.55" y1="274.541" x2="1553.38" y2="732.315" stroke="#7689A4" stroke-width="4"/>
<line x1="805.895" y1="880.033" x2="1510.36" y2="842.987" stroke="#7689A4" stroke-width="4"/>
<line x1="769.122" y1="974.904" x2="1322.77" y2="1458.42" stroke="#7689A4" stroke-width="4"/>
<line x1="612.631" y1="1599.91" x2="1270.88" y2="1598.81" stroke="#7689A4" stroke-width="4"/>
<line x1="1359.7" y1="2149.55" x2="1438" y2="1797.7" stroke="#7689A4" stroke-width="4"/>
<line x1="1532.14" y1="1396.81" x2="1632.15" y2="988.581" stroke="#7689A4" stroke-width="4"/>
<line x1="1631.67" y1="1731.2" x2="1984.96" y2="2047.59" stroke="#7689A4" stroke-width="4"/>
<line x1="1681.01" y1="1565.29" x2="2249.37" y2="1469.52" stroke="#7689A4" stroke-width="4"/>
<line x1="1775.41" y1="943.366" x2="2258.92" y2="1438.32" stroke="#7689A4" stroke-width="4"/>
<line x1="1816.13" y1="849.815" x2="2414.99" y2="912.395" stroke="#7689A4" stroke-width="4"/>
<line x1="1685.55" y1="687.563" x2="1725.78" y2="324.667" stroke="#7689A4" stroke-width="4"/>
<circle cx="2462" cy="918" r="47.5" fill="#7689A4" stroke="#7689A4"/>
<circle cx="2509" cy="1271.11" r="34.5" fill="#7689A4" stroke="#7689A4"/>
<circle cx="2283" cy="1463" r="34.5" fill="#7689A4" stroke="#7689A4"/>
<circle cx="2010" cy="2070" r="33.5" fill="#7689A4" stroke="#7689A4"/>
<circle cx="1722" cy="2427" r="33.5" fill="#7689A4" stroke="#7689A4"/>
<circle cx="997" cy="2472" r="33.5" fill="#7689A4" stroke="#7689A4"/>
<circle cx="51.1289" cy="1444.56" r="34.5" fill="#7689A4" stroke="#7689A4"/>
<circle cx="1380.62" cy="35.7785" r="34.5011" fill="#7689A4" stroke="#7689A4"/>
<circle cx="1732" cy="272" r="53.5" fill="#7689A4" stroke="#7689A4"/>
<circle cx="2057.53" cy="310.241" r="34.5" fill="#7689A4" stroke="#7689A4"/>
<circle cx="2318" cy="591" r="33.5" fill="#7689A4" stroke="#7689A4"/>
<circle cx="667.018" cy="190.018" r="34.5" fill="#7689A4" stroke="#7689A4"/>
<circle cx="489" cy="546" r="53.5" fill="#7689A4" stroke="#7689A4"/>
<circle cx="165" cy="723" r="34.5" fill="#7689A4" stroke="#7689A4"/>
<circle cx="36" cy="1086" r="35.5" fill="#7689A4" stroke="#7689A4"/>
<circle cx="635" cy="2261" r="33.5" fill="#7689A4" stroke="#7689A4"/>
<circle cx="542.116" cy="1597.12" r="66.7684" transform="rotate(45 542.116 1597.12)" fill="#EDEFF3" stroke="#7689A4" stroke-width="2.10294"/>
<mask id="path-161-inside-1_1501_1625" fill="white">
<path d="M523.854 1529.08C523.702 1528.52 524.037 1527.94 524.604 1527.79C534.094 1525.4 543.98 1524.97 553.648 1526.55C563.665 1528.19 573.218 1531.94 581.672 1537.55C590.127 1543.17 597.289 1550.52 602.683 1559.12C607.889 1567.42 611.333 1576.69 612.804 1586.37C612.892 1586.95 612.486 1587.48 611.907 1587.56V1587.56C611.328 1587.64 610.795 1587.24 610.707 1586.66C609.277 1577.28 605.937 1568.29 600.89 1560.24C595.656 1551.9 588.706 1544.77 580.502 1539.32C572.297 1533.87 563.027 1530.23 553.307 1528.64C543.935 1527.11 534.353 1527.52 525.152 1529.84C524.586 1529.98 524.005 1529.65 523.854 1529.08V1529.08Z"/>
</mask>
<path d="M523.854 1529.08C523.702 1528.52 524.037 1527.94 524.604 1527.79C534.094 1525.4 543.98 1524.97 553.648 1526.55C563.665 1528.19 573.218 1531.94 581.672 1537.55C590.127 1543.17 597.289 1550.52 602.683 1559.12C607.889 1567.42 611.333 1576.69 612.804 1586.37C612.892 1586.95 612.486 1587.48 611.907 1587.56V1587.56C611.328 1587.64 610.795 1587.24 610.707 1586.66C609.277 1577.28 605.937 1568.29 600.89 1560.24C595.656 1551.9 588.706 1544.77 580.502 1539.32C572.297 1533.87 563.027 1530.23 553.307 1528.64C543.935 1527.11 534.353 1527.52 525.152 1529.84C524.586 1529.98 524.005 1529.65 523.854 1529.08V1529.08Z" fill="#D9D9D9" fill-opacity="0.7" stroke="#7689A4" stroke-width="4.20588" stroke-linejoin="round" mask="url(#path-161-inside-1_1501_1625)"/>
<mask id="path-162-inside-2_1501_1625" fill="white">
<path d="M612.558 1597.12C613.142 1597.12 613.617 1597.59 613.608 1598.17C613.422 1610.8 609.895 1623.16 603.378 1633.98C596.679 1645.12 587.074 1654.21 575.595 1660.29C564.116 1666.38 551.196 1669.22 538.224 1668.51C525.252 1667.8 512.718 1663.58 501.968 1656.28C491.218 1648.99 482.659 1638.9 477.21 1627.11C471.761 1615.31 469.628 1602.26 471.04 1589.34C472.452 1576.43 477.356 1564.14 485.225 1553.81C492.88 1543.75 503.06 1535.91 514.723 1531.07C515.263 1530.85 515.878 1531.11 516.094 1531.66V1531.66C516.31 1532.2 516.044 1532.81 515.505 1533.04C504.2 1537.73 494.332 1545.34 486.909 1555.09C479.273 1565.12 474.514 1577.04 473.144 1589.57C471.773 1602.11 473.843 1614.77 479.131 1626.22C484.419 1637.66 492.725 1647.45 503.157 1654.53C513.588 1661.61 525.751 1665.71 538.34 1666.4C550.928 1667.08 563.465 1664.33 574.604 1658.42C585.743 1652.52 595.064 1643.69 601.565 1632.89C607.883 1622.39 611.305 1610.41 611.492 1598.17C611.501 1597.59 611.974 1597.12 612.558 1597.12V1597.12Z"/>
</mask>
<path d="M612.558 1597.12C613.142 1597.12 613.617 1597.59 613.608 1598.17C613.422 1610.8 609.895 1623.16 603.378 1633.98C596.679 1645.12 587.074 1654.21 575.595 1660.29C564.116 1666.38 551.196 1669.22 538.224 1668.51C525.252 1667.8 512.718 1663.58 501.968 1656.28C491.218 1648.99 482.659 1638.9 477.21 1627.11C471.761 1615.31 469.628 1602.26 471.04 1589.34C472.452 1576.43 477.356 1564.14 485.225 1553.81C492.88 1543.75 503.06 1535.91 514.723 1531.07C515.263 1530.85 515.878 1531.11 516.094 1531.66V1531.66C516.31 1532.2 516.044 1532.81 515.505 1533.04C504.2 1537.73 494.332 1545.34 486.909 1555.09C479.273 1565.12 474.514 1577.04 473.144 1589.57C471.773 1602.11 473.843 1614.77 479.131 1626.22C484.419 1637.66 492.725 1647.45 503.157 1654.53C513.588 1661.61 525.751 1665.71 538.34 1666.4C550.928 1667.08 563.465 1664.33 574.604 1658.42C585.743 1652.52 595.064 1643.69 601.565 1632.89C607.883 1622.39 611.305 1610.41 611.492 1598.17C611.501 1597.59 611.974 1597.12 612.558 1597.12V1597.12Z" fill="#D9D9D9" fill-opacity="0.7" stroke="#7689A4" stroke-width="4.20588" stroke-linejoin="round" mask="url(#path-162-inside-2_1501_1625)"/>
<path fill-rule="evenodd" clip-rule="evenodd" d="M525.526 1557.94C523.576 1556.83 521.13 1556.86 519.012 1557.92L518.982 1557.93L499.923 1569.04C497.702 1570.17 496.616 1572.38 496.616 1574.54V1596.31C496.616 1598.5 497.719 1600.67 499.871 1602.01L499.885 1602.01L518.728 1612.91L518.731 1612.91C520.681 1614.02 523.127 1613.99 525.245 1612.93L525.273 1612.92L538.081 1605.5L546.913 1600.4L559.691 1593L559.695 1592.99C560.991 1592.26 562.714 1592.23 564.306 1593.01L574.276 1598.78L574.279 1598.78C575.603 1599.54 576.568 1601.07 576.568 1602.79V1614.37C576.568 1615.88 575.815 1617.41 574.254 1618.38L564.51 1624.16C563.214 1624.9 561.492 1624.93 559.902 1624.15L549.933 1618.37L549.93 1618.37C548.606 1617.62 547.64 1616.09 547.64 1614.37V1605.24L536.825 1611.48V1619.69C536.825 1621.88 537.928 1624.05 540.08 1625.39L540.093 1625.4L558.936 1636.29L558.939 1636.29C560.889 1637.4 563.335 1637.37 565.453 1636.32L565.481 1636.3L584.328 1625.41L584.33 1625.41C586.259 1624.31 587.616 1622.13 587.616 1619.69V1597.7C587.616 1595.51 586.513 1593.34 584.361 1592L584.347 1591.99L565.505 1581.1L565.502 1581.09C563.552 1579.98 561.106 1580.01 558.988 1581.07L558.957 1581.08L545.924 1588.73L537.089 1593.6L524.3 1601.24C523.007 1601.97 521.289 1602.01 519.701 1601.23L509.732 1595.22L509.721 1595.22C508.397 1594.46 507.432 1592.94 507.432 1591.21V1579.64C507.432 1578.13 508.184 1576.6 509.742 1575.62L519.715 1569.84L519.718 1569.84C521.012 1569.11 522.733 1569.07 524.323 1569.85L534.292 1575.86L534.303 1575.86C535.627 1576.62 536.592 1578.15 536.592 1579.87V1589.22L547.408 1582.98V1574.54C547.408 1572.35 546.305 1570.18 544.153 1568.84L544.141 1568.84L525.531 1557.94L525.526 1557.94ZM500.87 1570.78L500.841 1570.8C499.364 1571.53 498.6 1573.01 498.6 1574.54V1596.31C498.6 1597.82 499.352 1599.35 500.91 1600.32L519.715 1611.19L519.718 1611.19C521.014 1611.93 522.738 1611.96 524.33 1611.18L537.087 1603.79L545.919 1598.69L558.703 1591.28L558.707 1591.28C560.657 1590.17 563.103 1590.2 565.221 1591.26L565.249 1591.27L575.263 1597.07L575.267 1597.07C577.195 1598.17 578.552 1600.35 578.552 1602.79V1614.37C578.552 1616.56 577.449 1618.73 575.297 1620.06L575.288 1620.07L565.509 1625.87L565.502 1625.87C563.552 1626.98 561.106 1626.95 558.988 1625.9L558.96 1625.89L548.945 1620.08L548.942 1620.08C547.013 1618.98 545.657 1616.81 545.657 1614.37V1608.67L538.808 1612.62V1619.69C538.808 1621.2 539.56 1622.73 541.118 1623.71L559.924 1634.58L559.926 1634.58C561.222 1635.32 562.947 1635.35 564.539 1634.56L583.34 1623.7L583.343 1623.7C584.667 1622.94 585.633 1621.41 585.633 1619.69V1597.7C585.633 1596.19 584.881 1594.66 583.323 1593.68L564.517 1582.81L564.515 1582.81C563.219 1582.07 561.496 1582.04 559.905 1582.82L546.908 1590.45L538.079 1595.31L525.302 1602.95L525.293 1602.95C523.343 1604.06 520.897 1604.03 518.779 1602.98L518.744 1602.96L508.726 1596.93C506.801 1595.83 505.448 1593.65 505.448 1591.21V1579.64C505.448 1577.45 506.551 1575.28 508.703 1573.94L508.717 1573.93L518.728 1568.13L518.731 1568.13C520.681 1567.02 523.127 1567.05 525.245 1568.1L525.28 1568.12L535.298 1574.15C537.223 1575.26 538.576 1577.43 538.576 1579.87V1585.79L545.424 1581.85V1574.54C545.424 1573.03 544.672 1571.5 543.112 1570.53L524.536 1559.65C523.241 1558.92 521.518 1558.89 519.927 1559.67L500.87 1570.78Z" fill="#222934"/>
<circle cx="983.117" cy="226.117" r="66.7684" transform="rotate(45 983.117 226.117)" fill="#EDEFF3" stroke="#7689A4" stroke-width="2.10294"/>
<mask id="path-165-inside-3_1501_1625" fill="white">
<path d="M924.512 265.199C924.026 265.523 923.368 265.392 923.051 264.901C917.282 255.968 913.577 245.856 912.209 235.3C910.797 224.395 911.919 213.312 915.488 202.911C919.056 192.51 924.976 183.072 932.786 175.332C940.597 167.591 950.087 161.757 960.519 158.281C970.952 154.806 982.045 153.784 992.937 155.294C1003.83 156.804 1014.23 160.806 1023.32 166.989C1032.41 173.172 1039.96 181.368 1045.37 190.942C1050.6 200.208 1053.7 210.522 1054.44 221.131C1054.48 221.714 1054.04 222.213 1053.45 222.245V222.245C1052.87 222.277 1052.37 221.83 1052.33 221.247C1051.61 210.964 1048.6 200.966 1043.52 191.983C1038.27 182.693 1030.95 174.739 1022.13 168.739C1013.3 162.739 1003.22 158.856 992.646 157.39C982.077 155.925 971.312 156.917 961.188 160.289C951.065 163.662 941.855 169.324 934.276 176.835C926.697 184.346 920.953 193.505 917.489 203.598C914.026 213.691 912.938 224.446 914.308 235.029C915.634 245.261 919.224 255.064 924.812 263.727C925.129 264.218 924.998 264.875 924.512 265.199V265.199Z"/>
</mask>
<path d="M924.512 265.199C924.026 265.523 923.368 265.392 923.051 264.901C917.282 255.968 913.577 245.856 912.209 235.3C910.797 224.395 911.919 213.312 915.488 202.911C919.056 192.51 924.976 183.072 932.786 175.332C940.597 167.591 950.087 161.757 960.519 158.281C970.952 154.806 982.045 153.784 992.937 155.294C1003.83 156.804 1014.23 160.806 1023.32 166.989C1032.41 173.172 1039.96 181.368 1045.37 190.942C1050.6 200.208 1053.7 210.522 1054.44 221.131C1054.48 221.714 1054.04 222.213 1053.45 222.245V222.245C1052.87 222.277 1052.37 221.83 1052.33 221.247C1051.61 210.964 1048.6 200.966 1043.52 191.983C1038.27 182.693 1030.95 174.739 1022.13 168.739C1013.3 162.739 1003.22 158.856 992.646 157.39C982.077 155.925 971.312 156.917 961.188 160.289C951.065 163.662 941.855 169.324 934.276 176.835C926.697 184.346 920.953 193.505 917.489 203.598C914.026 213.691 912.938 224.446 914.308 235.029C915.634 245.261 919.224 255.064 924.812 263.727C925.129 264.218 924.998 264.875 924.512 265.199V265.199Z" fill="#D9D9D9" fill-opacity="0.7" stroke="#7689A4" stroke-width="4.20588" stroke-linejoin="round" mask="url(#path-165-inside-3_1501_1625)"/>
<mask id="path-166-inside-4_1501_1625" fill="white">
<path d="M1053.56 226.116C1054.14 226.116 1054.62 226.59 1054.61 227.175C1054.39 241.726 1049.74 255.875 1041.26 267.724C1032.58 279.86 1020.32 288.975 1006.19 293.791C992.067 298.607 976.789 298.882 962.5 294.579C948.549 290.378 936.222 282.017 927.162 270.628C926.799 270.171 926.885 269.506 927.347 269.149V269.149C927.81 268.792 928.474 268.878 928.838 269.335C937.628 280.375 949.582 288.479 963.11 292.553C976.976 296.728 991.802 296.461 1005.51 291.788C1019.21 287.114 1031.12 278.269 1039.54 266.493C1047.76 255.003 1052.28 241.285 1052.49 227.175C1052.5 226.59 1052.97 226.116 1053.56 226.116V226.116Z"/>
</mask>
<path d="M1053.56 226.116C1054.14 226.116 1054.62 226.59 1054.61 227.175C1054.39 241.726 1049.74 255.875 1041.26 267.724C1032.58 279.86 1020.32 288.975 1006.19 293.791C992.067 298.607 976.789 298.882 962.5 294.579C948.549 290.378 936.222 282.017 927.162 270.628C926.799 270.171 926.885 269.506 927.347 269.149V269.149C927.81 268.792 928.474 268.878 928.838 269.335C937.628 280.375 949.582 288.479 963.11 292.553C976.976 296.728 991.802 296.461 1005.51 291.788C1019.21 287.114 1031.12 278.269 1039.54 266.493C1047.76 255.003 1052.28 241.285 1052.49 227.175C1052.5 226.59 1052.97 226.116 1053.56 226.116V226.116Z" fill="#D9D9D9" fill-opacity="0.7" stroke="#7689A4" stroke-width="4.20588" stroke-linejoin="round" mask="url(#path-166-inside-4_1501_1625)"/>
<mask id="path-167-inside-5_1501_1625" fill="white">
<path fill-rule="evenodd" clip-rule="evenodd" d="M990.986 216.343C993.687 216.343 995.877 214.181 995.877 211.515C995.877 208.848 993.687 206.686 990.986 206.686C988.285 206.686 986.096 208.848 986.096 211.515C986.096 214.181 988.285 216.343 990.986 216.343ZM990.986 245.314C993.687 245.314 995.877 243.152 995.877 240.485C995.877 237.819 993.687 235.657 990.986 235.657C988.285 235.657 986.096 237.819 986.096 240.485C986.096 243.152 988.285 245.314 990.986 245.314ZM974.014 245.314C976.715 245.314 978.904 243.152 978.904 240.485C978.904 237.819 976.715 235.657 974.014 235.657C971.313 235.657 969.123 237.819 969.123 240.485C969.123 243.152 971.313 245.314 974.014 245.314ZM965.384 230.828C968.084 230.828 970.274 228.667 970.274 226C970.274 223.333 968.084 221.172 965.384 221.172C962.683 221.172 960.493 223.333 960.493 226C960.493 228.667 962.683 230.828 965.384 230.828ZM974.014 216.343C976.715 216.343 978.904 214.181 978.904 211.515C978.904 208.848 976.715 206.686 974.014 206.686C971.313 206.686 969.123 208.848 969.123 211.515C969.123 214.181 971.313 216.343 974.014 216.343ZM956.753 213.503C957.866 213.503 958.767 212.613 958.767 211.515C958.767 210.417 957.866 209.527 956.753 209.527C955.641 209.527 954.74 210.417 954.74 211.515C954.74 212.613 955.641 213.503 956.753 213.503ZM963.37 195.041C964.164 195.041 964.808 194.406 964.808 193.621C964.808 192.837 964.164 192.201 963.37 192.201C962.575 192.201 961.932 192.837 961.932 193.621C961.932 194.406 962.575 195.041 963.37 195.041ZM1001.34 195.041C1002.14 195.041 1002.78 194.406 1002.78 193.621C1002.78 192.837 1002.14 192.201 1001.34 192.201C1000.55 192.201 999.904 192.837 999.904 193.621C999.904 194.406 1000.55 195.041 1001.34 195.041ZM1001.34 259.799C1002.14 259.799 1002.78 259.163 1002.78 258.379C1002.78 257.594 1002.14 256.959 1001.34 256.959C1000.55 256.959 999.904 257.594 999.904 258.379C999.904 259.163 1000.55 259.799 1001.34 259.799ZM963.37 259.799C964.164 259.799 964.808 259.163 964.808 258.379C964.808 257.594 964.164 256.959 963.37 256.959C962.575 256.959 961.932 257.594 961.932 258.379C961.932 259.163 962.575 259.799 963.37 259.799ZM942.082 249.858C942.4 249.858 942.658 249.604 942.658 249.29C942.658 248.976 942.4 248.722 942.082 248.722C941.764 248.722 941.507 248.976 941.507 249.29C941.507 249.604 941.764 249.858 942.082 249.858ZM1022.92 249.858C1023.24 249.858 1023.49 249.604 1023.49 249.29C1023.49 248.976 1023.24 248.722 1022.92 248.722C1022.6 248.722 1022.34 248.976 1022.34 249.29C1022.34 249.604 1022.6 249.858 1022.92 249.858ZM1022.92 203.562C1023.24 203.562 1023.49 203.308 1023.49 202.994C1023.49 202.68 1023.24 202.426 1022.92 202.426C1022.6 202.426 1022.34 202.68 1022.34 202.994C1022.34 203.308 1022.6 203.562 1022.92 203.562ZM942.082 203.562C942.4 203.562 942.658 203.308 942.658 202.994C942.658 202.68 942.4 202.426 942.082 202.426C941.764 202.426 941.507 202.68 941.507 202.994C941.507 203.308 941.764 203.562 942.082 203.562ZM982.356 180.272C982.674 180.272 982.932 180.018 982.932 179.704C982.932 179.39 982.674 179.136 982.356 179.136C982.038 179.136 981.781 179.39 981.781 179.704C981.781 180.018 982.038 180.272 982.356 180.272ZM982.356 272.864C982.674 272.864 982.932 272.61 982.932 272.296C982.932 271.982 982.674 271.728 982.356 271.728C982.038 271.728 981.781 271.982 981.781 272.296C981.781 272.61 982.038 272.864 982.356 272.864ZM956.753 242.473C957.866 242.473 958.767 241.583 958.767 240.485C958.767 239.387 957.866 238.497 956.753 238.497C955.641 238.497 954.74 239.387 954.74 240.485C954.74 241.583 955.641 242.473 956.753 242.473ZM1008.25 242.473C1009.36 242.473 1010.26 241.583 1010.26 240.485C1010.26 239.387 1009.36 238.497 1008.25 238.497C1007.13 238.497 1006.23 239.387 1006.23 240.485C1006.23 241.583 1007.13 242.473 1008.25 242.473ZM1008.25 213.503C1009.36 213.503 1010.26 212.613 1010.26 211.515C1010.26 210.417 1009.36 209.527 1008.25 209.527C1007.13 209.527 1006.23 210.417 1006.23 211.515C1006.23 212.613 1007.13 213.503 1008.25 213.503ZM982.5 199.018C983.612 199.018 984.514 198.128 984.514 197.03C984.514 195.932 983.612 195.041 982.5 195.041C981.388 195.041 980.486 195.932 980.486 197.03C980.486 198.128 981.388 199.018 982.5 199.018ZM982.5 256.959C983.612 256.959 984.514 256.068 984.514 254.97C984.514 253.872 983.612 252.982 982.5 252.982C981.388 252.982 980.486 253.872 980.486 254.97C980.486 256.068 981.388 256.959 982.5 256.959ZM999.616 230.828C1002.32 230.828 1004.51 228.667 1004.51 226C1004.51 223.333 1002.32 221.172 999.616 221.172C996.916 221.172 994.726 223.333 994.726 226C994.726 228.667 996.916 230.828 999.616 230.828ZM1020.62 227.136C1021.25 227.136 1021.77 226.627 1021.77 226C1021.77 225.373 1021.25 224.864 1020.62 224.864C1019.98 224.864 1019.47 225.373 1019.47 226C1019.47 226.627 1019.98 227.136 1020.62 227.136ZM944.384 227.136C945.019 227.136 945.534 226.627 945.534 226C945.534 225.373 945.019 224.864 944.384 224.864C943.748 224.864 943.233 225.373 943.233 226C943.233 226.627 943.748 227.136 944.384 227.136ZM984.082 179.704C984.082 180.645 983.309 181.408 982.356 181.408C981.403 181.408 980.63 180.645 980.63 179.704C980.63 178.763 981.403 178 982.356 178C983.309 178 984.082 178.763 984.082 179.704ZM965.959 193.621C965.959 195.033 964.8 196.178 963.37 196.178C961.94 196.178 960.781 195.033 960.781 193.621C960.781 192.21 961.94 191.065 963.37 191.065C964.8 191.065 965.959 192.21 965.959 193.621ZM990.986 217.479C994.323 217.479 997.027 214.809 997.027 211.515C997.027 208.221 994.323 205.55 990.986 205.55C987.65 205.55 984.945 208.221 984.945 211.515C984.945 214.809 987.65 217.479 990.986 217.479ZM990.986 246.45C994.323 246.45 997.027 243.779 997.027 240.485C997.027 237.191 994.323 234.521 990.986 234.521C987.65 234.521 984.945 237.191 984.945 240.485C984.945 243.779 987.65 246.45 990.986 246.45ZM980.055 240.485C980.055 243.779 977.35 246.45 974.014 246.45C970.677 246.45 967.973 243.779 967.973 240.485C967.973 237.191 970.677 234.521 974.014 234.521C977.35 234.521 980.055 237.191 980.055 240.485ZM965.384 231.964C968.72 231.964 971.425 229.294 971.425 226C971.425 222.706 968.72 220.036 965.384 220.036C962.047 220.036 959.342 222.706 959.342 226C959.342 229.294 962.047 231.964 965.384 231.964ZM980.055 211.515C980.055 214.809 977.35 217.479 974.014 217.479C970.677 217.479 967.973 214.809 967.973 211.515C967.973 208.221 970.677 205.55 974.014 205.55C977.35 205.55 980.055 208.221 980.055 211.515ZM956.753 214.639C958.501 214.639 959.918 213.24 959.918 211.515C959.918 209.789 958.501 208.391 956.753 208.391C955.006 208.391 953.589 209.789 953.589 211.515C953.589 213.24 955.006 214.639 956.753 214.639ZM1001.34 196.178C1002.77 196.178 1003.93 195.033 1003.93 193.621C1003.93 192.21 1002.77 191.065 1001.34 191.065C999.913 191.065 998.753 192.21 998.753 193.621C998.753 195.033 999.913 196.178 1001.34 196.178ZM1003.93 258.379C1003.93 259.79 1002.77 260.935 1001.34 260.935C999.913 260.935 998.753 259.79 998.753 258.379C998.753 256.967 999.913 255.822 1001.34 255.822C1002.77 255.822 1003.93 256.967 1003.93 258.379ZM963.37 260.935C964.8 260.935 965.959 259.79 965.959 258.379C965.959 256.967 964.8 255.822 963.37 255.822C961.94 255.822 960.781 256.967 960.781 258.379C960.781 259.79 961.94 260.935 963.37 260.935ZM943.808 249.29C943.808 250.231 943.035 250.994 942.082 250.994C941.129 250.994 940.356 250.231 940.356 249.29C940.356 248.349 941.129 247.586 942.082 247.586C943.035 247.586 943.808 248.349 943.808 249.29ZM1022.92 250.994C1023.87 250.994 1024.64 250.231 1024.64 249.29C1024.64 248.349 1023.87 247.586 1022.92 247.586C1021.96 247.586 1021.19 248.349 1021.19 249.29C1021.19 250.231 1021.96 250.994 1022.92 250.994ZM1024.64 202.994C1024.64 203.935 1023.87 204.698 1022.92 204.698C1021.96 204.698 1021.19 203.935 1021.19 202.994C1021.19 202.053 1021.96 201.29 1022.92 201.29C1023.87 201.29 1024.64 202.053 1024.64 202.994ZM942.082 204.698C943.035 204.698 943.808 203.935 943.808 202.994C943.808 202.053 943.035 201.29 942.082 201.29C941.129 201.29 940.356 202.053 940.356 202.994C940.356 203.935 941.129 204.698 942.082 204.698ZM982.356 274C983.309 274 984.082 273.237 984.082 272.296C984.082 271.355 983.309 270.592 982.356 270.592C981.403 270.592 980.63 271.355 980.63 272.296C980.63 273.237 981.403 274 982.356 274ZM959.918 240.485C959.918 242.211 958.501 243.609 956.753 243.609C955.006 243.609 953.589 242.211 953.589 240.485C953.589 238.76 955.006 237.361 956.753 237.361C958.501 237.361 959.918 238.76 959.918 240.485ZM1008.25 243.609C1009.99 243.609 1011.41 242.211 1011.41 240.485C1011.41 238.76 1009.99 237.361 1008.25 237.361C1006.5 237.361 1005.08 238.76 1005.08 240.485C1005.08 242.211 1006.5 243.609 1008.25 243.609ZM1011.41 211.515C1011.41 213.24 1009.99 214.639 1008.25 214.639C1006.5 214.639 1005.08 213.24 1005.08 211.515C1005.08 209.789 1006.5 208.391 1008.25 208.391C1009.99 208.391 1011.41 209.789 1011.41 211.515ZM982.5 200.154C984.248 200.154 985.664 198.755 985.664 197.03C985.664 195.304 984.248 193.905 982.5 193.905C980.752 193.905 979.336 195.304 979.336 197.03C979.336 198.755 980.752 200.154 982.5 200.154ZM985.664 254.97C985.664 256.696 984.248 258.095 982.5 258.095C980.752 258.095 979.336 256.696 979.336 254.97C979.336 253.245 980.752 251.846 982.5 251.846C984.248 251.846 985.664 253.245 985.664 254.97ZM999.616 231.964C1002.95 231.964 1005.66 229.294 1005.66 226C1005.66 222.706 1002.95 220.036 999.616 220.036C996.28 220.036 993.575 222.706 993.575 226C993.575 229.294 996.28 231.964 999.616 231.964ZM1022.92 226C1022.92 227.255 1021.89 228.272 1020.62 228.272C1019.35 228.272 1018.32 227.255 1018.32 226C1018.32 224.745 1019.35 223.728 1020.62 223.728C1021.89 223.728 1022.92 224.745 1022.92 226ZM944.384 228.272C945.655 228.272 946.685 227.255 946.685 226C946.685 224.745 945.655 223.728 944.384 223.728C943.113 223.728 942.082 224.745 942.082 226C942.082 227.255 943.113 228.272 944.384 228.272ZM932.301 226C932.301 226.627 931.786 227.136 931.151 227.136C930.515 227.136 930 226.627 930 226C930 225.373 930.515 224.864 931.151 224.864C931.786 224.864 932.301 225.373 932.301 226ZM956.753 271.444C957.389 271.444 957.904 270.935 957.904 270.308C957.904 269.68 957.389 269.172 956.753 269.172C956.118 269.172 955.603 269.68 955.603 270.308C955.603 270.935 956.118 271.444 956.753 271.444ZM1009.4 270.308C1009.4 270.935 1008.88 271.444 1008.25 271.444C1007.61 271.444 1007.1 270.935 1007.1 270.308C1007.1 269.68 1007.61 269.172 1008.25 269.172C1008.88 269.172 1009.4 269.68 1009.4 270.308ZM1008.25 183.112C1008.88 183.112 1009.4 182.604 1009.4 181.976C1009.4 181.349 1008.88 180.84 1008.25 180.84C1007.61 180.84 1007.1 181.349 1007.1 181.976C1007.1 182.604 1007.61 183.112 1008.25 183.112ZM957.616 181.976C957.616 182.604 957.101 183.112 956.466 183.112C955.83 183.112 955.315 182.604 955.315 181.976C955.315 181.349 955.83 180.84 956.466 180.84C957.101 180.84 957.616 181.349 957.616 181.976ZM1033.85 227.136C1034.48 227.136 1035 226.627 1035 226C1035 225.373 1034.48 224.864 1033.85 224.864C1033.21 224.864 1032.7 225.373 1032.7 226C1032.7 226.627 1033.21 227.136 1033.85 227.136Z"/>
</mask>
<path fill-rule="evenodd" clip-rule="evenodd" d="M990.986 216.343C993.687 216.343 995.877 214.181 995.877 211.515C995.877 208.848 993.687 206.686 990.986 206.686C988.285 206.686 986.096 208.848 986.096 211.515C986.096 214.181 988.285 216.343 990.986 216.343ZM990.986 245.314C993.687 245.314 995.877 243.152 995.877 240.485C995.877 237.819 993.687 235.657 990.986 235.657C988.285 235.657 986.096 237.819 986.096 240.485C986.096 243.152 988.285 245.314 990.986 245.314ZM974.014 245.314C976.715 245.314 978.904 243.152 978.904 240.485C978.904 237.819 976.715 235.657 974.014 235.657C971.313 235.657 969.123 237.819 969.123 240.485C969.123 243.152 971.313 245.314 974.014 245.314ZM965.384 230.828C968.084 230.828 970.274 228.667 970.274 226C970.274 223.333 968.084 221.172 965.384 221.172C962.683 221.172 960.493 223.333 960.493 226C960.493 228.667 962.683 230.828 965.384 230.828ZM974.014 216.343C976.715 216.343 978.904 214.181 978.904 211.515C978.904 208.848 976.715 206.686 974.014 206.686C971.313 206.686 969.123 208.848 969.123 211.515C969.123 214.181 971.313 216.343 974.014 216.343ZM956.753 213.503C957.866 213.503 958.767 212.613 958.767 211.515C958.767 210.417 957.866 209.527 956.753 209.527C955.641 209.527 954.74 210.417 954.74 211.515C954.74 212.613 955.641 213.503 956.753 213.503ZM963.37 195.041C964.164 195.041 964.808 194.406 964.808 193.621C964.808 192.837 964.164 192.201 963.37 192.201C962.575 192.201 961.932 192.837 961.932 193.621C961.932 194.406 962.575 195.041 963.37 195.041ZM1001.34 195.041C1002.14 195.041 1002.78 194.406 1002.78 193.621C1002.78 192.837 1002.14 192.201 1001.34 192.201C1000.55 192.201 999.904 192.837 999.904 193.621C999.904 194.406 1000.55 195.041 1001.34 195.041ZM1001.34 259.799C1002.14 259.799 1002.78 259.163 1002.78 258.379C1002.78 257.594 1002.14 256.959 1001.34 256.959C1000.55 256.959 999.904 257.594 999.904 258.379C999.904 259.163 1000.55 259.799 1001.34 259.799ZM963.37 259.799C964.164 259.799 964.808 259.163 964.808 258.379C964.808 257.594 964.164 256.959 963.37 256.959C962.575 256.959 961.932 257.594 961.932 258.379C961.932 259.163 962.575 259.799 963.37 259.799ZM942.082 249.858C942.4 249.858 942.658 249.604 942.658 249.29C942.658 248.976 942.4 248.722 942.082 248.722C941.764 248.722 941.507 248.976 941.507 249.29C941.507 249.604 941.764 249.858 942.082 249.858ZM1022.92 249.858C1023.24 249.858 1023.49 249.604 1023.49 249.29C1023.49 248.976 1023.24 248.722 1022.92 248.722C1022.6 248.722 1022.34 248.976 1022.34 249.29C1022.34 249.604 1022.6 249.858 1022.92 249.858ZM1022.92 203.562C1023.24 203.562 1023.49 203.308 1023.49 202.994C1023.49 202.68 1023.24 202.426 1022.92 202.426C1022.6 202.426 1022.34 202.68 1022.34 202.994C1022.34 203.308 1022.6 203.562 1022.92 203.562ZM942.082 203.562C942.4 203.562 942.658 203.308 942.658 202.994C942.658 202.68 942.4 202.426 942.082 202.426C941.764 202.426 941.507 202.68 941.507 202.994C941.507 203.308 941.764 203.562 942.082 203.562ZM982.356 180.272C982.674 180.272 982.932 180.018 982.932 179.704C982.932 179.39 982.674 179.136 982.356 179.136C982.038 179.136 981.781 179.39 981.781 179.704C981.781 180.018 982.038 180.272 982.356 180.272ZM982.356 272.864C982.674 272.864 982.932 272.61 982.932 272.296C982.932 271.982 982.674 271.728 982.356 271.728C982.038 271.728 981.781 271.982 981.781 272.296C981.781 272.61 982.038 272.864 982.356 272.864ZM956.753 242.473C957.866 242.473 958.767 241.583 958.767 240.485C958.767 239.387 957.866 238.497 956.753 238.497C955.641 238.497 954.74 239.387 954.74 240.485C954.74 241.583 955.641 242.473 956.753 242.473ZM1008.25 242.473C1009.36 242.473 1010.26 241.583 1010.26 240.485C1010.26 239.387 1009.36 238.497 1008.25 238.497C1007.13 238.497 1006.23 239.387 1006.23 240.485C1006.23 241.583 1007.13 242.473 1008.25 242.473ZM1008.25 213.503C1009.36 213.503 1010.26 212.613 1010.26 211.515C1010.26 210.417 1009.36 209.527 1008.25 209.527C1007.13 209.527 1006.23 210.417 1006.23 211.515C1006.23 212.613 1007.13 213.503 1008.25 213.503ZM982.5 199.018C983.612 199.018 984.514 198.128 984.514 197.03C984.514 195.932 983.612 195.041 982.5 195.041C981.388 195.041 980.486 195.932 980.486 197.03C980.486 198.128 981.388 199.018 982.5 199.018ZM982.5 256.959C983.612 256.959 984.514 256.068 984.514 254.97C984.514 253.872 983.612 252.982 982.5 252.982C981.388 252.982 980.486 253.872 980.486 254.97C980.486 256.068 981.388 256.959 982.5 256.959ZM999.616 230.828C1002.32 230.828 1004.51 228.667 1004.51 226C1004.51 223.333 1002.32 221.172 999.616 221.172C996.916 221.172 994.726 223.333 994.726 226C994.726 228.667 996.916 230.828 999.616 230.828ZM1020.62 227.136C1021.25 227.136 1021.77 226.627 1021.77 226C1021.77 225.373 1021.25 224.864 1020.62 224.864C1019.98 224.864 1019.47 225.373 1019.47 226C1019.47 226.627 1019.98 227.136 1020.62 227.136ZM944.384 227.136C945.019 227.136 945.534 226.627 945.534 226C945.534 225.373 945.019 224.864 944.384 224.864C943.748 224.864 943.233 225.373 943.233 226C943.233 226.627 943.748 227.136 944.384 227.136ZM984.082 179.704C984.082 180.645 983.309 181.408 982.356 181.408C981.403 181.408 980.63 180.645 980.63 179.704C980.63 178.763 981.403 178 982.356 178C983.309 178 984.082 178.763 984.082 179.704ZM965.959 193.621C965.959 195.033 964.8 196.178 963.37 196.178C961.94 196.178 960.781 195.033 960.781 193.621C960.781 192.21 961.94 191.065 963.37 191.065C964.8 191.065 965.959 192.21 965.959 193.621ZM990.986 217.479C994.323 217.479 997.027 214.809 997.027 211.515C997.027 208.221 994.323 205.55 990.986 205.55C987.65 205.55 984.945 208.221 984.945 211.515C984.945 214.809 987.65 217.479 990.986 217.479ZM990.986 246.45C994.323 246.45 997.027 243.779 997.027 240.485C997.027 237.191 994.323 234.521 990.986 234.521C987.65 234.521 984.945 237.191 984.945 240.485C984.945 243.779 987.65 246.45 990.986 246.45ZM980.055 240.485C980.055 243.779 977.35 246.45 974.014 246.45C970.677 246.45 967.973 243.779 967.973 240.485C967.973 237.191 970.677 234.521 974.014 234.521C977.35 234.521 980.055 237.191 980.055 240.485ZM965.384 231.964C968.72 231.964 971.425 229.294 971.425 226C971.425 222.706 968.72 220.036 965.384 220.036C962.047 220.036 959.342 222.706 959.342 226C959.342 229.294 962.047 231.964 965.384 231.964ZM980.055 211.515C980.055 214.809 977.35 217.479 974.014 217.479C970.677 217.479 967.973 214.809 967.973 211.515C967.973 208.221 970.677 205.55 974.014 205.55C977.35 205.55 980.055 208.221 980.055 211.515ZM956.753 214.639C958.501 214.639 959.918 213.24 959.918 211.515C959.918 209.789 958.501 208.391 956.753 208.391C955.006 208.391 953.589 209.789 953.589 211.515C953.589 213.24 955.006 214.639 956.753 214.639ZM1001.34 196.178C1002.77 196.178 1003.93 195.033 1003.93 193.621C1003.93 192.21 1002.77 191.065 1001.34 191.065C999.913 191.065 998.753 192.21 998.753 193.621C998.753 195.033 999.913 196.178 1001.34 196.178ZM1003.93 258.379C1003.93 259.79 1002.77 260.935 1001.34 260.935C999.913 260.935 998.753 259.79 998.753 258.379C998.753 256.967 999.913 255.822 1001.34 255.822C1002.77 255.822 1003.93 256.967 1003.93 258.379ZM963.37 260.935C964.8 260.935 965.959 259.79 965.959 258.379C965.959 256.967 964.8 255.822 963.37 255.822C961.94 255.822 960.781 256.967 960.781 258.379C960.781 259.79 961.94 260.935 963.37 260.935ZM943.808 249.29C943.808 250.231 943.035 250.994 942.082 250.994C941.129 250.994 940.356 250.231 940.356 249.29C940.356 248.349 941.129 247.586 942.082 247.586C943.035 247.586 943.808 248.349 943.808 249.29ZM1022.92 250.994C1023.87 250.994 1024.64 250.231 1024.64 249.29C1024.64 248.349 1023.87 247.586 1022.92 247.586C1021.96 247.586 1021.19 248.349 1021.19 249.29C1021.19 250.231 1021.96 250.994 1022.92 250.994ZM1024.64 202.994C1024.64 203.935 1023.87 204.698 1022.92 204.698C1021.96 204.698 1021.19 203.935 1021.19 202.994C1021.19 202.053 1021.96 201.29 1022.92 201.29C1023.87 201.29 1024.64 202.053 1024.64 202.994ZM942.082 204.698C943.035 204.698 943.808 203.935 943.808 202.994C943.808 202.053 943.035 201.29 942.082 201.29C941.129 201.29 940.356 202.053 940.356 202.994C940.356 203.935 941.129 204.698 942.082 204.698ZM982.356 274C983.309 274 984.082 273.237 984.082 272.296C984.082 271.355 983.309 270.592 982.356 270.592C981.403 270.592 980.63 271.355 980.63 272.296C980.63 273.237 981.403 274 982.356 274ZM959.918 240.485C959.918 242.211 958.501 243.609 956.753 243.609C955.006 243.609 953.589 242.211 953.589 240.485C953.589 238.76 955.006 237.361 956.753 237.361C958.501 237.361 959.918 238.76 959.918 240.485ZM1008.25 243.609C1009.99 243.609 1011.41 242.211 1011.41 240.485C1011.41 238.76 1009.99 237.361 1008.25 237.361C1006.5 237.361 1005.08 238.76 1005.08 240.485C1005.08 242.211 1006.5 243.609 1008.25 243.609ZM1011.41 211.515C1011.41 213.24 1009.99 214.639 1008.25 214.639C1006.5 214.639 1005.08 213.24 1005.08 211.515C1005.08 209.789 1006.5 208.391 1008.25 208.391C1009.99 208.391 1011.41 209.789 1011.41 211.515ZM982.5 200.154C984.248 200.154 985.664 198.755 985.664 197.03C985.664 195.304 984.248 193.905 982.5 193.905C980.752 193.905 979.336 195.304 979.336 197.03C979.336 198.755 980.752 200.154 982.5 200.154ZM985.664 254.97C985.664 256.696 984.248 258.095 982.5 258.095C980.752 258.095 979.336 256.696 979.336 254.97C979.336 253.245 980.752 251.846 982.5 251.846C984.248 251.846 985.664 253.245 985.664 254.97ZM999.616 231.964C1002.95 231.964 1005.66 229.294 1005.66 226C1005.66 222.706 1002.95 220.036 999.616 220.036C996.28 220.036 993.575 222.706 993.575 226C993.575 229.294 996.28 231.964 999.616 231.964ZM1022.92 226C1022.92 227.255 1021.89 228.272 1020.62 228.272C1019.35 228.272 1018.32 227.255 1018.32 226C1018.32 224.745 1019.35 223.728 1020.62 223.728C1021.89 223.728 1022.92 224.745 1022.92 226ZM944.384 228.272C945.655 228.272 946.685 227.255 946.685 226C946.685 224.745 945.655 223.728 944.384 223.728C943.113 223.728 942.082 224.745 942.082 226C942.082 227.255 943.113 228.272 944.384 228.272ZM932.301 226C932.301 226.627 931.786 227.136 931.151 227.136C930.515 227.136 930 226.627 930 226C930 225.373 930.515 224.864 931.151 224.864C931.786 224.864 932.301 225.373 932.301 226ZM956.753 271.444C957.389 271.444 957.904 270.935 957.904 270.308C957.904 269.68 957.389 269.172 956.753 269.172C956.118 269.172 955.603 269.68 955.603 270.308C955.603 270.935 956.118 271.444 956.753 271.444ZM1009.4 270.308C1009.4 270.935 1008.88 271.444 1008.25 271.444C1007.61 271.444 1007.1 270.935 1007.1 270.308C1007.1 269.68 1007.61 269.172 1008.25 269.172C1008.88 269.172 1009.4 269.68 1009.4 270.308ZM1008.25 183.112C1008.88 183.112 1009.4 182.604 1009.4 181.976C1009.4 181.349 1008.88 180.84 1008.25 180.84C1007.61 180.84 1007.1 181.349 1007.1 181.976C1007.1 182.604 1007.61 183.112 1008.25 183.112ZM957.616 181.976C957.616 182.604 957.101 183.112 956.466 183.112C955.83 183.112 955.315 182.604 955.315 181.976C955.315 181.349 955.83 180.84 956.466 180.84C957.101 180.84 957.616 181.349 957.616 181.976ZM1033.85 227.136C1034.48 227.136 1035 226.627 1035 226C1035 225.373 1034.48 224.864 1033.85 224.864C1033.21 224.864 1032.7 225.373 1032.7 226C1032.7 226.627 1033.21 227.136 1033.85 227.136Z" fill="#222934" stroke="#222934" stroke-width="14" mask="url(#path-167-inside-5_1501_1625)"/>
<path d="M2361.47 2032.55C2324.08 2069.93 2263.48 2069.93 2226.1 2032.55C2188.71 1995.17 2188.71 1934.56 2226.1 1897.18C2263.48 1859.8 2324.08 1859.8 2361.47 1897.18C2398.85 1934.56 2398.85 1995.17 2361.47 2032.55Z" fill="#EDEFF3" stroke="#7689A4" stroke-width="2.93401"/>
<mask id="path-169-inside-6_1501_1625" fill="white">
<path d="M2290.25 2065.09C2290.22 2065.94 2289.51 2066.6 2288.66 2066.56C2271.86 2065.77 2255.5 2060.83 2241.05 2052.19C2226.16 2043.28 2213.78 2030.73 2205.09 2015.72C2196.39 2000.7 2191.66 1983.72 2191.34 1966.38C2191.02 1949.03 2195.13 1931.89 2203.27 1916.56C2211.41 1901.24 2223.31 1888.24 2237.87 1878.8C2252.42 1869.35 2269.14 1863.76 2286.45 1862.57C2303.76 1861.37 2321.09 1864.6 2336.8 1871.95C2352.05 1879.09 2365.3 1889.88 2375.37 1903.36C2375.87 1904.04 2375.72 1905 2375.03 1905.49V1905.49C2374.35 1905.99 2373.39 1905.84 2372.88 1905.16C2363.12 1892.1 2350.28 1881.64 2335.5 1874.73C2320.26 1867.6 2303.45 1864.46 2286.66 1865.62C2269.87 1866.79 2253.65 1872.2 2239.54 1881.37C2225.42 1890.53 2213.87 1903.14 2205.97 1918C2198.08 1932.86 2194.1 1949.49 2194.41 1966.32C2194.71 1983.15 2199.3 1999.62 2207.74 2014.18C2216.18 2028.74 2228.18 2040.92 2242.62 2049.56C2256.63 2057.93 2272.48 2062.72 2288.76 2063.5C2289.61 2063.54 2290.27 2064.25 2290.25 2065.09V2065.09Z"/>
</mask>
<path d="M2290.25 2065.09C2290.22 2065.94 2289.51 2066.6 2288.66 2066.56C2271.86 2065.77 2255.5 2060.83 2241.05 2052.19C2226.16 2043.28 2213.78 2030.73 2205.09 2015.72C2196.39 2000.7 2191.66 1983.72 2191.34 1966.38C2191.02 1949.03 2195.13 1931.89 2203.27 1916.56C2211.41 1901.24 2223.31 1888.24 2237.87 1878.8C2252.42 1869.35 2269.14 1863.76 2286.45 1862.57C2303.76 1861.37 2321.09 1864.6 2336.8 1871.95C2352.05 1879.09 2365.3 1889.88 2375.37 1903.36C2375.87 1904.04 2375.72 1905 2375.03 1905.49V1905.49C2374.35 1905.99 2373.39 1905.84 2372.88 1905.16C2363.12 1892.1 2350.28 1881.64 2335.5 1874.73C2320.26 1867.6 2303.45 1864.46 2286.66 1865.62C2269.87 1866.79 2253.65 1872.2 2239.54 1881.37C2225.42 1890.53 2213.87 1903.14 2205.97 1918C2198.08 1932.86 2194.1 1949.49 2194.41 1966.32C2194.71 1983.15 2199.3 1999.62 2207.74 2014.18C2216.18 2028.74 2228.18 2040.92 2242.62 2049.56C2256.63 2057.93 2272.48 2062.72 2288.76 2063.5C2289.61 2063.54 2290.27 2064.25 2290.25 2065.09V2065.09Z" fill="#D9D9D9" fill-opacity="0.7" stroke="#7689A4" stroke-width="5.12917" stroke-linejoin="round" mask="url(#path-169-inside-6_1501_1625)"/>
<mask id="path-170-inside-7_1501_1625" fill="white">
<path d="M2379.98 1913.42C2380.8 1912.93 2381.87 1913.2 2382.35 1914.04C2390.73 1928.81 2395.31 1945.44 2395.66 1962.43C2396.01 1980.01 2391.83 1997.38 2383.51 2012.86C2375.19 2028.35 2363.01 2041.42 2348.16 2050.83C2333.8 2059.92 2317.4 2065.28 2300.46 2066.44C2299.5 2066.5 2298.69 2065.76 2298.64 2064.8V2064.8C2298.59 2063.84 2299.33 2063.03 2300.29 2062.96C2316.63 2061.83 2332.44 2056.66 2346.3 2047.88C2360.64 2038.8 2372.4 2026.17 2380.44 2011.21C2388.47 1996.25 2392.52 1979.48 2392.17 1962.5C2391.84 1946.11 2387.43 1930.06 2379.35 1915.81C2378.87 1914.98 2379.15 1913.91 2379.98 1913.42V1913.42Z"/>
</mask>
<path d="M2379.98 1913.42C2380.8 1912.93 2381.87 1913.2 2382.35 1914.04C2390.73 1928.81 2395.31 1945.44 2395.66 1962.43C2396.01 1980.01 2391.83 1997.38 2383.51 2012.86C2375.19 2028.35 2363.01 2041.42 2348.16 2050.83C2333.8 2059.92 2317.4 2065.28 2300.46 2066.44C2299.5 2066.5 2298.69 2065.76 2298.64 2064.8V2064.8C2298.59 2063.84 2299.33 2063.03 2300.29 2062.96C2316.63 2061.83 2332.44 2056.66 2346.3 2047.88C2360.64 2038.8 2372.4 2026.17 2380.44 2011.21C2388.47 1996.25 2392.52 1979.48 2392.17 1962.5C2391.84 1946.11 2387.43 1930.06 2379.35 1915.81C2378.87 1914.98 2379.15 1913.91 2379.98 1913.42V1913.42Z" fill="#D9D9D9" fill-opacity="0.7" stroke="#7689A4" stroke-width="5.12917" stroke-linejoin="round" mask="url(#path-170-inside-7_1501_1625)"/>
<path d="M2351.99 1963.93L2343.17 1969.14L2343.1 1993.92L2343.09 1995.06L2342.11 1995.64L2321.06 2008.02V2018.56L2351.99 2000.43V1963.93ZM2342.18 1940.36L2343.17 1940.94V1942.08V1953.68L2352 1948.46V1935.64L2341.17 1929.23L2332.22 1934.5L2342.18 1940.36ZM2307.86 2015.82L2298.05 2021.62L2297.03 2022.22L2296.02 2021.62L2286.14 2015.81V2026.27L2297.03 2032.68L2307.86 2026.27V2015.82ZM2242.01 1948.45L2250.9 1953.69V1942.08V1940.94L2251.88 1940.36L2261.8 1934.5L2252.9 1929.23L2242.01 1935.64V1948.45ZM2274.94 1942.19L2264.1 1948.57L2264.04 1961.49L2285.14 1973.86L2286.13 1974.44V1975.59V2000.42L2296.96 2006.76L2307.79 2000.42V1975.59V1974.44L2308.78 1973.86L2329.89 1961.48V1948.6L2319.01 1942.19L2298.06 1954.61L2297.04 1955.21L2296.02 1954.61L2274.94 1942.19ZM2251.89 1995.64L2250.91 1995.06L2250.9 1993.92L2250.83 1969.14L2242 1963.92V2000.42L2272.93 2018.55V2008.01L2251.89 1995.64ZM2296.02 1914.39L2297.03 1913.79L2298.05 1914.39L2319.06 1926.81L2327.96 1921.55L2297.03 1903.32L2266.04 1921.55L2274.94 1926.81L2296.02 1914.39ZM2297.03 1939.76L2305.93 1934.5L2297.03 1929.23L2288.08 1934.5L2297.03 1939.76ZM2321.06 1992.57L2329.9 1987.4V1976.88L2321.06 1982.1V1992.57ZM2264.1 1976.88V1987.4L2272.94 1992.57V1982.1L2264.1 1976.88Z" stroke="#222934" stroke-width="4"/>
<path d="M446.1 2176.1C404.899 2217.3 338.101 2217.3 296.9 2176.1C255.7 2134.9 255.7 2068.1 296.9 2026.9C338.101 1985.7 404.899 1985.7 446.1 2026.9C487.3 2068.1 487.3 2134.9 446.1 2176.1Z" fill="#EDEFF3" stroke="#7689A4" stroke-width="4"/>
<mask id="path-173-inside-8_1501_1625" fill="white">
<path d="M291.873 2022.36C291.115 2021.61 291.113 2020.39 291.884 2019.65C304.032 2007.98 318.646 1999.14 334.671 1993.78C351.31 1988.21 369.02 1986.54 386.415 1988.9C403.81 1991.27 420.42 1997.6 434.945 2007.4C448.935 2016.84 460.627 2029.25 469.179 2043.73C469.722 2044.65 469.39 2045.82 468.457 2046.35V2046.35C467.523 2046.87 466.341 2046.54 465.797 2045.62C457.54 2031.66 446.259 2019.69 432.765 2010.59C418.734 2001.12 402.691 1995.01 385.889 1992.73C369.087 1990.45 351.982 1992.06 335.91 1997.43C320.452 2002.61 306.353 2011.13 294.63 2022.38C293.858 2023.12 292.631 2023.12 291.873 2022.36V2022.36Z"/>
</mask>
<path d="M291.873 2022.36C291.115 2021.61 291.113 2020.39 291.884 2019.65C304.032 2007.98 318.646 1999.14 334.671 1993.78C351.31 1988.21 369.02 1986.54 386.415 1988.9C403.81 1991.27 420.42 1997.6 434.945 2007.4C448.935 2016.84 460.627 2029.25 469.179 2043.73C469.722 2044.65 469.39 2045.82 468.457 2046.35V2046.35C467.523 2046.87 466.341 2046.54 465.797 2045.62C457.54 2031.66 446.259 2019.69 432.765 2010.59C418.734 2001.12 402.691 1995.01 385.889 1992.73C369.087 1990.45 351.982 1992.06 335.91 1997.43C320.452 2002.61 306.353 2011.13 294.63 2022.38C293.858 2023.12 292.631 2023.12 291.873 2022.36V2022.36Z" fill="#D9D9D9" fill-opacity="0.7" stroke="#7689A4" stroke-width="6.99271" stroke-linejoin="round" mask="url(#path-173-inside-8_1501_1625)"/>
<mask id="path-174-inside-9_1501_1625" fill="white">
<path d="M473.483 2054.65C474.46 2054.2 475.622 2054.62 476.061 2055.59C484.147 2073.63 487.385 2093.46 485.44 2113.12C483.432 2133.42 475.971 2152.81 463.837 2169.25C451.702 2185.7 435.341 2198.59 416.463 2206.59C397.585 2214.59 376.883 2217.4 356.523 2214.73C336.163 2212.05 316.892 2203.99 300.725 2191.39C284.558 2178.78 272.089 2162.1 264.621 2143.08C257.153 2124.06 254.962 2103.4 258.275 2083.27C261.483 2063.78 269.737 2045.47 282.213 2030.13C282.892 2029.3 284.127 2029.19 284.955 2029.88V2029.88C285.783 2030.57 285.89 2031.79 285.212 2032.63C273.185 2047.43 265.227 2065.1 262.132 2083.9C258.932 2103.35 261.049 2123.3 268.262 2141.67C275.475 2160.04 287.519 2176.16 303.134 2188.33C318.75 2200.51 337.364 2208.29 357.03 2210.88C376.696 2213.46 396.691 2210.75 414.925 2203.02C433.16 2195.29 448.963 2182.84 460.684 2166.95C472.404 2151.07 479.611 2132.34 481.551 2112.73C483.427 2093.76 480.309 2074.64 472.52 2057.23C472.081 2056.25 472.504 2055.1 473.483 2054.65V2054.65Z"/>
</mask>
<path d="M473.483 2054.65C474.46 2054.2 475.622 2054.62 476.061 2055.59C484.147 2073.63 487.385 2093.46 485.44 2113.12C483.432 2133.42 475.971 2152.81 463.837 2169.25C451.702 2185.7 435.341 2198.59 416.463 2206.59C397.585 2214.59 376.883 2217.4 356.523 2214.73C336.163 2212.05 316.892 2203.99 300.725 2191.39C284.558 2178.78 272.089 2162.1 264.621 2143.08C257.153 2124.06 254.962 2103.4 258.275 2083.27C261.483 2063.78 269.737 2045.47 282.213 2030.13C282.892 2029.3 284.127 2029.19 284.955 2029.88V2029.88C285.783 2030.57 285.89 2031.79 285.212 2032.63C273.185 2047.43 265.227 2065.1 262.132 2083.9C258.932 2103.35 261.049 2123.3 268.262 2141.67C275.475 2160.04 287.519 2176.16 303.134 2188.33C318.75 2200.51 337.364 2208.29 357.03 2210.88C376.696 2213.46 396.691 2210.75 414.925 2203.02C433.16 2195.29 448.963 2182.84 460.684 2166.95C472.404 2151.07 479.611 2132.34 481.551 2112.73C483.427 2093.76 480.309 2074.64 472.52 2057.23C472.081 2056.25 472.504 2055.1 473.483 2054.65V2054.65Z" fill="#D9D9D9" fill-opacity="0.7" stroke="#7689A4" stroke-width="6.99271" stroke-linejoin="round" mask="url(#path-174-inside-9_1501_1625)"/>
<path d="M367.717 2170.5L365.856 2171.23C366.118 2171.9 366.714 2172.37 367.419 2172.48C368.125 2172.58 368.834 2172.31 369.28 2171.75L367.717 2170.5ZM438.5 2081.89L440.063 2083.14C440.713 2082.32 440.629 2081.15 439.869 2080.43L438.5 2081.89ZM316.5 2040.5L316.884 2038.54C316.167 2038.4 315.43 2038.66 314.963 2039.22C314.496 2039.78 314.371 2040.55 314.639 2041.23L316.5 2040.5ZM414.906 2059.74L416.275 2058.28C416 2058.02 415.659 2057.85 415.289 2057.77L414.906 2059.74ZM369.698 2170.78L380.632 2092.08L376.67 2091.53L365.736 2170.22L369.698 2170.78ZM378.978 2093.77L438.827 2083.86L438.173 2079.92L378.324 2089.83L378.978 2093.77ZM436.937 2080.64L366.154 2169.25L369.28 2171.75L440.063 2083.14L436.937 2080.64ZM379.924 2090.26L317.773 2038.96L315.227 2042.04L377.378 2093.34L379.924 2090.26ZM314.639 2041.23L365.856 2171.23L369.578 2169.77L318.361 2039.77L314.639 2041.23ZM379.976 2093.3L416.231 2061.24L413.581 2058.24L377.326 2090.3L379.976 2093.3ZM413.537 2061.2L437.131 2083.35L439.869 2080.43L416.275 2058.28L413.537 2061.2ZM415.289 2057.77L316.884 2038.54L316.116 2042.46L414.522 2061.7L415.289 2057.77Z" fill="#222934"/>
<path d="M1425.48 2379.48C1374.13 2430.84 1290.87 2430.84 1239.52 2379.48C1188.16 2328.13 1188.16 2244.87 1239.52 2193.52C1290.87 2142.16 1374.13 2142.16 1425.48 2193.52C1476.84 2244.87 1476.84 2328.13 1425.48 2379.48Z" fill="#EDEFF3" stroke="#7689A4" stroke-width="4"/>
<mask id="path-177-inside-10_1501_1625" fill="white">
<path d="M1468.43 2308C1469.73 2308.21 1470.62 2309.43 1470.39 2310.73C1466.42 2333.33 1456.95 2354.63 1442.8 2372.73C1428.15 2391.46 1408.98 2406.16 1387.09 2415.43C1365.2 2424.7 1341.3 2428.24 1317.66 2425.72C1294.02 2423.2 1271.41 2414.7 1251.97 2401.03C1232.52 2387.35 1216.87 2368.95 1206.51 2347.55C1196.14 2326.16 1191.39 2302.48 1192.71 2278.74C1194.03 2255 1201.37 2231.99 1214.04 2211.87C1226.29 2192.43 1243.12 2176.31 1263.05 2164.93C1264.2 2164.28 1265.65 2164.7 1266.29 2165.86V2165.86C1266.92 2167.01 1266.5 2168.46 1265.35 2169.12C1246.13 2180.11 1229.89 2195.66 1218.08 2214.42C1205.84 2233.85 1198.75 2256.08 1197.47 2279C1196.2 2301.93 1200.79 2324.81 1210.8 2345.47C1220.82 2366.14 1235.93 2383.91 1254.71 2397.12C1273.5 2410.33 1295.34 2418.54 1318.17 2420.97C1341 2423.4 1364.08 2419.98 1385.23 2411.03C1406.37 2402.08 1424.89 2387.88 1439.04 2369.79C1452.69 2352.33 1461.83 2331.79 1465.68 2309.98C1465.91 2308.68 1467.13 2307.79 1468.43 2308V2308Z"/>
</mask>
<path d="M1468.43 2308C1469.73 2308.21 1470.62 2309.43 1470.39 2310.73C1466.42 2333.33 1456.95 2354.63 1442.8 2372.73C1428.15 2391.46 1408.98 2406.16 1387.09 2415.43C1365.2 2424.7 1341.3 2428.24 1317.66 2425.72C1294.02 2423.2 1271.41 2414.7 1251.97 2401.03C1232.52 2387.35 1216.87 2368.95 1206.51 2347.55C1196.14 2326.16 1191.39 2302.48 1192.71 2278.74C1194.03 2255 1201.37 2231.99 1214.04 2211.87C1226.29 2192.43 1243.12 2176.31 1263.05 2164.93C1264.2 2164.28 1265.65 2164.7 1266.29 2165.86V2165.86C1266.92 2167.01 1266.5 2168.46 1265.35 2169.12C1246.13 2180.11 1229.89 2195.66 1218.08 2214.42C1205.84 2233.85 1198.75 2256.08 1197.47 2279C1196.2 2301.93 1200.79 2324.81 1210.8 2345.47C1220.82 2366.14 1235.93 2383.91 1254.71 2397.12C1273.5 2410.33 1295.34 2418.54 1318.17 2420.97C1341 2423.4 1364.08 2419.98 1385.23 2411.03C1406.37 2402.08 1424.89 2387.88 1439.04 2369.79C1452.69 2352.33 1461.83 2331.79 1465.68 2309.98C1465.91 2308.68 1467.13 2307.79 1468.43 2308V2308Z" fill="#D9D9D9" fill-opacity="0.7" stroke="#7689A4" stroke-width="6.99271" stroke-linejoin="round" mask="url(#path-177-inside-10_1501_1625)"/>
<mask id="path-178-inside-11_1501_1625" fill="white">
<path d="M1294.92 2154.11C1294.56 2152.84 1295.3 2151.52 1296.57 2151.18C1316.32 2145.94 1336.98 2145.08 1357.11 2148.67C1378.03 2152.41 1397.82 2160.85 1414.98 2173.37C1432.15 2185.89 1446.24 2202.15 1456.2 2220.92C1465.77 2238.98 1471.28 2258.92 1472.32 2279.32C1472.39 2280.64 1471.36 2281.75 1470.04 2281.79V2281.79C1468.72 2281.84 1467.62 2280.8 1467.55 2279.49C1466.53 2259.81 1461.22 2240.58 1451.98 2223.15C1442.36 2205.02 1428.75 2189.32 1412.17 2177.23C1395.59 2165.14 1376.47 2156.98 1356.27 2153.37C1336.85 2149.91 1316.92 2150.73 1297.87 2155.78C1296.6 2156.11 1295.28 2155.38 1294.92 2154.11V2154.11Z"/>
</mask>
<path d="M1294.92 2154.11C1294.56 2152.84 1295.3 2151.52 1296.57 2151.18C1316.32 2145.94 1336.98 2145.08 1357.11 2148.67C1378.03 2152.41 1397.82 2160.85 1414.98 2173.37C1432.15 2185.89 1446.24 2202.15 1456.2 2220.92C1465.77 2238.98 1471.28 2258.92 1472.32 2279.32C1472.39 2280.64 1471.36 2281.75 1470.04 2281.79V2281.79C1468.72 2281.84 1467.62 2280.8 1467.55 2279.49C1466.53 2259.81 1461.22 2240.58 1451.98 2223.15C1442.36 2205.02 1428.75 2189.32 1412.17 2177.23C1395.59 2165.14 1376.47 2156.98 1356.27 2153.37C1336.85 2149.91 1316.92 2150.73 1297.87 2155.78C1296.6 2156.11 1295.28 2155.38 1294.92 2154.11V2154.11Z" fill="#D9D9D9" fill-opacity="0.7" stroke="#7689A4" stroke-width="6.99271" stroke-linejoin="round" mask="url(#path-178-inside-11_1501_1625)"/>
<path d="M1363.28 2272.83L1347.72 2277.56L1366.93 2211.92L1367.02 2211.65V2211.36V2210.26V2210.22L1367.01 2210.19C1366.99 2209.49 1366.83 2208.79 1366.54 2208.15C1366.25 2207.51 1365.83 2206.93 1365.32 2206.45C1364.8 2205.97 1364.2 2205.59 1363.54 2205.34C1362.89 2205.1 1362.2 2204.98 1361.51 2205H1335.82C1334.41 2204.97 1333.02 2205.4 1331.89 2206.24C1330.74 2207.08 1329.92 2208.28 1329.53 2209.65L1305.82 2290.59L1287.76 2296.09L1286.76 2296.39L1286.44 2297.38L1282.1 2310.76L1280.91 2314.4L1284.58 2313.29L1300.14 2308.55L1284.11 2363.44L1283.36 2366H1286.03H1387.84C1389.25 2366.04 1390.64 2365.61 1391.79 2364.77C1392.94 2363.92 1393.76 2362.71 1394.14 2361.34L1399.92 2341.29L1400 2341.02V2340.74V2339.63V2339.6L1400 2339.57C1399.98 2338.86 1399.81 2338.17 1399.52 2337.53C1399.23 2336.88 1398.82 2336.31 1398.3 2335.82C1397.79 2335.34 1397.19 2334.96 1396.53 2334.72C1395.88 2334.47 1395.19 2334.36 1394.5 2334.38H1330.66L1342.03 2295.84L1360.36 2290.62L1361.42 2290.32L1361.73 2289.25L1365.78 2275.3L1366.81 2271.75L1363.28 2272.83Z" stroke="#222934" stroke-width="4"/>
<circle cx="669" cy="883" r="129" fill="#EDEFF3" stroke="#7689A4" stroke-width="4"/>
<mask id="path-181-inside-12_1501_1625" fill="white">
<path d="M551.227 815.074C550.25 814.511 549.913 813.261 550.491 812.292C560.171 796.067 573.084 781.997 588.435 770.958C604.34 759.522 622.496 751.603 641.698 747.728C660.899 743.852 680.706 744.109 699.801 748.481C718.231 752.701 735.591 760.662 750.807 771.862C751.715 772.531 751.89 773.813 751.208 774.712V774.712C750.525 775.61 749.245 775.784 748.336 775.116C733.583 764.266 716.754 756.554 698.889 752.463C680.359 748.22 661.139 747.971 642.506 751.732C623.873 755.493 606.253 763.177 590.82 774.275C575.94 784.975 563.42 798.611 554.03 814.333C553.451 815.302 552.204 815.638 551.227 815.074V815.074Z"/>
</mask>
<path d="M551.227 815.074C550.25 814.511 549.913 813.261 550.491 812.292C560.171 796.067 573.084 781.997 588.435 770.958C604.34 759.522 622.496 751.603 641.698 747.728C660.899 743.852 680.706 744.109 699.801 748.481C718.231 752.701 735.591 760.662 750.807 771.862C751.715 772.531 751.89 773.813 751.208 774.712V774.712C750.525 775.61 749.245 775.784 748.336 775.116C733.583 764.266 716.754 756.554 698.889 752.463C680.359 748.22 661.139 747.971 642.506 751.732C623.873 755.493 606.253 763.177 590.82 774.275C575.94 784.975 563.42 798.611 554.03 814.333C553.451 815.302 552.204 815.638 551.227 815.074V815.074Z" fill="#D9D9D9" fill-opacity="0.7" stroke="#7689A4" stroke-width="8" stroke-linejoin="round" mask="url(#path-181-inside-12_1501_1625)"/>
<mask id="path-182-inside-13_1501_1625" fill="white">
<path d="M765.137 786.863C765.934 786.066 767.229 786.065 768.014 786.874C784.989 804.358 797.04 826.036 802.924 849.708C808.973 874.042 808.278 899.564 800.913 923.532C793.549 947.5 779.793 969.009 761.125 985.748C742.456 1002.49 719.579 1013.82 694.952 1018.54C670.326 1023.25 644.88 1021.17 621.348 1012.51C597.816 1003.85 577.088 988.948 561.39 969.395C545.693 949.843 535.619 926.383 532.251 901.536C528.974 877.365 532.165 852.769 541.479 830.251C541.911 829.208 543.114 828.731 544.15 829.178V829.178C545.185 829.624 545.662 830.825 545.231 831.868C536.21 853.704 533.122 877.551 536.298 900.988C539.567 925.099 549.342 947.864 564.576 966.838C579.809 985.812 599.923 1000.28 622.758 1008.68C645.594 1017.08 670.287 1019.1 694.184 1014.53C718.082 1009.95 740.281 998.949 758.398 982.706C776.514 966.463 789.862 945.591 797.009 922.332C804.155 899.073 804.83 874.307 798.96 850.694C793.254 827.742 781.575 806.722 765.126 789.763C764.34 788.953 764.339 787.661 765.137 786.863V786.863Z"/>
</mask>
<path d="M765.137 786.863C765.934 786.066 767.229 786.065 768.014 786.874C784.989 804.358 797.04 826.036 802.924 849.708C808.973 874.042 808.278 899.564 800.913 923.532C793.549 947.5 779.793 969.009 761.125 985.748C742.456 1002.49 719.579 1013.82 694.952 1018.54C670.326 1023.25 644.88 1021.17 621.348 1012.51C597.816 1003.85 577.088 988.948 561.39 969.395C545.693 949.843 535.619 926.383 532.251 901.536C528.974 877.365 532.165 852.769 541.479 830.251C541.911 829.208 543.114 828.731 544.15 829.178V829.178C545.185 829.624 545.662 830.825 545.231 831.868C536.21 853.704 533.122 877.551 536.298 900.988C539.567 925.099 549.342 947.864 564.576 966.838C579.809 985.812 599.923 1000.28 622.758 1008.68C645.594 1017.08 670.287 1019.1 694.184 1014.53C718.082 1009.95 740.281 998.949 758.398 982.706C776.514 966.463 789.862 945.591 797.009 922.332C804.155 899.073 804.83 874.307 798.96 850.694C793.254 827.742 781.575 806.722 765.126 789.763C764.34 788.953 764.339 787.661 765.137 786.863V786.863Z" fill="#D9D9D9" fill-opacity="0.7" stroke="#7689A4" stroke-width="8" stroke-linejoin="round" mask="url(#path-182-inside-13_1501_1625)"/>
<path d="M669.975 928.02L670.984 928.61L671.993 928.021L717.898 901.206L670.985 966.569L624.099 901.208L669.975 928.02ZM670.984 799.844L722.2 883.916L670.984 913.865L619.767 883.916L670.984 799.844Z" stroke="#222934" stroke-width="4"/>
<circle cx="1663" cy="839" r="144" fill="#EDEFF3" stroke="#7689A4" stroke-width="4"/>
<mask id="path-185-inside-14_1501_1625" fill="white">
<path d="M1520.36 891.571C1519.33 891.948 1518.19 891.424 1517.83 890.395C1506.94 859.632 1506.1 826.186 1515.45 794.887C1525 762.956 1544.65 734.984 1571.44 715.171C1598.24 695.357 1630.74 684.772 1664.07 685.004C1696.74 685.231 1728.47 695.84 1754.69 715.269C1755.57 715.919 1755.73 717.161 1755.07 718.029V718.029C1754.41 718.898 1753.17 719.064 1752.29 718.415C1726.76 699.503 1695.86 689.178 1664.04 688.956C1631.57 688.73 1599.9 699.044 1573.79 718.349C1547.68 737.654 1528.54 764.908 1519.24 796.019C1510.13 826.498 1510.94 859.068 1521.54 889.028C1521.9 890.057 1521.38 891.193 1520.36 891.571V891.571Z"/>
</mask>
<path d="M1520.36 891.571C1519.33 891.948 1518.19 891.424 1517.83 890.395C1506.94 859.632 1506.1 826.186 1515.45 794.887C1525 762.956 1544.65 734.984 1571.44 715.171C1598.24 695.357 1630.74 684.772 1664.07 685.004C1696.74 685.231 1728.47 695.84 1754.69 715.269C1755.57 715.919 1755.73 717.161 1755.07 718.029V718.029C1754.41 718.898 1753.17 719.064 1752.29 718.415C1726.76 699.503 1695.86 689.178 1664.04 688.956C1631.57 688.73 1599.9 699.044 1573.79 718.349C1547.68 737.654 1528.54 764.908 1519.24 796.019C1510.13 826.498 1510.94 859.068 1521.54 889.028C1521.9 890.057 1521.38 891.193 1520.36 891.571V891.571Z" fill="#D9D9D9" fill-opacity="0.7" stroke="#7689A4" stroke-width="8" stroke-linejoin="round" mask="url(#path-185-inside-14_1501_1625)"/>
<mask id="path-186-inside-15_1501_1625" fill="white">
<path d="M1770.5 731.503C1771.27 730.731 1772.52 730.73 1773.28 731.512C1788.51 747.138 1800.25 765.828 1807.72 786.348C1815.41 807.487 1818.38 830.054 1816.41 852.463C1814.44 874.871 1807.59 896.577 1796.34 916.053C1785.08 935.53 1769.7 952.304 1751.26 965.197C1732.83 978.089 1711.8 986.787 1689.64 990.678C1667.49 994.57 1644.75 993.56 1623.02 987.721C1601.3 981.881 1581.12 971.354 1563.9 956.878C1547.19 942.827 1533.66 925.387 1524.2 905.721C1523.73 904.737 1524.16 903.561 1525.15 903.101V903.101C1526.14 902.641 1527.32 903.071 1527.79 904.054C1537 923.197 1550.17 940.173 1566.44 953.853C1583.22 967.957 1602.88 978.214 1624.05 983.904C1645.21 989.593 1667.37 990.577 1688.96 986.785C1710.54 982.994 1731.04 974.519 1749 961.957C1766.96 949.396 1781.95 933.052 1792.91 914.076C1803.88 895.099 1810.56 873.951 1812.47 852.117C1814.39 830.284 1811.5 808.296 1804.01 787.7C1796.74 767.722 1785.31 749.525 1770.49 734.307C1769.73 733.525 1769.73 732.275 1770.5 731.503V731.503Z"/>
</mask>
<path d="M1770.5 731.503C1771.27 730.731 1772.52 730.73 1773.28 731.512C1788.51 747.138 1800.25 765.828 1807.72 786.348C1815.41 807.487 1818.38 830.054 1816.41 852.463C1814.44 874.871 1807.59 896.577 1796.34 916.053C1785.08 935.53 1769.7 952.304 1751.26 965.197C1732.83 978.089 1711.8 986.787 1689.64 990.678C1667.49 994.57 1644.75 993.56 1623.02 987.721C1601.3 981.881 1581.12 971.354 1563.9 956.878C1547.19 942.827 1533.66 925.387 1524.2 905.721C1523.73 904.737 1524.16 903.561 1525.15 903.101V903.101C1526.14 902.641 1527.32 903.071 1527.79 904.054C1537 923.197 1550.17 940.173 1566.44 953.853C1583.22 967.957 1602.88 978.214 1624.05 983.904C1645.21 989.593 1667.37 990.577 1688.96 986.785C1710.54 982.994 1731.04 974.519 1749 961.957C1766.96 949.396 1781.95 933.052 1792.91 914.076C1803.88 895.099 1810.56 873.951 1812.47 852.117C1814.39 830.284 1811.5 808.296 1804.01 787.7C1796.74 767.722 1785.31 749.525 1770.49 734.307C1769.73 733.525 1769.73 732.275 1770.5 731.503V731.503Z" fill="#D9D9D9" fill-opacity="0.7" stroke="#7689A4" stroke-width="8" stroke-linejoin="round" mask="url(#path-186-inside-15_1501_1625)"/>
<path d="M1600.95 879.37C1601.72 878.603 1602.77 878.154 1603.89 878.154H1753.93C1754.87 878.154 1755.38 879.316 1754.68 880.014L1725.05 909.785C1724.28 910.551 1723.23 911 1722.11 911H1572.07C1571.13 911 1570.62 909.839 1571.32 909.141L1600.95 879.37ZM1600.94 768.231C1601.77 767.434 1602.84 767 1603.89 767H1753.93C1754.87 767 1755.38 768.161 1754.68 768.859L1725.04 798.63C1724.28 799.397 1723.23 799.846 1722.11 799.846H1572.07C1571.13 799.846 1570.62 798.684 1571.32 797.986L1600.94 768.231ZM1722.11 822.221C1723.23 822.221 1724.28 822.67 1725.05 823.436L1754.68 853.207C1755.38 853.905 1754.87 855.067 1753.93 855.067H1603.89C1602.77 855.067 1601.72 854.618 1600.95 853.851L1571.32 824.08C1570.62 823.382 1571.13 822.221 1572.07 822.221H1722.11Z" stroke="#222934" stroke-width="4"/>
<circle cx="1476.78" cy="1594.78" r="194.044" fill="#EDEFF3" stroke="#7689A4" stroke-width="4"/>
<mask id="path-189-inside-16_1501_1625" fill="white">
<path d="M1284.25 1665.74C1283.2 1666.12 1282.03 1665.59 1281.66 1664.53C1266.8 1622.97 1265.6 1577.74 1278.25 1535.42C1291.09 1492.46 1317.53 1454.82 1353.59 1428.16C1389.65 1401.5 1433.38 1387.26 1478.22 1387.57C1522.39 1387.88 1565.28 1402.29 1600.66 1428.67C1601.56 1429.34 1601.73 1430.61 1601.05 1431.51V1431.51C1600.37 1432.4 1599.1 1432.57 1598.2 1431.9C1563.52 1406.05 1521.48 1391.93 1478.2 1391.63C1434.23 1391.32 1391.35 1405.29 1356 1431.43C1320.65 1457.56 1294.73 1494.47 1282.14 1536.59C1269.74 1578.06 1270.92 1622.39 1285.47 1663.12C1285.84 1664.18 1285.31 1665.35 1284.25 1665.74V1665.74Z"/>
</mask>
<path d="M1284.25 1665.74C1283.2 1666.12 1282.03 1665.59 1281.66 1664.53C1266.8 1622.97 1265.6 1577.74 1278.25 1535.42C1291.09 1492.46 1317.53 1454.82 1353.59 1428.16C1389.65 1401.5 1433.38 1387.26 1478.22 1387.57C1522.39 1387.88 1565.28 1402.29 1600.66 1428.67C1601.56 1429.34 1601.73 1430.61 1601.05 1431.51V1431.51C1600.37 1432.4 1599.1 1432.57 1598.2 1431.9C1563.52 1406.05 1521.48 1391.93 1478.2 1391.63C1434.23 1391.32 1391.35 1405.29 1356 1431.43C1320.65 1457.56 1294.73 1494.47 1282.14 1536.59C1269.74 1578.06 1270.92 1622.39 1285.47 1663.12C1285.84 1664.18 1285.31 1665.35 1284.25 1665.74V1665.74Z" fill="#D9D9D9" fill-opacity="0.7" stroke="#7689A4" stroke-width="8" stroke-linejoin="round" mask="url(#path-189-inside-16_1501_1625)"/>
<mask id="path-190-inside-17_1501_1625" fill="white">
<path d="M1621.87 1449.69C1622.66 1448.9 1623.95 1448.9 1624.74 1449.7C1645.44 1470.82 1661.4 1496.13 1671.51 1523.94C1681.86 1552.38 1685.85 1582.75 1683.21 1612.9C1680.56 1643.05 1671.34 1672.26 1656.2 1698.46C1641.05 1724.67 1620.35 1747.24 1595.55 1764.59C1570.74 1781.94 1542.44 1793.64 1512.63 1798.88C1482.82 1804.11 1452.22 1802.75 1422.99 1794.9C1393.76 1787.04 1366.61 1772.87 1343.44 1753.4C1320.79 1734.35 1302.48 1710.69 1289.75 1683.99C1289.27 1682.98 1289.71 1681.77 1290.73 1681.3V1681.3C1291.74 1680.83 1292.95 1681.27 1293.43 1682.28C1305.92 1708.44 1323.85 1731.63 1346.05 1750.29C1368.77 1769.38 1395.39 1783.27 1424.04 1790.97C1452.7 1798.68 1482.7 1800.01 1511.93 1794.88C1541.15 1789.74 1568.9 1778.27 1593.22 1761.26C1617.54 1744.25 1637.83 1722.12 1652.68 1696.43C1667.53 1670.74 1676.57 1642.1 1679.16 1612.54C1681.76 1582.98 1677.84 1553.21 1667.7 1525.32C1657.78 1498.07 1642.15 1473.27 1621.86 1452.57C1621.08 1451.77 1621.08 1450.49 1621.87 1449.69V1449.69Z"/>
</mask>
<path d="M1621.87 1449.69C1622.66 1448.9 1623.95 1448.9 1624.74 1449.7C1645.44 1470.82 1661.4 1496.13 1671.51 1523.94C1681.86 1552.38 1685.85 1582.75 1683.21 1612.9C1680.56 1643.05 1671.34 1672.26 1656.2 1698.46C1641.05 1724.67 1620.35 1747.24 1595.55 1764.59C1570.74 1781.94 1542.44 1793.64 1512.63 1798.88C1482.82 1804.11 1452.22 1802.75 1422.99 1794.9C1393.76 1787.04 1366.61 1772.87 1343.44 1753.4C1320.79 1734.35 1302.48 1710.69 1289.75 1683.99C1289.27 1682.98 1289.71 1681.77 1290.73 1681.3V1681.3C1291.74 1680.83 1292.95 1681.27 1293.43 1682.28C1305.92 1708.44 1323.85 1731.63 1346.05 1750.29C1368.77 1769.38 1395.39 1783.27 1424.04 1790.97C1452.7 1798.68 1482.7 1800.01 1511.93 1794.88C1541.15 1789.74 1568.9 1778.27 1593.22 1761.26C1617.54 1744.25 1637.83 1722.12 1652.68 1696.43C1667.53 1670.74 1676.57 1642.1 1679.16 1612.54C1681.76 1582.98 1677.84 1553.21 1667.7 1525.32C1657.78 1498.07 1642.15 1473.27 1621.86 1452.57C1621.08 1451.77 1621.08 1450.49 1621.87 1449.69V1449.69Z" fill="#D9D9D9" fill-opacity="0.7" stroke="#7689A4" stroke-width="8" stroke-linejoin="round" mask="url(#path-190-inside-17_1501_1625)"/>
<path d="M1563.34 1569.81L1563.33 1569.82C1562.04 1579.21 1558.98 1586.02 1554.77 1590.84C1550.57 1595.66 1545.11 1598.64 1538.77 1600.21L1533.84 1601.42L1538.28 1603.9C1547.19 1608.86 1553.69 1615.02 1556.98 1623.04C1560.25 1631.05 1560.45 1641.22 1556.11 1654.48L1556.11 1654.48C1550.76 1670.82 1541.87 1679.4 1530.3 1683.21C1518.55 1687.07 1503.73 1686.12 1486.4 1682.61L1484.5 1682.23L1484.06 1684.12L1476.08 1718.32L1459.53 1713.91L1467.43 1680.07L1467.87 1678.18L1465.99 1677.68C1460.71 1676.28 1455.32 1674.79 1449.77 1673.18L1447.74 1672.59L1447.26 1674.65L1439.36 1708.53L1422.84 1704.12L1430.85 1669.73L1431.28 1667.85L1429.43 1667.34C1427.54 1666.83 1425.63 1666.29 1423.7 1665.76C1420.79 1664.94 1417.84 1664.12 1414.86 1663.32L1414.86 1663.32L1390.49 1656.82L1399.1 1635.59C1399.29 1635.65 1399.5 1635.71 1399.72 1635.77C1401.13 1636.16 1403.01 1636.69 1404.88 1637.21C1406.75 1637.72 1408.62 1638.23 1410.02 1638.59C1410.72 1638.77 1411.32 1638.92 1411.74 1639.01C1411.95 1639.06 1412.16 1639.1 1412.34 1639.13L1412.35 1639.13C1412.38 1639.13 1412.45 1639.14 1412.55 1639.15C1415.86 1639.95 1418.5 1639.22 1420.44 1637.71C1422.35 1636.24 1423.41 1634.17 1423.98 1632.66L1424.03 1632.54L1424.06 1632.41L1437.44 1575.01L1437.44 1575.01L1446.97 1534.15L1447.01 1533.98L1447.01 1533.8C1447.15 1531.25 1446.82 1528.19 1445.18 1525.41C1443.54 1522.65 1440.73 1520.39 1436.35 1519.15C1436.27 1519.11 1436.21 1519.09 1436.18 1519.07L1436.18 1519.07C1435.99 1518.99 1435.77 1518.92 1435.57 1518.85C1435.15 1518.72 1434.55 1518.54 1433.86 1518.35C1432.46 1517.97 1430.58 1517.48 1428.71 1517C1426.83 1516.52 1424.94 1516.05 1423.52 1515.69C1423.37 1515.66 1423.22 1515.62 1423.07 1515.58L1427.59 1496.2L1451.92 1502.69L1451.9 1502.81L1453.73 1503.29C1457.98 1504.43 1462.36 1505.5 1466.8 1506.58L1468.76 1507.06L1469.22 1505.09L1477.12 1471.25L1493.66 1475.66L1485.9 1508.92L1485.45 1510.85L1487.37 1511.32C1492.85 1512.66 1498.34 1514 1503.69 1515.43L1505.68 1515.96L1506.15 1513.95L1513.82 1481.03L1530.37 1485.44L1522.45 1519.43L1522.05 1521.15L1523.7 1521.76C1536.48 1526.47 1547.29 1532.26 1554.44 1539.98C1561.51 1547.6 1565.1 1557.18 1563.34 1569.81ZM1453.9 1648.37L1453.46 1650.26L1455.33 1650.76C1456.45 1651.06 1457.78 1651.43 1459.28 1651.86L1459.37 1651.88C1467.66 1654.22 1481.14 1658.03 1493.32 1658.08C1499.44 1658.11 1505.44 1657.19 1510.34 1654.5C1515.33 1651.76 1519.05 1647.27 1520.62 1640.5C1522.22 1633.63 1521.04 1627.79 1518.02 1622.9C1515.03 1618.07 1510.32 1614.29 1505.04 1611.3C1494.56 1605.34 1481.2 1602.14 1472.64 1600.08L1472.54 1600.06C1470.6 1599.59 1468.93 1599.19 1467.57 1598.83L1465.58 1598.3L1465.11 1600.31L1453.9 1648.37ZM1526.94 1570.15L1526.94 1570.15C1528.56 1563.2 1527.27 1557.45 1524.14 1552.77C1521.05 1548.17 1516.28 1544.75 1511.14 1542.15C1502.94 1538.01 1493.26 1535.73 1486.89 1534.22C1485.32 1533.85 1483.95 1533.53 1482.86 1533.23L1480.87 1532.7L1480.4 1534.71L1470.23 1578.31L1469.79 1580.19L1471.67 1580.69C1472.58 1580.94 1473.67 1581.25 1474.91 1581.6C1481.2 1583.4 1491.2 1586.26 1500.67 1586.63C1506.36 1586.85 1512.09 1586.2 1516.85 1583.73C1521.7 1581.2 1525.37 1576.87 1526.94 1570.15Z" stroke="#222934" stroke-width="4"/>
</svg>
